ISO-10303-21;
HEADER;
/* Generated by software containing ST-Developer
 * from STEP Tools, Inc. (www.steptools.com) 
 */
/* OPTION: using custom schema-name function */

FILE_DESCRIPTION(
/* description */ (''),
/* implementation_level */ '2;1');

FILE_NAME(
/* name */ 'RKSE-004-052.stp',
/* time_stamp */ '2026-01-12T15:20:35+05:30',
/* author */ (''),
/* organization */ (''),
/* preprocessor_version */ 'ST-DEVELOPER v20',
/* originating_system */ 'SIEMENS PLM Software NX2506.4021',
/* authorisation */ '');

FILE_SCHEMA (('AUTOMOTIVE_DESIGN { 1 0 10303 214 3 1 1 1 }'));
ENDSEC;

DATA;
#10=PROPERTY_DEFINITION_REPRESENTATION(#14,#12);
#11=PROPERTY_DEFINITION_REPRESENTATION(#15,#13);
#12=REPRESENTATION('',(#16),#2451);
#13=REPRESENTATION('',(#17),#2451);
#14=PROPERTY_DEFINITION('pmi validation property','',#21);
#15=PROPERTY_DEFINITION('pmi validation property','',#21);
#16=VALUE_REPRESENTATION_ITEM('number of annotations',COUNT_MEASURE(0.));
#17=VALUE_REPRESENTATION_ITEM('number of views',COUNT_MEASURE(0.));
#18=SHAPE_REPRESENTATION_RELATIONSHIP('None',
'relationship between NAS PC Test print_objects-None and NAS PC Test p
rint_objects-None',#30,#19);
#19=ADVANCED_BREP_SHAPE_REPRESENTATION('NAS PC Test print_objects-None',
(#40),#2451);
#20=SHAPE_DEFINITION_REPRESENTATION(#21,#30);
#21=PRODUCT_DEFINITION_SHAPE('','',#22);
#22=PRODUCT_DEFINITION(' ','',#24,#23);
#23=PRODUCT_DEFINITION_CONTEXT('part definition',#29,'design');
#24=PRODUCT_DEFINITION_FORMATION_WITH_SPECIFIED_SOURCE(' ',' ',#26,
 .NOT_KNOWN.);
#25=PRODUCT_RELATED_PRODUCT_CATEGORY('part','',(#26));
#26=PRODUCT('NAS PC Test print_objects','NAS PC Test print_objects',' ',
(#27));
#27=PRODUCT_CONTEXT(' ',#29,'mechanical');
#28=APPLICATION_PROTOCOL_DEFINITION('international standard',
'automotive_design',2010,#29);
#29=APPLICATION_CONTEXT(
'core data for automotive mechanical design processes');
#30=SHAPE_REPRESENTATION('NAS PC Test print_objects-None',(#1490),#2451);
#31=PRESENTATION_LAYER_ASSIGNMENT('1','Layer 1',(#40));
#32=STYLED_ITEM('',(#33),#40);
#33=PRESENTATION_STYLE_ASSIGNMENT((#34));
#34=SURFACE_STYLE_USAGE(.BOTH.,#35);
#35=SURFACE_SIDE_STYLE('',(#36));
#36=SURFACE_STYLE_FILL_AREA(#37);
#37=FILL_AREA_STYLE('',(#38));
#38=FILL_AREA_STYLE_COLOUR('',#39);
#39=COLOUR_RGB('medium steel',0.611764705882353,0.658823529411765,0.670588235294118);
#40=MANIFOLD_SOLID_BREP('',#41);
#41=CLOSED_SHELL('',(#132,#133,#134,#135,#136,#137,#138,#139,#140,#141,
#142,#143,#144,#145,#146,#147,#148,#149,#150,#151,#152,#153,#154,#155,#156,
#157,#158,#159,#160,#161,#162,#163,#164,#165,#166,#167,#168,#169,#170,#171,
#172,#173,#174,#175,#176,#177,#178,#179,#180,#181,#182,#183,#184,#185,#186,
#187,#188,#189,#190,#191,#192,#193,#194,#195,#196,#197,#198,#199,#200,#201,
#202,#203,#204,#205,#206,#207));
#42=CYLINDRICAL_SURFACE('',#1521,3.1);
#43=CYLINDRICAL_SURFACE('',#1524,3.1);
#44=CYLINDRICAL_SURFACE('',#1542,3.75);
#45=CYLINDRICAL_SURFACE('',#1546,3.75);
#46=CYLINDRICAL_SURFACE('',#1549,3.1);
#47=CYLINDRICAL_SURFACE('',#1551,3.1);
#48=CYLINDRICAL_SURFACE('',#1554,3.75);
#49=CYLINDRICAL_SURFACE('',#1557,0.75);
#50=CYLINDRICAL_SURFACE('',#1559,0.75);
#51=CYLINDRICAL_SURFACE('',#1560,2.);
#52=CYLINDRICAL_SURFACE('',#1561,2.);
#53=CYLINDRICAL_SURFACE('',#1562,2.);
#54=CYLINDRICAL_SURFACE('',#1563,2.);
#55=CYLINDRICAL_SURFACE('',#1565,3.75);
#56=CYLINDRICAL_SURFACE('',#1569,4.1);
#57=CYLINDRICAL_SURFACE('',#1572,4.1);
#58=CYLINDRICAL_SURFACE('',#1578,4.14223113681208);
#59=CYLINDRICAL_SURFACE('',#1583,4.14223113681208);
#60=CYLINDRICAL_SURFACE('',#1590,4.1);
#61=CYLINDRICAL_SURFACE('',#1597,4.1);
#62=CYLINDRICAL_SURFACE('',#1599,4.5);
#63=CYLINDRICAL_SURFACE('',#1602,4.5);
#64=CYLINDRICAL_SURFACE('',#1606,3.6);
#65=CYLINDRICAL_SURFACE('',#1608,3.6);
#66=CYLINDRICAL_SURFACE('',#1611,3.1);
#67=CYLINDRICAL_SURFACE('',#1613,3.1);
#68=CYLINDRICAL_SURFACE('',#1616,3.1);
#69=CYLINDRICAL_SURFACE('',#1618,3.1);
#70=CYLINDRICAL_SURFACE('',#1620,3.1);
#71=FACE_BOUND('',#308,.T.);
#72=FACE_BOUND('',#309,.T.);
#73=FACE_BOUND('',#310,.T.);
#74=FACE_BOUND('',#311,.T.);
#75=FACE_BOUND('',#312,.T.);
#76=FACE_BOUND('',#313,.T.);
#77=FACE_BOUND('',#314,.T.);
#78=FACE_BOUND('',#315,.T.);
#79=FACE_BOUND('',#316,.T.);
#80=FACE_BOUND('',#317,.T.);
#81=FACE_BOUND('',#318,.T.);
#82=FACE_BOUND('',#319,.T.);
#83=FACE_BOUND('',#320,.T.);
#84=FACE_BOUND('',#321,.T.);
#85=FACE_BOUND('',#322,.T.);
#86=FACE_BOUND('',#323,.T.);
#87=FACE_BOUND('',#326,.T.);
#88=FACE_BOUND('',#327,.T.);
#89=FACE_BOUND('',#328,.T.);
#90=FACE_BOUND('',#329,.T.);
#91=FACE_BOUND('',#330,.T.);
#92=FACE_BOUND('',#337,.T.);
#93=FACE_BOUND('',#338,.T.);
#94=FACE_BOUND('',#339,.T.);
#95=FACE_BOUND('',#340,.T.);
#96=FACE_BOUND('',#348,.T.);
#97=FACE_BOUND('',#349,.T.);
#98=FACE_BOUND('',#350,.T.);
#99=FACE_BOUND('',#351,.T.);
#100=FACE_BOUND('',#352,.T.);
#101=FACE_BOUND('',#353,.T.);
#102=FACE_BOUND('',#354,.T.);
#103=FACE_BOUND('',#355,.T.);
#104=FACE_BOUND('',#357,.T.);
#105=FACE_BOUND('',#358,.T.);
#106=FACE_BOUND('',#365,.T.);
#107=FACE_BOUND('',#366,.T.);
#108=FACE_BOUND('',#370,.T.);
#109=FACE_BOUND('',#371,.T.);
#110=FACE_BOUND('',#375,.T.);
#111=FACE_BOUND('',#376,.T.);
#112=FACE_BOUND('',#377,.T.);
#113=FACE_BOUND('',#378,.T.);
#114=FACE_BOUND('',#382,.T.);
#115=FACE_BOUND('',#383,.T.);
#116=FACE_BOUND('',#387,.T.);
#117=FACE_BOUND('',#388,.T.);
#118=FACE_BOUND('',#389,.T.);
#119=FACE_BOUND('',#390,.T.);
#120=FACE_BOUND('',#391,.T.);
#121=FACE_BOUND('',#392,.T.);
#122=FACE_BOUND('',#393,.T.);
#123=FACE_BOUND('',#394,.T.);
#124=FACE_BOUND('',#395,.T.);
#125=FACE_BOUND('',#396,.T.);
#126=FACE_BOUND('',#397,.T.);
#127=FACE_BOUND('',#398,.T.);
#128=FACE_BOUND('',#399,.T.);
#129=FACE_BOUND('',#400,.T.);
#130=FACE_BOUND('',#401,.T.);
#131=FACE_BOUND('',#402,.T.);
#132=ADVANCED_FACE('',(#255),#208,.T.);
#133=ADVANCED_FACE('',(#256),#209,.T.);
#134=ADVANCED_FACE('',(#71,#72,#73,#74,#75,#76),#210,.T.);
#135=ADVANCED_FACE('',(#77,#78,#79,#80,#81,#82),#211,.T.);
#136=ADVANCED_FACE('',(#83,#84),#42,.F.);
#137=ADVANCED_FACE('',(#85,#86),#43,.F.);
#138=ADVANCED_FACE('',(#257),#212,.T.);
#139=ADVANCED_FACE('',(#258),#213,.T.);
#140=ADVANCED_FACE('',(#87,#88,#89,#90,#91),#214,.F.);
#141=ADVANCED_FACE('',(#259),#215,.T.);
#142=ADVANCED_FACE('',(#260),#44,.F.);
#143=ADVANCED_FACE('',(#261),#216,.T.);
#144=ADVANCED_FACE('',(#262),#217,.T.);
#145=ADVANCED_FACE('',(#263),#45,.F.);
#146=ADVANCED_FACE('',(#264),#218,.T.);
#147=ADVANCED_FACE('',(#92,#93),#46,.F.);
#148=ADVANCED_FACE('',(#94,#95),#47,.F.);
#149=ADVANCED_FACE('',(#265),#219,.T.);
#150=ADVANCED_FACE('',(#266),#48,.F.);
#151=ADVANCED_FACE('',(#267),#220,.T.);
#152=ADVANCED_FACE('',(#268),#221,.T.);
#153=ADVANCED_FACE('',(#269),#49,.F.);
#154=ADVANCED_FACE('',(#270),#222,.T.);
#155=ADVANCED_FACE('',(#271),#50,.F.);
#156=ADVANCED_FACE('',(#96,#97),#51,.F.);
#157=ADVANCED_FACE('',(#98,#99),#52,.F.);
#158=ADVANCED_FACE('',(#100,#101),#53,.F.);
#159=ADVANCED_FACE('',(#102,#103),#54,.F.);
#160=ADVANCED_FACE('',(#272),#55,.F.);
#161=ADVANCED_FACE('',(#104,#105),#223,.T.);
#162=ADVANCED_FACE('',(#273),#224,.F.);
#163=ADVANCED_FACE('',(#274),#56,.F.);
#164=ADVANCED_FACE('',(#275),#225,.F.);
#165=ADVANCED_FACE('',(#276),#57,.F.);
#166=ADVANCED_FACE('',(#277),#226,.F.);
#167=ADVANCED_FACE('',(#278),#227,.F.);
#168=ADVANCED_FACE('',(#106,#107),#228,.T.);
#169=ADVANCED_FACE('',(#279),#229,.T.);
#170=ADVANCED_FACE('',(#280),#58,.F.);
#171=ADVANCED_FACE('',(#281),#230,.T.);
#172=ADVANCED_FACE('',(#108,#109),#231,.F.);
#173=ADVANCED_FACE('',(#282),#232,.F.);
#174=ADVANCED_FACE('',(#283),#59,.F.);
#175=ADVANCED_FACE('',(#284),#233,.F.);
#176=ADVANCED_FACE('',(#110,#111),#234,.T.);
#177=ADVANCED_FACE('',(#112,#113),#235,.F.);
#178=ADVANCED_FACE('',(#285),#236,.T.);
#179=ADVANCED_FACE('',(#286),#60,.F.);
#180=ADVANCED_FACE('',(#287),#237,.T.);
#181=ADVANCED_FACE('',(#114,#115),#238,.T.);
#182=ADVANCED_FACE('',(#288),#239,.F.);
#183=ADVANCED_FACE('',(#289),#240,.F.);
#184=ADVANCED_FACE('',(#290),#61,.F.);
#185=ADVANCED_FACE('',(#116,#117),#62,.T.);
#186=ADVANCED_FACE('',(#118,#119),#241,.F.);
#187=ADVANCED_FACE('',(#120,#121),#63,.T.);
#188=ADVANCED_FACE('',(#122,#123),#242,.F.);
#189=ADVANCED_FACE('',(#124,#125),#243,.T.);
#190=ADVANCED_FACE('',(#126,#127),#64,.F.);
#191=ADVANCED_FACE('',(#128,#129),#65,.F.);
#192=ADVANCED_FACE('',(#130,#131),#244,.T.);
#193=ADVANCED_FACE('',(#291),#245,.T.);
#194=ADVANCED_FACE('',(#292),#66,.F.);
#195=ADVANCED_FACE('',(#293),#246,.T.);
#196=ADVANCED_FACE('',(#294),#67,.F.);
#197=ADVANCED_FACE('',(#295),#247,.T.);
#198=ADVANCED_FACE('',(#296),#248,.T.);
#199=ADVANCED_FACE('',(#297),#68,.F.);
#200=ADVANCED_FACE('',(#298),#249,.T.);
#201=ADVANCED_FACE('',(#299),#69,.F.);
#202=ADVANCED_FACE('',(#300),#250,.T.);
#203=ADVANCED_FACE('',(#301),#70,.F.);
#204=ADVANCED_FACE('',(#302),#251,.T.);
#205=ADVANCED_FACE('',(#303),#252,.T.);
#206=ADVANCED_FACE('',(#304),#253,.F.);
#207=ADVANCED_FACE('',(#305),#254,.F.);
#208=PLANE('',#1496);
#209=PLANE('',#1502);
#210=PLANE('',#1510);
#211=PLANE('',#1518);
#212=PLANE('',#1525);
#213=PLANE('',#1526);
#214=PLANE('',#1539);
#215=PLANE('',#1540);
#216=PLANE('',#1543);
#217=PLANE('',#1544);
#218=PLANE('',#1547);
#219=PLANE('',#1552);
#220=PLANE('',#1555);
#221=PLANE('',#1556);
#222=PLANE('',#1558);
#223=PLANE('',#1567);
#224=PLANE('',#1568);
#225=PLANE('',#1570);
#226=PLANE('',#1573);
#227=PLANE('',#1574);
#228=PLANE('',#1575);
#229=PLANE('',#1576);
#230=PLANE('',#1579);
#231=PLANE('',#1580);
#232=PLANE('',#1581);
#233=PLANE('',#1584);
#234=PLANE('',#1585);
#235=PLANE('',#1588);
#236=PLANE('',#1589);
#237=PLANE('',#1591);
#238=PLANE('',#1594);
#239=PLANE('',#1595);
#240=PLANE('',#1596);
#241=PLANE('',#1600);
#242=PLANE('',#1603);
#243=PLANE('',#1605);
#244=PLANE('',#1609);
#245=PLANE('',#1610);
#246=PLANE('',#1612);
#247=PLANE('',#1614);
#248=PLANE('',#1615);
#249=PLANE('',#1617);
#250=PLANE('',#1619);
#251=PLANE('',#1621);
#252=PLANE('',#1622);
#253=PLANE('',#1623);
#254=PLANE('',#1624);
#255=FACE_OUTER_BOUND('',#306,.T.);
#256=FACE_OUTER_BOUND('',#307,.T.);
#257=FACE_OUTER_BOUND('',#324,.T.);
#258=FACE_OUTER_BOUND('',#325,.T.);
#259=FACE_OUTER_BOUND('',#331,.T.);
#260=FACE_OUTER_BOUND('',#332,.T.);
#261=FACE_OUTER_BOUND('',#333,.T.);
#262=FACE_OUTER_BOUND('',#334,.T.);
#263=FACE_OUTER_BOUND('',#335,.T.);
#264=FACE_OUTER_BOUND('',#336,.T.);
#265=FACE_OUTER_BOUND('',#341,.T.);
#266=FACE_OUTER_BOUND('',#342,.T.);
#267=FACE_OUTER_BOUND('',#343,.T.);
#268=FACE_OUTER_BOUND('',#344,.T.);
#269=FACE_OUTER_BOUND('',#345,.T.);
#270=FACE_OUTER_BOUND('',#346,.T.);
#271=FACE_OUTER_BOUND('',#347,.T.);
#272=FACE_OUTER_BOUND('',#356,.T.);
#273=FACE_OUTER_BOUND('',#359,.T.);
#274=FACE_OUTER_BOUND('',#360,.T.);
#275=FACE_OUTER_BOUND('',#361,.T.);
#276=FACE_OUTER_BOUND('',#362,.T.);
#277=FACE_OUTER_BOUND('',#363,.T.);
#278=FACE_OUTER_BOUND('',#364,.T.);
#279=FACE_OUTER_BOUND('',#367,.T.);
#280=FACE_OUTER_BOUND('',#368,.T.);
#281=FACE_OUTER_BOUND('',#369,.T.);
#282=FACE_OUTER_BOUND('',#372,.T.);
#283=FACE_OUTER_BOUND('',#373,.T.);
#284=FACE_OUTER_BOUND('',#374,.T.);
#285=FACE_OUTER_BOUND('',#379,.T.);
#286=FACE_OUTER_BOUND('',#380,.T.);
#287=FACE_OUTER_BOUND('',#381,.T.);
#288=FACE_OUTER_BOUND('',#384,.T.);
#289=FACE_OUTER_BOUND('',#385,.T.);
#290=FACE_OUTER_BOUND('',#386,.T.);
#291=FACE_OUTER_BOUND('',#403,.T.);
#292=FACE_OUTER_BOUND('',#404,.T.);
#293=FACE_OUTER_BOUND('',#405,.T.);
#294=FACE_OUTER_BOUND('',#406,.T.);
#295=FACE_OUTER_BOUND('',#407,.T.);
#296=FACE_OUTER_BOUND('',#408,.T.);
#297=FACE_OUTER_BOUND('',#409,.T.);
#298=FACE_OUTER_BOUND('',#410,.T.);
#299=FACE_OUTER_BOUND('',#411,.T.);
#300=FACE_OUTER_BOUND('',#412,.T.);
#301=FACE_OUTER_BOUND('',#413,.T.);
#302=FACE_OUTER_BOUND('',#414,.T.);
#303=FACE_OUTER_BOUND('',#415,.T.);
#304=FACE_OUTER_BOUND('',#416,.T.);
#305=FACE_OUTER_BOUND('',#417,.T.);
#306=EDGE_LOOP('',(#698,#699,#700,#701,#702,#703,#704,#705,#706,#707,#708,
#709,#710,#711,#712,#713,#714,#715,#716,#717));
#307=EDGE_LOOP('',(#718,#719,#720,#721,#722,#723,#724,#725,#726,#727,#728,
#729,#730,#731,#732,#733,#734,#735,#736,#737));
#308=EDGE_LOOP('',(#738,#739,#740,#741,#742,#743,#744,#745));
#309=EDGE_LOOP('',(#746));
#310=EDGE_LOOP('',(#747));
#311=EDGE_LOOP('',(#748));
#312=EDGE_LOOP('',(#749,#750,#751,#752));
#313=EDGE_LOOP('',(#753));
#314=EDGE_LOOP('',(#754,#755,#756,#757,#758,#759,#760,#761));
#315=EDGE_LOOP('',(#762));
#316=EDGE_LOOP('',(#763,#764,#765,#766));
#317=EDGE_LOOP('',(#767));
#318=EDGE_LOOP('',(#768));
#319=EDGE_LOOP('',(#769));
#320=EDGE_LOOP('',(#770));
#321=EDGE_LOOP('',(#771));
#322=EDGE_LOOP('',(#772));
#323=EDGE_LOOP('',(#773));
#324=EDGE_LOOP('',(#774,#775,#776,#777,#778,#779,#780,#781,#782,#783,#784,
#785));
#325=EDGE_LOOP('',(#786,#787,#788,#789,#790,#791,#792,#793,#794,#795,#796,
#797));
#326=EDGE_LOOP('',(#798,#799,#800,#801,#802,#803,#804,#805,#806,#807,#808,
#809,#810,#811,#812,#813,#814,#815,#816,#817,#818,#819,#820,#821,#822,#823,
#824,#825,#826,#827));
#327=EDGE_LOOP('',(#828));
#328=EDGE_LOOP('',(#829));
#329=EDGE_LOOP('',(#830));
#330=EDGE_LOOP('',(#831));
#331=EDGE_LOOP('',(#832,#833,#834,#835));
#332=EDGE_LOOP('',(#836,#837,#838,#839));
#333=EDGE_LOOP('',(#840,#841,#842,#843));
#334=EDGE_LOOP('',(#844,#845,#846,#847,#848,#849));
#335=EDGE_LOOP('',(#850,#851,#852,#853));
#336=EDGE_LOOP('',(#854,#855,#856,#857,#858,#859));
#337=EDGE_LOOP('',(#860));
#338=EDGE_LOOP('',(#861));
#339=EDGE_LOOP('',(#862));
#340=EDGE_LOOP('',(#863));
#341=EDGE_LOOP('',(#864,#865,#866,#867));
#342=EDGE_LOOP('',(#868,#869,#870,#871));
#343=EDGE_LOOP('',(#872,#873,#874,#875));
#344=EDGE_LOOP('',(#876,#877,#878,#879));
#345=EDGE_LOOP('',(#880,#881,#882,#883));
#346=EDGE_LOOP('',(#884,#885,#886,#887));
#347=EDGE_LOOP('',(#888,#889,#890,#891));
#348=EDGE_LOOP('',(#892));
#349=EDGE_LOOP('',(#893));
#350=EDGE_LOOP('',(#894));
#351=EDGE_LOOP('',(#895));
#352=EDGE_LOOP('',(#896));
#353=EDGE_LOOP('',(#897));
#354=EDGE_LOOP('',(#898));
#355=EDGE_LOOP('',(#899));
#356=EDGE_LOOP('',(#900,#901,#902,#903));
#357=EDGE_LOOP('',(#904,#905,#906,#907));
#358=EDGE_LOOP('',(#908));
#359=EDGE_LOOP('',(#909,#910,#911,#912));
#360=EDGE_LOOP('',(#913,#914,#915,#916));
#361=EDGE_LOOP('',(#917,#918,#919,#920));
#362=EDGE_LOOP('',(#921,#922,#923,#924));
#363=EDGE_LOOP('',(#925,#926,#927,#928));
#364=EDGE_LOOP('',(#929,#930,#931,#932));
#365=EDGE_LOOP('',(#933));
#366=EDGE_LOOP('',(#934,#935,#936,#937));
#367=EDGE_LOOP('',(#938,#939,#940,#941));
#368=EDGE_LOOP('',(#942,#943,#944,#945));
#369=EDGE_LOOP('',(#946,#947,#948,#949));
#370=EDGE_LOOP('',(#950,#951,#952,#953));
#371=EDGE_LOOP('',(#954,#955,#956,#957,#958));
#372=EDGE_LOOP('',(#959,#960,#961,#962));
#373=EDGE_LOOP('',(#963,#964,#965,#966));
#374=EDGE_LOOP('',(#967,#968,#969,#970));
#375=EDGE_LOOP('',(#971,#972,#973,#974));
#376=EDGE_LOOP('',(#975,#976,#977,#978,#979));
#377=EDGE_LOOP('',(#980));
#378=EDGE_LOOP('',(#981,#982,#983,#984,#985,#986));
#379=EDGE_LOOP('',(#987,#988,#989,#990));
#380=EDGE_LOOP('',(#991,#992,#993,#994));
#381=EDGE_LOOP('',(#995,#996,#997,#998));
#382=EDGE_LOOP('',(#999));
#383=EDGE_LOOP('',(#1000,#1001,#1002,#1003,#1004,#1005));
#384=EDGE_LOOP('',(#1006,#1007,#1008,#1009));
#385=EDGE_LOOP('',(#1010,#1011,#1012,#1013));
#386=EDGE_LOOP('',(#1014,#1015,#1016,#1017));
#387=EDGE_LOOP('',(#1018));
#388=EDGE_LOOP('',(#1019));
#389=EDGE_LOOP('',(#1020));
#390=EDGE_LOOP('',(#1021));
#391=EDGE_LOOP('',(#1022));
#392=EDGE_LOOP('',(#1023));
#393=EDGE_LOOP('',(#1024));
#394=EDGE_LOOP('',(#1025));
#395=EDGE_LOOP('',(#1026));
#396=EDGE_LOOP('',(#1027));
#397=EDGE_LOOP('',(#1028));
#398=EDGE_LOOP('',(#1029));
#399=EDGE_LOOP('',(#1030));
#400=EDGE_LOOP('',(#1031));
#401=EDGE_LOOP('',(#1032));
#402=EDGE_LOOP('',(#1033));
#403=EDGE_LOOP('',(#1034,#1035,#1036,#1037));
#404=EDGE_LOOP('',(#1038,#1039,#1040,#1041));
#405=EDGE_LOOP('',(#1042,#1043,#1044,#1045));
#406=EDGE_LOOP('',(#1046,#1047,#1048,#1049));
#407=EDGE_LOOP('',(#1050,#1051,#1052,#1053));
#408=EDGE_LOOP('',(#1054,#1055,#1056,#1057));
#409=EDGE_LOOP('',(#1058,#1059,#1060,#1061));
#410=EDGE_LOOP('',(#1062,#1063,#1064,#1065));
#411=EDGE_LOOP('',(#1066,#1067,#1068,#1069));
#412=EDGE_LOOP('',(#1070,#1071,#1072,#1073));
#413=EDGE_LOOP('',(#1074,#1075,#1076,#1077));
#414=EDGE_LOOP('',(#1078,#1079,#1080,#1081));
#415=EDGE_LOOP('',(#1082,#1083,#1084,#1085));
#416=EDGE_LOOP('',(#1086,#1087,#1088,#1089));
#417=EDGE_LOOP('',(#1090,#1091,#1092,#1093));
#418=LINE('',#2039,#558);
#419=LINE('',#2043,#559);
#420=LINE('',#2047,#560);
#421=LINE('',#2051,#561);
#422=LINE('',#2055,#562);
#423=LINE('',#2057,#563);
#424=LINE('',#2059,#564);
#425=LINE('',#2061,#565);
#426=LINE('',#2063,#566);
#427=LINE('',#2065,#567);
#428=LINE('',#2067,#568);
#429=LINE('',#2069,#569);
#430=LINE('',#2071,#570);
#431=LINE('',#2073,#571);
#432=LINE('',#2075,#572);
#433=LINE('',#2080,#573);
#434=LINE('',#2082,#574);
#435=LINE('',#2084,#575);
#436=LINE('',#2086,#576);
#437=LINE('',#2088,#577);
#438=LINE('',#2090,#578);
#439=LINE('',#2092,#579);
#440=LINE('',#2094,#580);
#441=LINE('',#2096,#581);
#442=LINE('',#2098,#582);
#443=LINE('',#2100,#583);
#444=LINE('',#2104,#584);
#445=LINE('',#2108,#585);
#446=LINE('',#2112,#586);
#447=LINE('',#2116,#587);
#448=LINE('',#2118,#588);
#449=LINE('',#2120,#589);
#450=LINE('',#2122,#590);
#451=LINE('',#2126,#591);
#452=LINE('',#2127,#592);
#453=LINE('',#2134,#593);
#454=LINE('',#2139,#594);
#455=LINE('',#2145,#595);
#456=LINE('',#2147,#596);
#457=LINE('',#2149,#597);
#458=LINE('',#2153,#598);
#459=LINE('',#2154,#599);
#460=LINE('',#2157,#600);
#461=LINE('',#2162,#601);
#462=LINE('',#2182,#602);
#463=LINE('',#2185,#603);
#464=LINE('',#2186,#604);
#465=LINE('',#2188,#605);
#466=LINE('',#2190,#606);
#467=LINE('',#2192,#607);
#468=LINE('',#2194,#608);
#469=LINE('',#2196,#609);
#470=LINE('',#2198,#610);
#471=LINE('',#2200,#611);
#472=LINE('',#2202,#612);
#473=LINE('',#2205,#613);
#474=LINE('',#2206,#614);
#475=LINE('',#2208,#615);
#476=LINE('',#2210,#616);
#477=LINE('',#2212,#617);
#478=LINE('',#2214,#618);
#479=LINE('',#2216,#619);
#480=LINE('',#2218,#620);
#481=LINE('',#2220,#621);
#482=LINE('',#2222,#622);
#483=LINE('',#2226,#623);
#484=LINE('',#2228,#624);
#485=LINE('',#2232,#625);
#486=LINE('',#2233,#626);
#487=LINE('',#2237,#627);
#488=LINE('',#2238,#628);
#489=LINE('',#2242,#629);
#490=LINE('',#2243,#630);
#491=LINE('',#2247,#631);
#492=LINE('',#2249,#632);
#493=LINE('',#2253,#633);
#494=LINE('',#2254,#634);
#495=LINE('',#2258,#635);
#496=LINE('',#2259,#636);
#497=LINE('',#2263,#637);
#498=LINE('',#2273,#638);
#499=LINE('',#2275,#639);
#500=LINE('',#2277,#640);
#501=LINE('',#2279,#641);
#502=LINE('',#2283,#642);
#503=LINE('',#2285,#643);
#504=LINE('',#2287,#644);
#505=LINE('',#2289,#645);
#506=LINE('',#2291,#646);
#507=LINE('',#2292,#647);
#508=LINE('',#2296,#648);
#509=LINE('',#2298,#649);
#510=LINE('',#2300,#650);
#511=LINE('',#2301,#651);
#512=LINE('',#2309,#652);
#513=LINE('',#2312,#653);
#514=LINE('',#2313,#654);
#515=LINE('',#2317,#655);
#516=LINE('',#2319,#656);
#517=LINE('',#2321,#657);
#518=LINE('',#2323,#658);
#519=LINE('',#2326,#659);
#520=LINE('',#2335,#660);
#521=LINE('',#2339,#661);
#522=LINE('',#2341,#662);
#523=LINE('',#2343,#663);
#524=LINE('',#2346,#664);
#525=LINE('',#2350,#665);
#526=LINE('',#2352,#666);
#527=LINE('',#2354,#667);
#528=LINE('',#2357,#668);
#529=LINE('',#2359,#669);
#530=LINE('',#2363,#670);
#531=LINE('',#2365,#671);
#532=LINE('',#2368,#672);
#533=LINE('',#2370,#673);
#534=LINE('',#2372,#674);
#535=LINE('',#2376,#675);
#536=LINE('',#2381,#676);
#537=LINE('',#2382,#677);
#538=LINE('',#2386,#678);
#539=LINE('',#2388,#679);
#540=LINE('',#2390,#680);
#541=LINE('',#2395,#681);
#542=LINE('',#2396,#682);
#543=LINE('',#2400,#683);
#544=LINE('',#2402,#684);
#545=LINE('',#2404,#685);
#546=LINE('',#2423,#686);
#547=LINE('',#2424,#687);
#548=LINE('',#2426,#688);
#549=LINE('',#2428,#689);
#550=LINE('',#2429,#690);
#551=LINE('',#2433,#691);
#552=LINE('',#2435,#692);
#553=LINE('',#2437,#693);
#554=LINE('',#2439,#694);
#555=LINE('',#2441,#695);
#556=LINE('',#2443,#696);
#557=LINE('',#2445,#697);
#558=VECTOR('',#1629,1.);
#559=VECTOR('',#1632,1.);
#560=VECTOR('',#1635,1.);
#561=VECTOR('',#1638,1.);
#562=VECTOR('',#1641,1.);
#563=VECTOR('',#1642,1.);
#564=VECTOR('',#1643,1.);
#565=VECTOR('',#1644,1.);
#566=VECTOR('',#1645,1.);
#567=VECTOR('',#1646,1.);
#568=VECTOR('',#1647,1.);
#569=VECTOR('',#1648,1.);
#570=VECTOR('',#1649,1.);
#571=VECTOR('',#1650,1.);
#572=VECTOR('',#1651,1.);
#573=VECTOR('',#1656,1.);
#574=VECTOR('',#1657,1.);
#575=VECTOR('',#1658,1.);
#576=VECTOR('',#1659,1.);
#577=VECTOR('',#1660,1.);
#578=VECTOR('',#1661,1.);
#579=VECTOR('',#1662,1.);
#580=VECTOR('',#1663,1.);
#581=VECTOR('',#1664,1.);
#582=VECTOR('',#1665,1.);
#583=VECTOR('',#1666,1.);
#584=VECTOR('',#1669,1.);
#585=VECTOR('',#1672,1.);
#586=VECTOR('',#1675,1.);
#587=VECTOR('',#1678,1.);
#588=VECTOR('',#1681,1.);
#589=VECTOR('',#1682,1.);
#590=VECTOR('',#1683,1.);
#591=VECTOR('',#1686,1.);
#592=VECTOR('',#1687,1.);
#593=VECTOR('',#1694,1.);
#594=VECTOR('',#1697,1.);
#595=VECTOR('',#1704,1.);
#596=VECTOR('',#1705,1.);
#597=VECTOR('',#1706,1.);
#598=VECTOR('',#1709,1.);
#599=VECTOR('',#1710,1.);
#600=VECTOR('',#1713,1.);
#601=VECTOR('',#1716,1.);
#602=VECTOR('',#1739,1.);
#603=VECTOR('',#1740,1.);
#604=VECTOR('',#1741,1.);
#605=VECTOR('',#1742,1.);
#606=VECTOR('',#1743,1.);
#607=VECTOR('',#1744,1.);
#608=VECTOR('',#1745,1.);
#609=VECTOR('',#1746,1.);
#610=VECTOR('',#1747,1.);
#611=VECTOR('',#1748,1.);
#612=VECTOR('',#1751,1.);
#613=VECTOR('',#1752,1.);
#614=VECTOR('',#1753,1.);
#615=VECTOR('',#1754,1.);
#616=VECTOR('',#1755,1.);
#617=VECTOR('',#1756,1.);
#618=VECTOR('',#1757,1.);
#619=VECTOR('',#1758,1.);
#620=VECTOR('',#1759,1.);
#621=VECTOR('',#1760,1.);
#622=VECTOR('',#1763,1.);
#623=VECTOR('',#1766,1.);
#624=VECTOR('',#1767,1.);
#625=VECTOR('',#1770,1.);
#626=VECTOR('',#1771,1.);
#627=VECTOR('',#1774,1.);
#628=VECTOR('',#1775,1.);
#629=VECTOR('',#1778,1.);
#630=VECTOR('',#1779,1.);
#631=VECTOR('',#1782,1.);
#632=VECTOR('',#1783,1.);
#633=VECTOR('',#1786,1.);
#634=VECTOR('',#1787,1.);
#635=VECTOR('',#1790,1.);
#636=VECTOR('',#1791,1.);
#637=VECTOR('',#1794,1.);
#638=VECTOR('',#1805,1.);
#639=VECTOR('',#1806,1.);
#640=VECTOR('',#1807,1.);
#641=VECTOR('',#1810,1.);
#642=VECTOR('',#1815,1.);
#643=VECTOR('',#1816,1.);
#644=VECTOR('',#1819,1.);
#645=VECTOR('',#1820,1.);
#646=VECTOR('',#1821,1.);
#647=VECTOR('',#1822,1.);
#648=VECTOR('',#1829,1.);
#649=VECTOR('',#1830,1.);
#650=VECTOR('',#1831,1.);
#651=VECTOR('',#1832,1.);
#652=VECTOR('',#1843,1.);
#653=VECTOR('',#1844,1.);
#654=VECTOR('',#1845,1.);
#655=VECTOR('',#1850,1.);
#656=VECTOR('',#1853,1.);
#657=VECTOR('',#1854,1.);
#658=VECTOR('',#1857,1.);
#659=VECTOR('',#1862,1.);
#660=VECTOR('',#1879,1.);
#661=VECTOR('',#1882,1.);
#662=VECTOR('',#1885,1.);
#663=VECTOR('',#1888,1.);
#664=VECTOR('',#1893,1.);
#665=VECTOR('',#1896,1.);
#666=VECTOR('',#1899,1.);
#667=VECTOR('',#1902,1.);
#668=VECTOR('',#1907,1.);
#669=VECTOR('',#1908,1.);
#670=VECTOR('',#1913,1.);
#671=VECTOR('',#1916,1.);
#672=VECTOR('',#1921,1.);
#673=VECTOR('',#1922,1.);
#674=VECTOR('',#1925,1.);
#675=VECTOR('',#1930,1.);
#676=VECTOR('',#1937,1.);
#677=VECTOR('',#1938,1.);
#678=VECTOR('',#1941,1.);
#679=VECTOR('',#1944,1.);
#680=VECTOR('',#1947,1.);
#681=VECTOR('',#1954,1.);
#682=VECTOR('',#1955,1.);
#683=VECTOR('',#1958,1.);
#684=VECTOR('',#1961,1.);
#685=VECTOR('',#1964,1.);
#686=VECTOR('',#1993,1.);
#687=VECTOR('',#1994,1.);
#688=VECTOR('',#1997,1.);
#689=VECTOR('',#2000,1.);
#690=VECTOR('',#2001,1.);
#691=VECTOR('',#2008,1.);
#692=VECTOR('',#2011,1.);
#693=VECTOR('',#2014,1.);
#694=VECTOR('',#2017,1.);
#695=VECTOR('',#2020,1.);
#696=VECTOR('',#2023,1.);
#697=VECTOR('',#2026,1.);
#698=ORIENTED_EDGE('',*,*,#1234,.T.);
#699=ORIENTED_EDGE('',*,*,#1235,.T.);
#700=ORIENTED_EDGE('',*,*,#1236,.T.);
#701=ORIENTED_EDGE('',*,*,#1237,.T.);
#702=ORIENTED_EDGE('',*,*,#1238,.T.);
#703=ORIENTED_EDGE('',*,*,#1239,.T.);
#704=ORIENTED_EDGE('',*,*,#1240,.T.);
#705=ORIENTED_EDGE('',*,*,#1241,.T.);
#706=ORIENTED_EDGE('',*,*,#1242,.T.);
#707=ORIENTED_EDGE('',*,*,#1243,.F.);
#708=ORIENTED_EDGE('',*,*,#1244,.F.);
#709=ORIENTED_EDGE('',*,*,#1245,.T.);
#710=ORIENTED_EDGE('',*,*,#1246,.T.);
#711=ORIENTED_EDGE('',*,*,#1247,.F.);
#712=ORIENTED_EDGE('',*,*,#1248,.F.);
#713=ORIENTED_EDGE('',*,*,#1249,.T.);
#714=ORIENTED_EDGE('',*,*,#1250,.F.);
#715=ORIENTED_EDGE('',*,*,#1251,.T.);
#716=ORIENTED_EDGE('',*,*,#1252,.F.);
#717=ORIENTED_EDGE('',*,*,#1253,.T.);
#718=ORIENTED_EDGE('',*,*,#1254,.F.);
#719=ORIENTED_EDGE('',*,*,#1255,.F.);
#720=ORIENTED_EDGE('',*,*,#1256,.T.);
#721=ORIENTED_EDGE('',*,*,#1257,.T.);
#722=ORIENTED_EDGE('',*,*,#1258,.T.);
#723=ORIENTED_EDGE('',*,*,#1259,.F.);
#724=ORIENTED_EDGE('',*,*,#1260,.F.);
#725=ORIENTED_EDGE('',*,*,#1261,.F.);
#726=ORIENTED_EDGE('',*,*,#1262,.F.);
#727=ORIENTED_EDGE('',*,*,#1263,.T.);
#728=ORIENTED_EDGE('',*,*,#1264,.T.);
#729=ORIENTED_EDGE('',*,*,#1265,.T.);
#730=ORIENTED_EDGE('',*,*,#1266,.F.);
#731=ORIENTED_EDGE('',*,*,#1267,.F.);
#732=ORIENTED_EDGE('',*,*,#1268,.F.);
#733=ORIENTED_EDGE('',*,*,#1269,.F.);
#734=ORIENTED_EDGE('',*,*,#1270,.F.);
#735=ORIENTED_EDGE('',*,*,#1271,.F.);
#736=ORIENTED_EDGE('',*,*,#1272,.F.);
#737=ORIENTED_EDGE('',*,*,#1273,.F.);
#738=ORIENTED_EDGE('',*,*,#1274,.F.);
#739=ORIENTED_EDGE('',*,*,#1275,.T.);
#740=ORIENTED_EDGE('',*,*,#1276,.F.);
#741=ORIENTED_EDGE('',*,*,#1277,.F.);
#742=ORIENTED_EDGE('',*,*,#1278,.F.);
#743=ORIENTED_EDGE('',*,*,#1257,.F.);
#744=ORIENTED_EDGE('',*,*,#1279,.F.);
#745=ORIENTED_EDGE('',*,*,#1251,.F.);
#746=ORIENTED_EDGE('',*,*,#1280,.T.);
#747=ORIENTED_EDGE('',*,*,#1281,.T.);
#748=ORIENTED_EDGE('',*,*,#1282,.F.);
#749=ORIENTED_EDGE('',*,*,#1283,.F.);
#750=ORIENTED_EDGE('',*,*,#1284,.F.);
#751=ORIENTED_EDGE('',*,*,#1285,.F.);
#752=ORIENTED_EDGE('',*,*,#1286,.F.);
#753=ORIENTED_EDGE('',*,*,#1287,.T.);
#754=ORIENTED_EDGE('',*,*,#1288,.F.);
#755=ORIENTED_EDGE('',*,*,#1289,.T.);
#756=ORIENTED_EDGE('',*,*,#1290,.F.);
#757=ORIENTED_EDGE('',*,*,#1291,.F.);
#758=ORIENTED_EDGE('',*,*,#1292,.F.);
#759=ORIENTED_EDGE('',*,*,#1245,.F.);
#760=ORIENTED_EDGE('',*,*,#1293,.F.);
#761=ORIENTED_EDGE('',*,*,#1263,.F.);
#762=ORIENTED_EDGE('',*,*,#1294,.T.);
#763=ORIENTED_EDGE('',*,*,#1295,.F.);
#764=ORIENTED_EDGE('',*,*,#1296,.F.);
#765=ORIENTED_EDGE('',*,*,#1297,.F.);
#766=ORIENTED_EDGE('',*,*,#1298,.F.);
#767=ORIENTED_EDGE('',*,*,#1299,.T.);
#768=ORIENTED_EDGE('',*,*,#1300,.F.);
#769=ORIENTED_EDGE('',*,*,#1301,.F.);
#770=ORIENTED_EDGE('',*,*,#1302,.F.);
#771=ORIENTED_EDGE('',*,*,#1303,.T.);
#772=ORIENTED_EDGE('',*,*,#1304,.F.);
#773=ORIENTED_EDGE('',*,*,#1305,.T.);
#774=ORIENTED_EDGE('',*,*,#1306,.F.);
#775=ORIENTED_EDGE('',*,*,#1307,.T.);
#776=ORIENTED_EDGE('',*,*,#1288,.T.);
#777=ORIENTED_EDGE('',*,*,#1262,.T.);
#778=ORIENTED_EDGE('',*,*,#1308,.F.);
#779=ORIENTED_EDGE('',*,*,#1309,.T.);
#780=ORIENTED_EDGE('',*,*,#1310,.F.);
#781=ORIENTED_EDGE('',*,*,#1311,.F.);
#782=ORIENTED_EDGE('',*,*,#1312,.F.);
#783=ORIENTED_EDGE('',*,*,#1313,.T.);
#784=ORIENTED_EDGE('',*,*,#1314,.F.);
#785=ORIENTED_EDGE('',*,*,#1315,.F.);
#786=ORIENTED_EDGE('',*,*,#1316,.T.);
#787=ORIENTED_EDGE('',*,*,#1317,.T.);
#788=ORIENTED_EDGE('',*,*,#1274,.T.);
#789=ORIENTED_EDGE('',*,*,#1250,.T.);
#790=ORIENTED_EDGE('',*,*,#1318,.T.);
#791=ORIENTED_EDGE('',*,*,#1319,.T.);
#792=ORIENTED_EDGE('',*,*,#1320,.F.);
#793=ORIENTED_EDGE('',*,*,#1321,.F.);
#794=ORIENTED_EDGE('',*,*,#1322,.F.);
#795=ORIENTED_EDGE('',*,*,#1323,.T.);
#796=ORIENTED_EDGE('',*,*,#1324,.F.);
#797=ORIENTED_EDGE('',*,*,#1325,.F.);
#798=ORIENTED_EDGE('',*,*,#1259,.T.);
#799=ORIENTED_EDGE('',*,*,#1326,.T.);
#800=ORIENTED_EDGE('',*,*,#1327,.T.);
#801=ORIENTED_EDGE('',*,*,#1328,.T.);
#802=ORIENTED_EDGE('',*,*,#1329,.T.);
#803=ORIENTED_EDGE('',*,*,#1330,.T.);
#804=ORIENTED_EDGE('',*,*,#1331,.T.);
#805=ORIENTED_EDGE('',*,*,#1324,.T.);
#806=ORIENTED_EDGE('',*,*,#1332,.F.);
#807=ORIENTED_EDGE('',*,*,#1333,.F.);
#808=ORIENTED_EDGE('',*,*,#1334,.F.);
#809=ORIENTED_EDGE('',*,*,#1320,.T.);
#810=ORIENTED_EDGE('',*,*,#1335,.T.);
#811=ORIENTED_EDGE('',*,*,#1336,.T.);
#812=ORIENTED_EDGE('',*,*,#1337,.T.);
#813=ORIENTED_EDGE('',*,*,#1247,.T.);
#814=ORIENTED_EDGE('',*,*,#1338,.T.);
#815=ORIENTED_EDGE('',*,*,#1339,.T.);
#816=ORIENTED_EDGE('',*,*,#1340,.T.);
#817=ORIENTED_EDGE('',*,*,#1341,.F.);
#818=ORIENTED_EDGE('',*,*,#1342,.F.);
#819=ORIENTED_EDGE('',*,*,#1343,.F.);
#820=ORIENTED_EDGE('',*,*,#1314,.T.);
#821=ORIENTED_EDGE('',*,*,#1344,.F.);
#822=ORIENTED_EDGE('',*,*,#1345,.F.);
#823=ORIENTED_EDGE('',*,*,#1346,.F.);
#824=ORIENTED_EDGE('',*,*,#1310,.T.);
#825=ORIENTED_EDGE('',*,*,#1347,.F.);
#826=ORIENTED_EDGE('',*,*,#1348,.F.);
#827=ORIENTED_EDGE('',*,*,#1349,.F.);
#828=ORIENTED_EDGE('',*,*,#1350,.F.);
#829=ORIENTED_EDGE('',*,*,#1351,.T.);
#830=ORIENTED_EDGE('',*,*,#1352,.F.);
#831=ORIENTED_EDGE('',*,*,#1353,.T.);
#832=ORIENTED_EDGE('',*,*,#1354,.T.);
#833=ORIENTED_EDGE('',*,*,#1355,.F.);
#834=ORIENTED_EDGE('',*,*,#1356,.F.);
#835=ORIENTED_EDGE('',*,*,#1295,.T.);
#836=ORIENTED_EDGE('',*,*,#1357,.T.);
#837=ORIENTED_EDGE('',*,*,#1358,.F.);
#838=ORIENTED_EDGE('',*,*,#1354,.F.);
#839=ORIENTED_EDGE('',*,*,#1298,.T.);
#840=ORIENTED_EDGE('',*,*,#1359,.T.);
#841=ORIENTED_EDGE('',*,*,#1360,.F.);
#842=ORIENTED_EDGE('',*,*,#1357,.F.);
#843=ORIENTED_EDGE('',*,*,#1297,.T.);
#844=ORIENTED_EDGE('',*,*,#1276,.T.);
#845=ORIENTED_EDGE('',*,*,#1361,.T.);
#846=ORIENTED_EDGE('',*,*,#1362,.T.);
#847=ORIENTED_EDGE('',*,*,#1363,.T.);
#848=ORIENTED_EDGE('',*,*,#1328,.F.);
#849=ORIENTED_EDGE('',*,*,#1364,.F.);
#850=ORIENTED_EDGE('',*,*,#1356,.T.);
#851=ORIENTED_EDGE('',*,*,#1365,.F.);
#852=ORIENTED_EDGE('',*,*,#1359,.F.);
#853=ORIENTED_EDGE('',*,*,#1296,.T.);
#854=ORIENTED_EDGE('',*,*,#1290,.T.);
#855=ORIENTED_EDGE('',*,*,#1366,.T.);
#856=ORIENTED_EDGE('',*,*,#1367,.F.);
#857=ORIENTED_EDGE('',*,*,#1368,.T.);
#858=ORIENTED_EDGE('',*,*,#1340,.F.);
#859=ORIENTED_EDGE('',*,*,#1369,.F.);
#860=ORIENTED_EDGE('',*,*,#1300,.T.);
#861=ORIENTED_EDGE('',*,*,#1370,.F.);
#862=ORIENTED_EDGE('',*,*,#1280,.F.);
#863=ORIENTED_EDGE('',*,*,#1371,.T.);
#864=ORIENTED_EDGE('',*,*,#1372,.T.);
#865=ORIENTED_EDGE('',*,*,#1373,.F.);
#866=ORIENTED_EDGE('',*,*,#1283,.T.);
#867=ORIENTED_EDGE('',*,*,#1374,.T.);
#868=ORIENTED_EDGE('',*,*,#1375,.T.);
#869=ORIENTED_EDGE('',*,*,#1374,.F.);
#870=ORIENTED_EDGE('',*,*,#1286,.T.);
#871=ORIENTED_EDGE('',*,*,#1376,.T.);
#872=ORIENTED_EDGE('',*,*,#1377,.T.);
#873=ORIENTED_EDGE('',*,*,#1376,.F.);
#874=ORIENTED_EDGE('',*,*,#1285,.T.);
#875=ORIENTED_EDGE('',*,*,#1378,.T.);
#876=ORIENTED_EDGE('',*,*,#1326,.F.);
#877=ORIENTED_EDGE('',*,*,#1258,.F.);
#878=ORIENTED_EDGE('',*,*,#1278,.T.);
#879=ORIENTED_EDGE('',*,*,#1379,.T.);
#880=ORIENTED_EDGE('',*,*,#1327,.F.);
#881=ORIENTED_EDGE('',*,*,#1379,.F.);
#882=ORIENTED_EDGE('',*,*,#1277,.T.);
#883=ORIENTED_EDGE('',*,*,#1364,.T.);
#884=ORIENTED_EDGE('',*,*,#1338,.F.);
#885=ORIENTED_EDGE('',*,*,#1246,.F.);
#886=ORIENTED_EDGE('',*,*,#1292,.T.);
#887=ORIENTED_EDGE('',*,*,#1380,.T.);
#888=ORIENTED_EDGE('',*,*,#1339,.F.);
#889=ORIENTED_EDGE('',*,*,#1380,.F.);
#890=ORIENTED_EDGE('',*,*,#1291,.T.);
#891=ORIENTED_EDGE('',*,*,#1369,.T.);
#892=ORIENTED_EDGE('',*,*,#1281,.F.);
#893=ORIENTED_EDGE('',*,*,#1352,.T.);
#894=ORIENTED_EDGE('',*,*,#1282,.T.);
#895=ORIENTED_EDGE('',*,*,#1353,.F.);
#896=ORIENTED_EDGE('',*,*,#1301,.T.);
#897=ORIENTED_EDGE('',*,*,#1351,.F.);
#898=ORIENTED_EDGE('',*,*,#1299,.F.);
#899=ORIENTED_EDGE('',*,*,#1350,.T.);
#900=ORIENTED_EDGE('',*,*,#1381,.T.);
#901=ORIENTED_EDGE('',*,*,#1378,.F.);
#902=ORIENTED_EDGE('',*,*,#1284,.T.);
#903=ORIENTED_EDGE('',*,*,#1373,.T.);
#904=ORIENTED_EDGE('',*,*,#1322,.T.);
#905=ORIENTED_EDGE('',*,*,#1382,.F.);
#906=ORIENTED_EDGE('',*,*,#1383,.F.);
#907=ORIENTED_EDGE('',*,*,#1384,.F.);
#908=ORIENTED_EDGE('',*,*,#1371,.F.);
#909=ORIENTED_EDGE('',*,*,#1334,.T.);
#910=ORIENTED_EDGE('',*,*,#1385,.T.);
#911=ORIENTED_EDGE('',*,*,#1382,.T.);
#912=ORIENTED_EDGE('',*,*,#1321,.T.);
#913=ORIENTED_EDGE('',*,*,#1333,.T.);
#914=ORIENTED_EDGE('',*,*,#1386,.T.);
#915=ORIENTED_EDGE('',*,*,#1383,.T.);
#916=ORIENTED_EDGE('',*,*,#1385,.F.);
#917=ORIENTED_EDGE('',*,*,#1332,.T.);
#918=ORIENTED_EDGE('',*,*,#1323,.F.);
#919=ORIENTED_EDGE('',*,*,#1384,.T.);
#920=ORIENTED_EDGE('',*,*,#1386,.F.);
#921=ORIENTED_EDGE('',*,*,#1345,.T.);
#922=ORIENTED_EDGE('',*,*,#1387,.T.);
#923=ORIENTED_EDGE('',*,*,#1388,.T.);
#924=ORIENTED_EDGE('',*,*,#1389,.F.);
#925=ORIENTED_EDGE('',*,*,#1344,.T.);
#926=ORIENTED_EDGE('',*,*,#1313,.F.);
#927=ORIENTED_EDGE('',*,*,#1390,.T.);
#928=ORIENTED_EDGE('',*,*,#1387,.F.);
#929=ORIENTED_EDGE('',*,*,#1346,.T.);
#930=ORIENTED_EDGE('',*,*,#1389,.T.);
#931=ORIENTED_EDGE('',*,*,#1391,.T.);
#932=ORIENTED_EDGE('',*,*,#1311,.T.);
#933=ORIENTED_EDGE('',*,*,#1370,.T.);
#934=ORIENTED_EDGE('',*,*,#1388,.F.);
#935=ORIENTED_EDGE('',*,*,#1390,.F.);
#936=ORIENTED_EDGE('',*,*,#1312,.T.);
#937=ORIENTED_EDGE('',*,*,#1391,.F.);
#938=ORIENTED_EDGE('',*,*,#1335,.F.);
#939=ORIENTED_EDGE('',*,*,#1319,.F.);
#940=ORIENTED_EDGE('',*,*,#1392,.F.);
#941=ORIENTED_EDGE('',*,*,#1393,.F.);
#942=ORIENTED_EDGE('',*,*,#1336,.F.);
#943=ORIENTED_EDGE('',*,*,#1393,.T.);
#944=ORIENTED_EDGE('',*,*,#1394,.F.);
#945=ORIENTED_EDGE('',*,*,#1395,.F.);
#946=ORIENTED_EDGE('',*,*,#1337,.F.);
#947=ORIENTED_EDGE('',*,*,#1395,.T.);
#948=ORIENTED_EDGE('',*,*,#1396,.F.);
#949=ORIENTED_EDGE('',*,*,#1248,.T.);
#950=ORIENTED_EDGE('',*,*,#1372,.F.);
#951=ORIENTED_EDGE('',*,*,#1375,.F.);
#952=ORIENTED_EDGE('',*,*,#1377,.F.);
#953=ORIENTED_EDGE('',*,*,#1381,.F.);
#954=ORIENTED_EDGE('',*,*,#1318,.F.);
#955=ORIENTED_EDGE('',*,*,#1249,.F.);
#956=ORIENTED_EDGE('',*,*,#1396,.T.);
#957=ORIENTED_EDGE('',*,*,#1394,.T.);
#958=ORIENTED_EDGE('',*,*,#1392,.T.);
#959=ORIENTED_EDGE('',*,*,#1349,.T.);
#960=ORIENTED_EDGE('',*,*,#1397,.T.);
#961=ORIENTED_EDGE('',*,*,#1398,.T.);
#962=ORIENTED_EDGE('',*,*,#1260,.T.);
#963=ORIENTED_EDGE('',*,*,#1348,.T.);
#964=ORIENTED_EDGE('',*,*,#1399,.T.);
#965=ORIENTED_EDGE('',*,*,#1400,.T.);
#966=ORIENTED_EDGE('',*,*,#1397,.F.);
#967=ORIENTED_EDGE('',*,*,#1347,.T.);
#968=ORIENTED_EDGE('',*,*,#1309,.F.);
#969=ORIENTED_EDGE('',*,*,#1401,.T.);
#970=ORIENTED_EDGE('',*,*,#1399,.F.);
#971=ORIENTED_EDGE('',*,*,#1358,.T.);
#972=ORIENTED_EDGE('',*,*,#1360,.T.);
#973=ORIENTED_EDGE('',*,*,#1365,.T.);
#974=ORIENTED_EDGE('',*,*,#1355,.T.);
#975=ORIENTED_EDGE('',*,*,#1261,.T.);
#976=ORIENTED_EDGE('',*,*,#1398,.F.);
#977=ORIENTED_EDGE('',*,*,#1400,.F.);
#978=ORIENTED_EDGE('',*,*,#1401,.F.);
#979=ORIENTED_EDGE('',*,*,#1308,.T.);
#980=ORIENTED_EDGE('',*,*,#1402,.F.);
#981=ORIENTED_EDGE('',*,*,#1362,.F.);
#982=ORIENTED_EDGE('',*,*,#1403,.T.);
#983=ORIENTED_EDGE('',*,*,#1316,.F.);
#984=ORIENTED_EDGE('',*,*,#1404,.T.);
#985=ORIENTED_EDGE('',*,*,#1405,.T.);
#986=ORIENTED_EDGE('',*,*,#1406,.T.);
#987=ORIENTED_EDGE('',*,*,#1329,.F.);
#988=ORIENTED_EDGE('',*,*,#1363,.F.);
#989=ORIENTED_EDGE('',*,*,#1406,.F.);
#990=ORIENTED_EDGE('',*,*,#1407,.F.);
#991=ORIENTED_EDGE('',*,*,#1330,.F.);
#992=ORIENTED_EDGE('',*,*,#1407,.T.);
#993=ORIENTED_EDGE('',*,*,#1405,.F.);
#994=ORIENTED_EDGE('',*,*,#1408,.F.);
#995=ORIENTED_EDGE('',*,*,#1331,.F.);
#996=ORIENTED_EDGE('',*,*,#1408,.T.);
#997=ORIENTED_EDGE('',*,*,#1404,.F.);
#998=ORIENTED_EDGE('',*,*,#1325,.T.);
#999=ORIENTED_EDGE('',*,*,#1409,.T.);
#1000=ORIENTED_EDGE('',*,*,#1367,.T.);
#1001=ORIENTED_EDGE('',*,*,#1410,.T.);
#1002=ORIENTED_EDGE('',*,*,#1306,.T.);
#1003=ORIENTED_EDGE('',*,*,#1411,.F.);
#1004=ORIENTED_EDGE('',*,*,#1412,.F.);
#1005=ORIENTED_EDGE('',*,*,#1413,.F.);
#1006=ORIENTED_EDGE('',*,*,#1341,.T.);
#1007=ORIENTED_EDGE('',*,*,#1368,.F.);
#1008=ORIENTED_EDGE('',*,*,#1413,.T.);
#1009=ORIENTED_EDGE('',*,*,#1414,.F.);
#1010=ORIENTED_EDGE('',*,*,#1343,.T.);
#1011=ORIENTED_EDGE('',*,*,#1415,.T.);
#1012=ORIENTED_EDGE('',*,*,#1411,.T.);
#1013=ORIENTED_EDGE('',*,*,#1315,.T.);
#1014=ORIENTED_EDGE('',*,*,#1342,.T.);
#1015=ORIENTED_EDGE('',*,*,#1414,.T.);
#1016=ORIENTED_EDGE('',*,*,#1412,.T.);
#1017=ORIENTED_EDGE('',*,*,#1415,.F.);
#1018=ORIENTED_EDGE('',*,*,#1287,.F.);
#1019=ORIENTED_EDGE('',*,*,#1416,.T.);
#1020=ORIENTED_EDGE('',*,*,#1416,.F.);
#1021=ORIENTED_EDGE('',*,*,#1302,.T.);
#1022=ORIENTED_EDGE('',*,*,#1294,.F.);
#1023=ORIENTED_EDGE('',*,*,#1417,.T.);
#1024=ORIENTED_EDGE('',*,*,#1417,.F.);
#1025=ORIENTED_EDGE('',*,*,#1304,.T.);
#1026=ORIENTED_EDGE('',*,*,#1418,.F.);
#1027=ORIENTED_EDGE('',*,*,#1305,.F.);
#1028=ORIENTED_EDGE('',*,*,#1409,.F.);
#1029=ORIENTED_EDGE('',*,*,#1418,.T.);
#1030=ORIENTED_EDGE('',*,*,#1419,.T.);
#1031=ORIENTED_EDGE('',*,*,#1402,.T.);
#1032=ORIENTED_EDGE('',*,*,#1419,.F.);
#1033=ORIENTED_EDGE('',*,*,#1303,.F.);
#1034=ORIENTED_EDGE('',*,*,#1241,.F.);
#1035=ORIENTED_EDGE('',*,*,#1420,.F.);
#1036=ORIENTED_EDGE('',*,*,#1267,.T.);
#1037=ORIENTED_EDGE('',*,*,#1421,.T.);
#1038=ORIENTED_EDGE('',*,*,#1420,.T.);
#1039=ORIENTED_EDGE('',*,*,#1240,.F.);
#1040=ORIENTED_EDGE('',*,*,#1422,.F.);
#1041=ORIENTED_EDGE('',*,*,#1268,.T.);
#1042=ORIENTED_EDGE('',*,*,#1243,.T.);
#1043=ORIENTED_EDGE('',*,*,#1423,.F.);
#1044=ORIENTED_EDGE('',*,*,#1265,.F.);
#1045=ORIENTED_EDGE('',*,*,#1424,.T.);
#1046=ORIENTED_EDGE('',*,*,#1423,.T.);
#1047=ORIENTED_EDGE('',*,*,#1242,.F.);
#1048=ORIENTED_EDGE('',*,*,#1421,.F.);
#1049=ORIENTED_EDGE('',*,*,#1266,.T.);
#1050=ORIENTED_EDGE('',*,*,#1264,.F.);
#1051=ORIENTED_EDGE('',*,*,#1293,.T.);
#1052=ORIENTED_EDGE('',*,*,#1244,.T.);
#1053=ORIENTED_EDGE('',*,*,#1424,.F.);
#1054=ORIENTED_EDGE('',*,*,#1239,.F.);
#1055=ORIENTED_EDGE('',*,*,#1425,.F.);
#1056=ORIENTED_EDGE('',*,*,#1269,.T.);
#1057=ORIENTED_EDGE('',*,*,#1422,.T.);
#1058=ORIENTED_EDGE('',*,*,#1425,.T.);
#1059=ORIENTED_EDGE('',*,*,#1238,.F.);
#1060=ORIENTED_EDGE('',*,*,#1426,.F.);
#1061=ORIENTED_EDGE('',*,*,#1270,.T.);
#1062=ORIENTED_EDGE('',*,*,#1237,.F.);
#1063=ORIENTED_EDGE('',*,*,#1427,.F.);
#1064=ORIENTED_EDGE('',*,*,#1271,.T.);
#1065=ORIENTED_EDGE('',*,*,#1426,.T.);
#1066=ORIENTED_EDGE('',*,*,#1427,.T.);
#1067=ORIENTED_EDGE('',*,*,#1236,.F.);
#1068=ORIENTED_EDGE('',*,*,#1428,.F.);
#1069=ORIENTED_EDGE('',*,*,#1272,.T.);
#1070=ORIENTED_EDGE('',*,*,#1235,.F.);
#1071=ORIENTED_EDGE('',*,*,#1429,.F.);
#1072=ORIENTED_EDGE('',*,*,#1273,.T.);
#1073=ORIENTED_EDGE('',*,*,#1428,.T.);
#1074=ORIENTED_EDGE('',*,*,#1429,.T.);
#1075=ORIENTED_EDGE('',*,*,#1234,.F.);
#1076=ORIENTED_EDGE('',*,*,#1430,.F.);
#1077=ORIENTED_EDGE('',*,*,#1254,.T.);
#1078=ORIENTED_EDGE('',*,*,#1252,.T.);
#1079=ORIENTED_EDGE('',*,*,#1279,.T.);
#1080=ORIENTED_EDGE('',*,*,#1256,.F.);
#1081=ORIENTED_EDGE('',*,*,#1431,.T.);
#1082=ORIENTED_EDGE('',*,*,#1253,.F.);
#1083=ORIENTED_EDGE('',*,*,#1431,.F.);
#1084=ORIENTED_EDGE('',*,*,#1255,.T.);
#1085=ORIENTED_EDGE('',*,*,#1430,.T.);
#1086=ORIENTED_EDGE('',*,*,#1275,.F.);
#1087=ORIENTED_EDGE('',*,*,#1317,.F.);
#1088=ORIENTED_EDGE('',*,*,#1403,.F.);
#1089=ORIENTED_EDGE('',*,*,#1361,.F.);
#1090=ORIENTED_EDGE('',*,*,#1289,.F.);
#1091=ORIENTED_EDGE('',*,*,#1307,.F.);
#1092=ORIENTED_EDGE('',*,*,#1410,.F.);
#1093=ORIENTED_EDGE('',*,*,#1366,.F.);
#1094=VERTEX_POINT('',#2037);
#1095=VERTEX_POINT('',#2038);
#1096=VERTEX_POINT('',#2040);
#1097=VERTEX_POINT('',#2042);
#1098=VERTEX_POINT('',#2044);
#1099=VERTEX_POINT('',#2046);
#1100=VERTEX_POINT('',#2048);
#1101=VERTEX_POINT('',#2050);
#1102=VERTEX_POINT('',#2052);
#1103=VERTEX_POINT('',#2054);
#1104=VERTEX_POINT('',#2056);
#1105=VERTEX_POINT('',#2058);
#1106=VERTEX_POINT('',#2060);
#1107=VERTEX_POINT('',#2062);
#1108=VERTEX_POINT('',#2064);
#1109=VERTEX_POINT('',#2066);
#1110=VERTEX_POINT('',#2068);
#1111=VERTEX_POINT('',#2070);
#1112=VERTEX_POINT('',#2072);
#1113=VERTEX_POINT('',#2074);
#1114=VERTEX_POINT('',#2078);
#1115=VERTEX_POINT('',#2079);
#1116=VERTEX_POINT('',#2081);
#1117=VERTEX_POINT('',#2083);
#1118=VERTEX_POINT('',#2085);
#1119=VERTEX_POINT('',#2087);
#1120=VERTEX_POINT('',#2089);
#1121=VERTEX_POINT('',#2091);
#1122=VERTEX_POINT('',#2093);
#1123=VERTEX_POINT('',#2095);
#1124=VERTEX_POINT('',#2097);
#1125=VERTEX_POINT('',#2099);
#1126=VERTEX_POINT('',#2101);
#1127=VERTEX_POINT('',#2103);
#1128=VERTEX_POINT('',#2105);
#1129=VERTEX_POINT('',#2107);
#1130=VERTEX_POINT('',#2109);
#1131=VERTEX_POINT('',#2111);
#1132=VERTEX_POINT('',#2113);
#1133=VERTEX_POINT('',#2115);
#1134=VERTEX_POINT('',#2119);
#1135=VERTEX_POINT('',#2121);
#1136=VERTEX_POINT('',#2123);
#1137=VERTEX_POINT('',#2125);
#1138=VERTEX_POINT('',#2129);
#1139=VERTEX_POINT('',#2131);
#1140=VERTEX_POINT('',#2133);
#1141=VERTEX_POINT('',#2135);
#1142=VERTEX_POINT('',#2136);
#1143=VERTEX_POINT('',#2138);
#1144=VERTEX_POINT('',#2140);
#1145=VERTEX_POINT('',#2143);
#1146=VERTEX_POINT('',#2146);
#1147=VERTEX_POINT('',#2148);
#1148=VERTEX_POINT('',#2150);
#1149=VERTEX_POINT('',#2152);
#1150=VERTEX_POINT('',#2156);
#1151=VERTEX_POINT('',#2158);
#1152=VERTEX_POINT('',#2159);
#1153=VERTEX_POINT('',#2161);
#1154=VERTEX_POINT('',#2163);
#1155=VERTEX_POINT('',#2166);
#1156=VERTEX_POINT('',#2168);
#1157=VERTEX_POINT('',#2170);
#1158=VERTEX_POINT('',#2173);
#1159=VERTEX_POINT('',#2175);
#1160=VERTEX_POINT('',#2178);
#1161=VERTEX_POINT('',#2180);
#1162=VERTEX_POINT('',#2183);
#1163=VERTEX_POINT('',#2184);
#1164=VERTEX_POINT('',#2187);
#1165=VERTEX_POINT('',#2189);
#1166=VERTEX_POINT('',#2191);
#1167=VERTEX_POINT('',#2193);
#1168=VERTEX_POINT('',#2195);
#1169=VERTEX_POINT('',#2197);
#1170=VERTEX_POINT('',#2199);
#1171=VERTEX_POINT('',#2203);
#1172=VERTEX_POINT('',#2204);
#1173=VERTEX_POINT('',#2207);
#1174=VERTEX_POINT('',#2209);
#1175=VERTEX_POINT('',#2211);
#1176=VERTEX_POINT('',#2213);
#1177=VERTEX_POINT('',#2215);
#1178=VERTEX_POINT('',#2217);
#1179=VERTEX_POINT('',#2219);
#1180=VERTEX_POINT('',#2223);
#1181=VERTEX_POINT('',#2225);
#1182=VERTEX_POINT('',#2227);
#1183=VERTEX_POINT('',#2229);
#1184=VERTEX_POINT('',#2231);
#1185=VERTEX_POINT('',#2234);
#1186=VERTEX_POINT('',#2236);
#1187=VERTEX_POINT('',#2239);
#1188=VERTEX_POINT('',#2241);
#1189=VERTEX_POINT('',#2244);
#1190=VERTEX_POINT('',#2246);
#1191=VERTEX_POINT('',#2248);
#1192=VERTEX_POINT('',#2250);
#1193=VERTEX_POINT('',#2252);
#1194=VERTEX_POINT('',#2255);
#1195=VERTEX_POINT('',#2257);
#1196=VERTEX_POINT('',#2260);
#1197=VERTEX_POINT('',#2262);
#1198=VERTEX_POINT('',#2265);
#1199=VERTEX_POINT('',#2267);
#1200=VERTEX_POINT('',#2269);
#1201=VERTEX_POINT('',#2271);
#1202=VERTEX_POINT('',#2274);
#1203=VERTEX_POINT('',#2276);
#1204=VERTEX_POINT('',#2280);
#1205=VERTEX_POINT('',#2284);
#1206=VERTEX_POINT('',#2288);
#1207=VERTEX_POINT('',#2290);
#1208=VERTEX_POINT('',#2297);
#1209=VERTEX_POINT('',#2299);
#1210=VERTEX_POINT('',#2304);
#1211=VERTEX_POINT('',#2307);
#1212=VERTEX_POINT('',#2310);
#1213=VERTEX_POINT('',#2311);
#1214=VERTEX_POINT('',#2316);
#1215=VERTEX_POINT('',#2320);
#1216=VERTEX_POINT('',#2336);
#1217=VERTEX_POINT('',#2338);
#1218=VERTEX_POINT('',#2347);
#1219=VERTEX_POINT('',#2349);
#1220=VERTEX_POINT('',#2358);
#1221=VERTEX_POINT('',#2362);
#1222=VERTEX_POINT('',#2369);
#1223=VERTEX_POINT('',#2373);
#1224=VERTEX_POINT('',#2380);
#1225=VERTEX_POINT('',#2383);
#1226=VERTEX_POINT('',#2385);
#1227=VERTEX_POINT('',#2394);
#1228=VERTEX_POINT('',#2397);
#1229=VERTEX_POINT('',#2399);
#1230=VERTEX_POINT('',#2408);
#1231=VERTEX_POINT('',#2412);
#1232=VERTEX_POINT('',#2416);
#1233=VERTEX_POINT('',#2420);
#1234=EDGE_CURVE('',#1094,#1095,#1432,.T.);
#1235=EDGE_CURVE('',#1095,#1096,#418,.T.);
#1236=EDGE_CURVE('',#1096,#1097,#1433,.T.);
#1237=EDGE_CURVE('',#1097,#1098,#419,.T.);
#1238=EDGE_CURVE('',#1098,#1099,#1434,.T.);
#1239=EDGE_CURVE('',#1099,#1100,#420,.T.);
#1240=EDGE_CURVE('',#1100,#1101,#1435,.T.);
#1241=EDGE_CURVE('',#1101,#1102,#421,.T.);
#1242=EDGE_CURVE('',#1102,#1103,#1436,.T.);
#1243=EDGE_CURVE('',#1104,#1103,#422,.T.);
#1244=EDGE_CURVE('',#1105,#1104,#423,.T.);
#1245=EDGE_CURVE('',#1105,#1106,#424,.T.);
#1246=EDGE_CURVE('',#1106,#1107,#425,.T.);
#1247=EDGE_CURVE('',#1108,#1107,#426,.T.);
#1248=EDGE_CURVE('',#1109,#1108,#427,.T.);
#1249=EDGE_CURVE('',#1109,#1110,#428,.T.);
#1250=EDGE_CURVE('',#1111,#1110,#429,.T.);
#1251=EDGE_CURVE('',#1111,#1112,#430,.T.);
#1252=EDGE_CURVE('',#1113,#1112,#431,.T.);
#1253=EDGE_CURVE('',#1113,#1094,#432,.T.);
#1254=EDGE_CURVE('',#1114,#1115,#1437,.T.);
#1255=EDGE_CURVE('',#1116,#1114,#433,.T.);
#1256=EDGE_CURVE('',#1116,#1117,#434,.T.);
#1257=EDGE_CURVE('',#1117,#1118,#435,.T.);
#1258=EDGE_CURVE('',#1118,#1119,#436,.T.);
#1259=EDGE_CURVE('',#1120,#1119,#437,.T.);
#1260=EDGE_CURVE('',#1121,#1120,#438,.T.);
#1261=EDGE_CURVE('',#1122,#1121,#439,.T.);
#1262=EDGE_CURVE('',#1123,#1122,#440,.T.);
#1263=EDGE_CURVE('',#1123,#1124,#441,.T.);
#1264=EDGE_CURVE('',#1124,#1125,#442,.T.);
#1265=EDGE_CURVE('',#1125,#1126,#443,.T.);
#1266=EDGE_CURVE('',#1127,#1126,#1438,.T.);
#1267=EDGE_CURVE('',#1128,#1127,#444,.T.);
#1268=EDGE_CURVE('',#1129,#1128,#1439,.T.);
#1269=EDGE_CURVE('',#1130,#1129,#445,.T.);
#1270=EDGE_CURVE('',#1131,#1130,#1440,.T.);
#1271=EDGE_CURVE('',#1132,#1131,#446,.T.);
#1272=EDGE_CURVE('',#1133,#1132,#1441,.T.);
#1273=EDGE_CURVE('',#1115,#1133,#447,.T.);
#1274=EDGE_CURVE('',#1134,#1111,#448,.T.);
#1275=EDGE_CURVE('',#1134,#1135,#449,.T.);
#1276=EDGE_CURVE('',#1136,#1135,#450,.T.);
#1277=EDGE_CURVE('',#1137,#1136,#1442,.T.);
#1278=EDGE_CURVE('',#1118,#1137,#451,.T.);
#1279=EDGE_CURVE('',#1112,#1117,#452,.T.);
#1280=EDGE_CURVE('',#1138,#1138,#1443,.T.);
#1281=EDGE_CURVE('',#1139,#1139,#1444,.T.);
#1282=EDGE_CURVE('',#1140,#1140,#1445,.T.);
#1283=EDGE_CURVE('',#1141,#1142,#453,.T.);
#1284=EDGE_CURVE('',#1143,#1141,#1446,.T.);
#1285=EDGE_CURVE('',#1144,#1143,#454,.T.);
#1286=EDGE_CURVE('',#1142,#1144,#1447,.T.);
#1287=EDGE_CURVE('',#1145,#1145,#1448,.T.);
#1288=EDGE_CURVE('',#1146,#1123,#455,.T.);
#1289=EDGE_CURVE('',#1146,#1147,#456,.T.);
#1290=EDGE_CURVE('',#1148,#1147,#457,.T.);
#1291=EDGE_CURVE('',#1149,#1148,#1449,.T.);
#1292=EDGE_CURVE('',#1106,#1149,#458,.T.);
#1293=EDGE_CURVE('',#1124,#1105,#459,.T.);
#1294=EDGE_CURVE('',#1150,#1150,#1450,.T.);
#1295=EDGE_CURVE('',#1151,#1152,#460,.T.);
#1296=EDGE_CURVE('',#1153,#1151,#1451,.T.);
#1297=EDGE_CURVE('',#1154,#1153,#461,.T.);
#1298=EDGE_CURVE('',#1152,#1154,#1452,.T.);
#1299=EDGE_CURVE('',#1155,#1155,#1453,.T.);
#1300=EDGE_CURVE('',#1156,#1156,#1454,.T.);
#1301=EDGE_CURVE('',#1157,#1157,#1455,.T.);
#1302=EDGE_CURVE('',#1158,#1158,#1456,.T.);
#1303=EDGE_CURVE('',#1159,#1159,#1457,.T.);
#1304=EDGE_CURVE('',#1160,#1160,#1458,.T.);
#1305=EDGE_CURVE('',#1161,#1161,#1459,.T.);
#1306=EDGE_CURVE('',#1162,#1163,#462,.T.);
#1307=EDGE_CURVE('',#1162,#1146,#463,.T.);
#1308=EDGE_CURVE('',#1164,#1122,#464,.T.);
#1309=EDGE_CURVE('',#1164,#1165,#465,.T.);
#1310=EDGE_CURVE('',#1166,#1165,#466,.T.);
#1311=EDGE_CURVE('',#1167,#1166,#467,.T.);
#1312=EDGE_CURVE('',#1168,#1167,#468,.T.);
#1313=EDGE_CURVE('',#1168,#1169,#469,.T.);
#1314=EDGE_CURVE('',#1170,#1169,#470,.T.);
#1315=EDGE_CURVE('',#1163,#1170,#471,.T.);
#1316=EDGE_CURVE('',#1171,#1172,#472,.T.);
#1317=EDGE_CURVE('',#1172,#1134,#473,.T.);
#1318=EDGE_CURVE('',#1110,#1173,#474,.T.);
#1319=EDGE_CURVE('',#1173,#1174,#475,.T.);
#1320=EDGE_CURVE('',#1175,#1174,#476,.T.);
#1321=EDGE_CURVE('',#1176,#1175,#477,.T.);
#1322=EDGE_CURVE('',#1177,#1176,#478,.T.);
#1323=EDGE_CURVE('',#1177,#1178,#479,.T.);
#1324=EDGE_CURVE('',#1179,#1178,#480,.T.);
#1325=EDGE_CURVE('',#1171,#1179,#481,.T.);
#1326=EDGE_CURVE('',#1119,#1180,#482,.T.);
#1327=EDGE_CURVE('',#1180,#1181,#1460,.T.);
#1328=EDGE_CURVE('',#1181,#1182,#483,.T.);
#1329=EDGE_CURVE('',#1182,#1183,#484,.T.);
#1330=EDGE_CURVE('',#1183,#1184,#1461,.T.);
#1331=EDGE_CURVE('',#1184,#1179,#485,.T.);
#1332=EDGE_CURVE('',#1185,#1178,#486,.T.);
#1333=EDGE_CURVE('',#1186,#1185,#1462,.T.);
#1334=EDGE_CURVE('',#1175,#1186,#487,.T.);
#1335=EDGE_CURVE('',#1174,#1187,#488,.T.);
#1336=EDGE_CURVE('',#1187,#1188,#1463,.T.);
#1337=EDGE_CURVE('',#1188,#1108,#489,.T.);
#1338=EDGE_CURVE('',#1107,#1189,#490,.T.);
#1339=EDGE_CURVE('',#1189,#1190,#1464,.T.);
#1340=EDGE_CURVE('',#1190,#1191,#491,.T.);
#1341=EDGE_CURVE('',#1192,#1191,#492,.T.);
#1342=EDGE_CURVE('',#1193,#1192,#1465,.T.);
#1343=EDGE_CURVE('',#1170,#1193,#493,.T.);
#1344=EDGE_CURVE('',#1194,#1169,#494,.T.);
#1345=EDGE_CURVE('',#1195,#1194,#1466,.T.);
#1346=EDGE_CURVE('',#1166,#1195,#495,.T.);
#1347=EDGE_CURVE('',#1196,#1165,#496,.T.);
#1348=EDGE_CURVE('',#1197,#1196,#1467,.T.);
#1349=EDGE_CURVE('',#1120,#1197,#497,.T.);
#1350=EDGE_CURVE('',#1198,#1198,#1468,.T.);
#1351=EDGE_CURVE('',#1199,#1199,#1469,.T.);
#1352=EDGE_CURVE('',#1200,#1200,#1470,.T.);
#1353=EDGE_CURVE('',#1201,#1201,#1471,.T.);
#1354=EDGE_CURVE('',#1152,#1202,#498,.T.);
#1355=EDGE_CURVE('',#1203,#1202,#499,.T.);
#1356=EDGE_CURVE('',#1151,#1203,#500,.T.);
#1357=EDGE_CURVE('',#1154,#1204,#501,.T.);
#1358=EDGE_CURVE('',#1202,#1204,#1472,.T.);
#1359=EDGE_CURVE('',#1153,#1205,#502,.T.);
#1360=EDGE_CURVE('',#1204,#1205,#503,.T.);
#1361=EDGE_CURVE('',#1135,#1206,#504,.T.);
#1362=EDGE_CURVE('',#1206,#1207,#505,.T.);
#1363=EDGE_CURVE('',#1207,#1182,#506,.T.);
#1364=EDGE_CURVE('',#1136,#1181,#507,.T.);
#1365=EDGE_CURVE('',#1205,#1203,#1473,.T.);
#1366=EDGE_CURVE('',#1147,#1208,#508,.T.);
#1367=EDGE_CURVE('',#1209,#1208,#509,.T.);
#1368=EDGE_CURVE('',#1209,#1191,#510,.T.);
#1369=EDGE_CURVE('',#1148,#1190,#511,.T.);
#1370=EDGE_CURVE('',#1210,#1210,#1474,.T.);
#1371=EDGE_CURVE('',#1211,#1211,#1475,.T.);
#1372=EDGE_CURVE('',#1212,#1213,#512,.T.);
#1373=EDGE_CURVE('',#1141,#1213,#513,.T.);
#1374=EDGE_CURVE('',#1142,#1212,#514,.T.);
#1375=EDGE_CURVE('',#1214,#1212,#1476,.T.);
#1376=EDGE_CURVE('',#1144,#1214,#515,.T.);
#1377=EDGE_CURVE('',#1215,#1214,#516,.T.);
#1378=EDGE_CURVE('',#1143,#1215,#517,.T.);
#1379=EDGE_CURVE('',#1137,#1180,#518,.T.);
#1380=EDGE_CURVE('',#1149,#1189,#519,.T.);
#1381=EDGE_CURVE('',#1213,#1215,#1477,.T.);
#1382=EDGE_CURVE('',#1216,#1176,#520,.T.);
#1383=EDGE_CURVE('',#1217,#1216,#1478,.T.);
#1384=EDGE_CURVE('',#1177,#1217,#521,.T.);
#1385=EDGE_CURVE('',#1186,#1216,#522,.T.);
#1386=EDGE_CURVE('',#1185,#1217,#523,.T.);
#1387=EDGE_CURVE('',#1194,#1218,#524,.T.);
#1388=EDGE_CURVE('',#1218,#1219,#1479,.T.);
#1389=EDGE_CURVE('',#1195,#1219,#525,.T.);
#1390=EDGE_CURVE('',#1168,#1218,#526,.T.);
#1391=EDGE_CURVE('',#1219,#1167,#527,.T.);
#1392=EDGE_CURVE('',#1220,#1173,#528,.T.);
#1393=EDGE_CURVE('',#1187,#1220,#529,.T.);
#1394=EDGE_CURVE('',#1221,#1220,#1480,.T.);
#1395=EDGE_CURVE('',#1188,#1221,#530,.T.);
#1396=EDGE_CURVE('',#1109,#1221,#531,.T.);
#1397=EDGE_CURVE('',#1197,#1222,#532,.T.);
#1398=EDGE_CURVE('',#1222,#1121,#533,.T.);
#1399=EDGE_CURVE('',#1196,#1223,#534,.T.);
#1400=EDGE_CURVE('',#1223,#1222,#1481,.T.);
#1401=EDGE_CURVE('',#1164,#1223,#535,.T.);
#1402=EDGE_CURVE('',#1224,#1224,#1482,.T.);
#1403=EDGE_CURVE('',#1206,#1172,#536,.T.);
#1404=EDGE_CURVE('',#1171,#1225,#537,.T.);
#1405=EDGE_CURVE('',#1225,#1226,#1483,.T.);
#1406=EDGE_CURVE('',#1226,#1207,#538,.T.);
#1407=EDGE_CURVE('',#1183,#1226,#539,.T.);
#1408=EDGE_CURVE('',#1184,#1225,#540,.T.);
#1409=EDGE_CURVE('',#1227,#1227,#1484,.T.);
#1410=EDGE_CURVE('',#1208,#1162,#541,.T.);
#1411=EDGE_CURVE('',#1228,#1163,#542,.T.);
#1412=EDGE_CURVE('',#1229,#1228,#1485,.T.);
#1413=EDGE_CURVE('',#1209,#1229,#543,.T.);
#1414=EDGE_CURVE('',#1192,#1229,#544,.T.);
#1415=EDGE_CURVE('',#1193,#1228,#545,.T.);
#1416=EDGE_CURVE('',#1230,#1230,#1486,.T.);
#1417=EDGE_CURVE('',#1231,#1231,#1487,.T.);
#1418=EDGE_CURVE('',#1232,#1232,#1488,.T.);
#1419=EDGE_CURVE('',#1233,#1233,#1489,.T.);
#1420=EDGE_CURVE('',#1128,#1101,#546,.T.);
#1421=EDGE_CURVE('',#1127,#1102,#547,.T.);
#1422=EDGE_CURVE('',#1129,#1100,#548,.T.);
#1423=EDGE_CURVE('',#1126,#1103,#549,.T.);
#1424=EDGE_CURVE('',#1125,#1104,#550,.T.);
#1425=EDGE_CURVE('',#1130,#1099,#551,.T.);
#1426=EDGE_CURVE('',#1131,#1098,#552,.T.);
#1427=EDGE_CURVE('',#1132,#1097,#553,.T.);
#1428=EDGE_CURVE('',#1133,#1096,#554,.T.);
#1429=EDGE_CURVE('',#1115,#1095,#555,.T.);
#1430=EDGE_CURVE('',#1114,#1094,#556,.T.);
#1431=EDGE_CURVE('',#1116,#1113,#557,.T.);
#1432=CIRCLE('',#1491,3.1);
#1433=CIRCLE('',#1492,3.1);
#1434=CIRCLE('',#1493,3.1);
#1435=CIRCLE('',#1494,3.1);
#1436=CIRCLE('',#1495,3.1);
#1437=CIRCLE('',#1497,3.1);
#1438=CIRCLE('',#1498,3.1);
#1439=CIRCLE('',#1499,3.1);
#1440=CIRCLE('',#1500,3.1);
#1441=CIRCLE('',#1501,3.1);
#1442=CIRCLE('',#1503,0.75);
#1443=CIRCLE('',#1504,3.1);
#1444=CIRCLE('',#1505,2.);
#1445=CIRCLE('',#1506,2.);
#1446=CIRCLE('',#1507,3.75);
#1447=CIRCLE('',#1508,3.75);
#1448=CIRCLE('',#1509,4.5);
#1449=CIRCLE('',#1511,0.75);
#1450=CIRCLE('',#1512,4.5);
#1451=CIRCLE('',#1513,3.75);
#1452=CIRCLE('',#1514,3.75);
#1453=CIRCLE('',#1515,2.);
#1454=CIRCLE('',#1516,3.1);
#1455=CIRCLE('',#1517,2.);
#1456=CIRCLE('',#1519,3.1);
#1457=CIRCLE('',#1520,3.1);
#1458=CIRCLE('',#1522,3.1);
#1459=CIRCLE('',#1523,3.1);
#1460=CIRCLE('',#1527,0.75);
#1461=CIRCLE('',#1528,4.1);
#1462=CIRCLE('',#1529,4.1);
#1463=CIRCLE('',#1530,4.14223113681208);
#1464=CIRCLE('',#1531,0.75);
#1465=CIRCLE('',#1532,4.1);
#1466=CIRCLE('',#1533,4.1);
#1467=CIRCLE('',#1534,4.14223113681208);
#1468=CIRCLE('',#1535,2.);
#1469=CIRCLE('',#1536,2.);
#1470=CIRCLE('',#1537,2.);
#1471=CIRCLE('',#1538,2.);
#1472=CIRCLE('',#1541,3.75);
#1473=CIRCLE('',#1545,3.75);
#1474=CIRCLE('',#1548,3.1);
#1475=CIRCLE('',#1550,3.1);
#1476=CIRCLE('',#1553,3.75);
#1477=CIRCLE('',#1564,3.75);
#1478=CIRCLE('',#1566,4.1);
#1479=CIRCLE('',#1571,4.1);
#1480=CIRCLE('',#1577,4.14223113681208);
#1481=CIRCLE('',#1582,4.14223113681208);
#1482=CIRCLE('',#1586,3.6);
#1483=CIRCLE('',#1587,4.1);
#1484=CIRCLE('',#1592,3.6);
#1485=CIRCLE('',#1593,4.1);
#1486=CIRCLE('',#1598,4.5);
#1487=CIRCLE('',#1601,4.5);
#1488=CIRCLE('',#1604,3.6);
#1489=CIRCLE('',#1607,3.6);
#1490=AXIS2_PLACEMENT_3D('',#2035,#1625,#1626);
#1491=AXIS2_PLACEMENT_3D('',#2036,#1627,#1628);
#1492=AXIS2_PLACEMENT_3D('',#2041,#1630,#1631);
#1493=AXIS2_PLACEMENT_3D('',#2045,#1633,#1634);
#1494=AXIS2_PLACEMENT_3D('',#2049,#1636,#1637);
#1495=AXIS2_PLACEMENT_3D('',#2053,#1639,#1640);
#1496=AXIS2_PLACEMENT_3D('',#2076,#1652,#1653);
#1497=AXIS2_PLACEMENT_3D('',#2077,#1654,#1655);
#1498=AXIS2_PLACEMENT_3D('',#2102,#1667,#1668);
#1499=AXIS2_PLACEMENT_3D('',#2106,#1670,#1671);
#1500=AXIS2_PLACEMENT_3D('',#2110,#1673,#1674);
#1501=AXIS2_PLACEMENT_3D('',#2114,#1676,#1677);
#1502=AXIS2_PLACEMENT_3D('',#2117,#1679,#1680);
#1503=AXIS2_PLACEMENT_3D('',#2124,#1684,#1685);
#1504=AXIS2_PLACEMENT_3D('',#2128,#1688,#1689);
#1505=AXIS2_PLACEMENT_3D('',#2130,#1690,#1691);
#1506=AXIS2_PLACEMENT_3D('',#2132,#1692,#1693);
#1507=AXIS2_PLACEMENT_3D('',#2137,#1695,#1696);
#1508=AXIS2_PLACEMENT_3D('',#2141,#1698,#1699);
#1509=AXIS2_PLACEMENT_3D('',#2142,#1700,#1701);
#1510=AXIS2_PLACEMENT_3D('',#2144,#1702,#1703);
#1511=AXIS2_PLACEMENT_3D('',#2151,#1707,#1708);
#1512=AXIS2_PLACEMENT_3D('',#2155,#1711,#1712);
#1513=AXIS2_PLACEMENT_3D('',#2160,#1714,#1715);
#1514=AXIS2_PLACEMENT_3D('',#2164,#1717,#1718);
#1515=AXIS2_PLACEMENT_3D('',#2165,#1719,#1720);
#1516=AXIS2_PLACEMENT_3D('',#2167,#1721,#1722);
#1517=AXIS2_PLACEMENT_3D('',#2169,#1723,#1724);
#1518=AXIS2_PLACEMENT_3D('',#2171,#1725,#1726);
#1519=AXIS2_PLACEMENT_3D('',#2172,#1727,#1728);
#1520=AXIS2_PLACEMENT_3D('',#2174,#1729,#1730);
#1521=AXIS2_PLACEMENT_3D('',#2176,#1731,#1732);
#1522=AXIS2_PLACEMENT_3D('',#2177,#1733,#1734);
#1523=AXIS2_PLACEMENT_3D('',#2179,#1735,#1736);
#1524=AXIS2_PLACEMENT_3D('',#2181,#1737,#1738);
#1525=AXIS2_PLACEMENT_3D('',#2201,#1749,#1750);
#1526=AXIS2_PLACEMENT_3D('',#2221,#1761,#1762);
#1527=AXIS2_PLACEMENT_3D('',#2224,#1764,#1765);
#1528=AXIS2_PLACEMENT_3D('',#2230,#1768,#1769);
#1529=AXIS2_PLACEMENT_3D('',#2235,#1772,#1773);
#1530=AXIS2_PLACEMENT_3D('',#2240,#1776,#1777);
#1531=AXIS2_PLACEMENT_3D('',#2245,#1780,#1781);
#1532=AXIS2_PLACEMENT_3D('',#2251,#1784,#1785);
#1533=AXIS2_PLACEMENT_3D('',#2256,#1788,#1789);
#1534=AXIS2_PLACEMENT_3D('',#2261,#1792,#1793);
#1535=AXIS2_PLACEMENT_3D('',#2264,#1795,#1796);
#1536=AXIS2_PLACEMENT_3D('',#2266,#1797,#1798);
#1537=AXIS2_PLACEMENT_3D('',#2268,#1799,#1800);
#1538=AXIS2_PLACEMENT_3D('',#2270,#1801,#1802);
#1539=AXIS2_PLACEMENT_3D('',#2272,#1803,#1804);
#1540=AXIS2_PLACEMENT_3D('',#2278,#1808,#1809);
#1541=AXIS2_PLACEMENT_3D('',#2281,#1811,#1812);
#1542=AXIS2_PLACEMENT_3D('',#2282,#1813,#1814);
#1543=AXIS2_PLACEMENT_3D('',#2286,#1817,#1818);
#1544=AXIS2_PLACEMENT_3D('',#2293,#1823,#1824);
#1545=AXIS2_PLACEMENT_3D('',#2294,#1825,#1826);
#1546=AXIS2_PLACEMENT_3D('',#2295,#1827,#1828);
#1547=AXIS2_PLACEMENT_3D('',#2302,#1833,#1834);
#1548=AXIS2_PLACEMENT_3D('',#2303,#1835,#1836);
#1549=AXIS2_PLACEMENT_3D('',#2305,#1837,#1838);
#1550=AXIS2_PLACEMENT_3D('',#2306,#1839,#1840);
#1551=AXIS2_PLACEMENT_3D('',#2308,#1841,#1842);
#1552=AXIS2_PLACEMENT_3D('',#2314,#1846,#1847);
#1553=AXIS2_PLACEMENT_3D('',#2315,#1848,#1849);
#1554=AXIS2_PLACEMENT_3D('',#2318,#1851,#1852);
#1555=AXIS2_PLACEMENT_3D('',#2322,#1855,#1856);
#1556=AXIS2_PLACEMENT_3D('',#2324,#1858,#1859);
#1557=AXIS2_PLACEMENT_3D('',#2325,#1860,#1861);
#1558=AXIS2_PLACEMENT_3D('',#2327,#1863,#1864);
#1559=AXIS2_PLACEMENT_3D('',#2328,#1865,#1866);
#1560=AXIS2_PLACEMENT_3D('',#2329,#1867,#1868);
#1561=AXIS2_PLACEMENT_3D('',#2330,#1869,#1870);
#1562=AXIS2_PLACEMENT_3D('',#2331,#1871,#1872);
#1563=AXIS2_PLACEMENT_3D('',#2332,#1873,#1874);
#1564=AXIS2_PLACEMENT_3D('',#2333,#1875,#1876);
#1565=AXIS2_PLACEMENT_3D('',#2334,#1877,#1878);
#1566=AXIS2_PLACEMENT_3D('',#2337,#1880,#1881);
#1567=AXIS2_PLACEMENT_3D('',#2340,#1883,#1884);
#1568=AXIS2_PLACEMENT_3D('',#2342,#1886,#1887);
#1569=AXIS2_PLACEMENT_3D('',#2344,#1889,#1890);
#1570=AXIS2_PLACEMENT_3D('',#2345,#1891,#1892);
#1571=AXIS2_PLACEMENT_3D('',#2348,#1894,#1895);
#1572=AXIS2_PLACEMENT_3D('',#2351,#1897,#1898);
#1573=AXIS2_PLACEMENT_3D('',#2353,#1900,#1901);
#1574=AXIS2_PLACEMENT_3D('',#2355,#1903,#1904);
#1575=AXIS2_PLACEMENT_3D('',#2356,#1905,#1906);
#1576=AXIS2_PLACEMENT_3D('',#2360,#1909,#1910);
#1577=AXIS2_PLACEMENT_3D('',#2361,#1911,#1912);
#1578=AXIS2_PLACEMENT_3D('',#2364,#1914,#1915);
#1579=AXIS2_PLACEMENT_3D('',#2366,#1917,#1918);
#1580=AXIS2_PLACEMENT_3D('',#2367,#1919,#1920);
#1581=AXIS2_PLACEMENT_3D('',#2371,#1923,#1924);
#1582=AXIS2_PLACEMENT_3D('',#2374,#1926,#1927);
#1583=AXIS2_PLACEMENT_3D('',#2375,#1928,#1929);
#1584=AXIS2_PLACEMENT_3D('',#2377,#1931,#1932);
#1585=AXIS2_PLACEMENT_3D('',#2378,#1933,#1934);
#1586=AXIS2_PLACEMENT_3D('',#2379,#1935,#1936);
#1587=AXIS2_PLACEMENT_3D('',#2384,#1939,#1940);
#1588=AXIS2_PLACEMENT_3D('',#2387,#1942,#1943);
#1589=AXIS2_PLACEMENT_3D('',#2389,#1945,#1946);
#1590=AXIS2_PLACEMENT_3D('',#2391,#1948,#1949);
#1591=AXIS2_PLACEMENT_3D('',#2392,#1950,#1951);
#1592=AXIS2_PLACEMENT_3D('',#2393,#1952,#1953);
#1593=AXIS2_PLACEMENT_3D('',#2398,#1956,#1957);
#1594=AXIS2_PLACEMENT_3D('',#2401,#1959,#1960);
#1595=AXIS2_PLACEMENT_3D('',#2403,#1962,#1963);
#1596=AXIS2_PLACEMENT_3D('',#2405,#1965,#1966);
#1597=AXIS2_PLACEMENT_3D('',#2406,#1967,#1968);
#1598=AXIS2_PLACEMENT_3D('',#2407,#1969,#1970);
#1599=AXIS2_PLACEMENT_3D('',#2409,#1971,#1972);
#1600=AXIS2_PLACEMENT_3D('',#2410,#1973,#1974);
#1601=AXIS2_PLACEMENT_3D('',#2411,#1975,#1976);
#1602=AXIS2_PLACEMENT_3D('',#2413,#1977,#1978);
#1603=AXIS2_PLACEMENT_3D('',#2414,#1979,#1980);
#1604=AXIS2_PLACEMENT_3D('',#2415,#1981,#1982);
#1605=AXIS2_PLACEMENT_3D('',#2417,#1983,#1984);
#1606=AXIS2_PLACEMENT_3D('',#2418,#1985,#1986);
#1607=AXIS2_PLACEMENT_3D('',#2419,#1987,#1988);
#1608=AXIS2_PLACEMENT_3D('',#2421,#1989,#1990);
#1609=AXIS2_PLACEMENT_3D('',#2422,#1991,#1992);
#1610=AXIS2_PLACEMENT_3D('',#2425,#1995,#1996);
#1611=AXIS2_PLACEMENT_3D('',#2427,#1998,#1999);
#1612=AXIS2_PLACEMENT_3D('',#2430,#2002,#2003);
#1613=AXIS2_PLACEMENT_3D('',#2431,#2004,#2005);
#1614=AXIS2_PLACEMENT_3D('',#2432,#2006,#2007);
#1615=AXIS2_PLACEMENT_3D('',#2434,#2009,#2010);
#1616=AXIS2_PLACEMENT_3D('',#2436,#2012,#2013);
#1617=AXIS2_PLACEMENT_3D('',#2438,#2015,#2016);
#1618=AXIS2_PLACEMENT_3D('',#2440,#2018,#2019);
#1619=AXIS2_PLACEMENT_3D('',#2442,#2021,#2022);
#1620=AXIS2_PLACEMENT_3D('',#2444,#2024,#2025);
#1621=AXIS2_PLACEMENT_3D('',#2446,#2027,#2028);
#1622=AXIS2_PLACEMENT_3D('',#2447,#2029,#2030);
#1623=AXIS2_PLACEMENT_3D('',#2448,#2031,#2032);
#1624=AXIS2_PLACEMENT_3D('',#2449,#2033,#2034);
#1625=DIRECTION('',(0.,0.,1.));
#1626=DIRECTION('',(1.,0.,0.));
#1627=DIRECTION('',(0.,1.,0.));
#1628=DIRECTION('',(-0.999999999999999,0.,-2.79794109028517E-16));
#1629=DIRECTION('',(-1.,-1.29698951474901E-15,0.));
#1630=DIRECTION('',(0.,1.,0.));
#1631=DIRECTION('',(-1.,0.,-2.79794109028517E-16));
#1632=DIRECTION('',(-1.,-1.29698951474901E-15,0.));
#1633=DIRECTION('',(0.,1.,0.));
#1634=DIRECTION('',(-1.,0.,-2.79794109028517E-16));
#1635=DIRECTION('',(-1.,-1.29698951474901E-15,0.));
#1636=DIRECTION('',(0.,1.,0.));
#1637=DIRECTION('',(-1.,0.,-2.79794109028517E-16));
#1638=DIRECTION('',(-1.,-1.29698951474901E-15,0.));
#1639=DIRECTION('',(0.,1.,0.));
#1640=DIRECTION('',(-1.,0.,-2.79794109028517E-16));
#1641=DIRECTION('',(1.,1.29698951474902E-15,0.));
#1642=DIRECTION('',(0.,0.,1.));
#1643=DIRECTION('',(-1.,-1.42817575205382E-15,0.));
#1644=DIRECTION('',(0.,0.,-1.));
#1645=DIRECTION('',(-1.,-1.42817575205382E-15,0.));
#1646=DIRECTION('',(0.,0.,-1.));
#1647=DIRECTION('',(1.,1.44560289664734E-15,0.));
#1648=DIRECTION('',(0.,0.,-1.));
#1649=DIRECTION('',(-1.,-1.42817575205382E-15,0.));
#1650=DIRECTION('',(0.,0.,-1.));
#1651=DIRECTION('',(-1.,-1.29698951474902E-15,0.));
#1652=DIRECTION('',(1.42817575205382E-15,-1.,0.));
#1653=DIRECTION('',(1.,1.42941214420489E-15,0.));
#1654=DIRECTION('',(0.,1.,0.));
#1655=DIRECTION('',(-0.999999999999999,0.,-2.79794109028517E-16));
#1656=DIRECTION('',(-1.,-1.29698951474902E-15,0.));
#1657=DIRECTION('',(0.,0.,-1.));
#1658=DIRECTION('',(1.,1.32616319833569E-15,0.));
#1659=DIRECTION('',(0.,0.,-1.));
#1660=DIRECTION('',(1.,1.32616319833569E-15,0.));
#1661=DIRECTION('',(0.,0.,-1.));
#1662=DIRECTION('',(1.,1.44560289664734E-15,0.));
#1663=DIRECTION('',(0.,0.,-1.));
#1664=DIRECTION('',(1.,1.32616319833569E-15,0.));
#1665=DIRECTION('',(0.,0.,1.));
#1666=DIRECTION('',(1.,1.29698951474902E-15,0.));
#1667=DIRECTION('',(0.,1.,0.));
#1668=DIRECTION('',(-1.,0.,-2.79794109028517E-16));
#1669=DIRECTION('',(-1.,-1.29698951474901E-15,0.));
#1670=DIRECTION('',(0.,1.,0.));
#1671=DIRECTION('',(-1.,0.,-2.79794109028517E-16));
#1672=DIRECTION('',(-1.,-1.29698951474901E-15,0.));
#1673=DIRECTION('',(0.,1.,0.));
#1674=DIRECTION('',(-1.,0.,-2.79794109028517E-16));
#1675=DIRECTION('',(-1.,-1.29698951474901E-15,0.));
#1676=DIRECTION('',(0.,1.,0.));
#1677=DIRECTION('',(-1.,0.,-2.79794109028517E-16));
#1678=DIRECTION('',(-1.,-1.29698951474901E-15,0.));
#1679=DIRECTION('',(-1.32616319833569E-15,1.,0.));
#1680=DIRECTION('',(-1.,-1.32532873564628E-15,0.));
#1681=DIRECTION('',(6.48494757374507E-16,-1.,0.));
#1682=DIRECTION('',(-0.707106781186548,0.707106781186547,0.));
#1683=DIRECTION('',(1.,1.50355230853894E-15,0.));
#1684=DIRECTION('',(0.,0.,1.));
#1685=DIRECTION('',(-1.,0.,0.));
#1686=DIRECTION('',(0.,-1.,0.));
#1687=DIRECTION('',(-1.29698951474901E-15,1.,0.));
#1688=DIRECTION('',(0.,0.,-1.));
#1689=DIRECTION('',(-0.999999999999999,0.,0.));
#1690=DIRECTION('',(0.,0.,-1.));
#1691=DIRECTION('',(-1.,0.,0.));
#1692=DIRECTION('',(0.,0.,1.));
#1693=DIRECTION('',(-1.,0.,0.));
#1694=DIRECTION('',(-3.46944695195361E-15,1.,0.));
#1695=DIRECTION('',(0.,0.,1.));
#1696=DIRECTION('',(-0.999999999999999,0.,0.));
#1697=DIRECTION('',(3.46944695195362E-15,-1.,0.));
#1698=DIRECTION('',(0.,0.,1.));
#1699=DIRECTION('',(-0.999999999999999,0.,0.));
#1700=DIRECTION('',(0.,0.,-1.));
#1701=DIRECTION('',(1.,0.,0.));
#1702=DIRECTION('',(0.,0.,1.));
#1703=DIRECTION('',(1.,0.,0.));
#1704=DIRECTION('',(-5.18795805899606E-16,1.,0.));
#1705=DIRECTION('',(0.707106781186548,-0.707106781186547,0.));
#1706=DIRECTION('',(-1.,-1.50355230853894E-15,0.));
#1707=DIRECTION('',(0.,0.,1.));
#1708=DIRECTION('',(-1.,0.,0.));
#1709=DIRECTION('',(0.,1.,0.));
#1710=DIRECTION('',(1.29698951474901E-15,-1.,0.));
#1711=DIRECTION('',(0.,0.,-1.));
#1712=DIRECTION('',(1.,0.,0.));
#1713=DIRECTION('',(0.,1.,0.));
#1714=DIRECTION('',(0.,0.,1.));
#1715=DIRECTION('',(1.,0.,0.));
#1716=DIRECTION('',(6.93889390390722E-15,-1.,0.));
#1717=DIRECTION('',(0.,0.,1.));
#1718=DIRECTION('',(1.,0.,0.));
#1719=DIRECTION('',(0.,0.,-1.));
#1720=DIRECTION('',(1.,0.,0.));
#1721=DIRECTION('',(0.,0.,1.));
#1722=DIRECTION('',(1.,0.,0.));
#1723=DIRECTION('',(0.,0.,1.));
#1724=DIRECTION('',(1.,0.,0.));
#1725=DIRECTION('',(0.,0.,1.));
#1726=DIRECTION('',(1.,0.,0.));
#1727=DIRECTION('',(0.,0.,-1.));
#1728=DIRECTION('',(-0.999999999999999,0.,0.));
#1729=DIRECTION('',(0.,0.,-1.));
#1730=DIRECTION('',(-0.999999999999999,0.,0.));
#1731=DIRECTION('',(0.,0.,-1.));
#1732=DIRECTION('',(-0.999999999999999,0.,0.));
#1733=DIRECTION('',(0.,0.,-1.));
#1734=DIRECTION('',(-1.,0.,0.));
#1735=DIRECTION('',(0.,0.,-1.));
#1736=DIRECTION('',(-1.,0.,0.));
#1737=DIRECTION('',(0.,0.,-1.));
#1738=DIRECTION('',(-1.,0.,0.));
#1739=DIRECTION('',(0.,1.,0.));
#1740=DIRECTION('',(0.,0.,1.));
#1741=DIRECTION('',(0.,1.,0.));
#1742=DIRECTION('',(0.,0.,-1.));
#1743=DIRECTION('',(-5.18795805899606E-16,1.,0.));
#1744=DIRECTION('',(0.,0.,-1.));
#1745=DIRECTION('',(-1.69241314729445E-15,1.,0.));
#1746=DIRECTION('',(0.,0.,-1.));
#1747=DIRECTION('',(-5.18795805899606E-16,1.,0.));
#1748=DIRECTION('',(0.,0.,-1.));
#1749=DIRECTION('',(-1.,-5.18795805899606E-16,0.));
#1750=DIRECTION('',(5.13478148889135E-16,-1.,0.));
#1751=DIRECTION('',(-7.2280144832367E-16,1.,0.));
#1752=DIRECTION('',(0.,0.,1.));
#1753=DIRECTION('',(-5.78241158658936E-16,1.,0.));
#1754=DIRECTION('',(0.,0.,-1.));
#1755=DIRECTION('',(6.48494757374507E-16,-1.,0.));
#1756=DIRECTION('',(0.,0.,-1.));
#1757=DIRECTION('',(8.46206573647223E-16,-1.,0.));
#1758=DIRECTION('',(0.,0.,-1.));
#1759=DIRECTION('',(6.48494757374507E-16,-1.,0.));
#1760=DIRECTION('',(0.,0.,-1.));
#1761=DIRECTION('',(1.,6.48494757374507E-16,0.));
#1762=DIRECTION('',(-6.45317133063372E-16,1.,0.));
#1763=DIRECTION('',(0.,-1.,0.));
#1764=DIRECTION('',(0.,0.,1.));
#1765=DIRECTION('',(-1.,0.,0.));
#1766=DIRECTION('',(1.,0.,0.));
#1767=DIRECTION('',(1.25996168804898E-15,-1.,0.));
#1768=DIRECTION('',(0.,0.,1.));
#1769=DIRECTION('',(-1.,0.,0.));
#1770=DIRECTION('',(1.,1.38777878078144E-15,0.));
#1771=DIRECTION('',(1.,1.15648231731787E-15,0.));
#1772=DIRECTION('',(0.,0.,-1.));
#1773=DIRECTION('',(-1.,0.,0.));
#1774=DIRECTION('',(-1.,-1.54197642309049E-15,0.));
#1775=DIRECTION('',(-1.,0.,0.));
#1776=DIRECTION('',(0.,0.,1.));
#1777=DIRECTION('',(-1.,0.,0.));
#1778=DIRECTION('',(1.76612318960272E-15,-1.,0.));
#1779=DIRECTION('',(0.,1.,0.));
#1780=DIRECTION('',(0.,0.,1.));
#1781=DIRECTION('',(-1.,0.,0.));
#1782=DIRECTION('',(-1.,0.,0.));
#1783=DIRECTION('',(2.51992337609797E-15,-1.,0.));
#1784=DIRECTION('',(0.,0.,-1.));
#1785=DIRECTION('',(1.,0.,0.));
#1786=DIRECTION('',(1.,1.38777878078144E-15,0.));
#1787=DIRECTION('',(-1.,-1.15648231731787E-15,0.));
#1788=DIRECTION('',(0.,0.,-1.));
#1789=DIRECTION('',(1.,1.22464679914736E-16,0.));
#1790=DIRECTION('',(1.,1.54197642309049E-15,0.));
#1791=DIRECTION('',(-1.,0.,0.));
#1792=DIRECTION('',(0.,0.,-1.));
#1793=DIRECTION('',(0.999999999999999,0.,0.));
#1794=DIRECTION('',(1.76612318960273E-15,-1.,0.));
#1795=DIRECTION('',(0.,0.,-1.));
#1796=DIRECTION('',(1.,0.,0.));
#1797=DIRECTION('',(0.,0.,1.));
#1798=DIRECTION('',(1.,0.,0.));
#1799=DIRECTION('',(0.,0.,-1.));
#1800=DIRECTION('',(-1.,0.,0.));
#1801=DIRECTION('',(0.,0.,1.));
#1802=DIRECTION('',(-1.,0.,0.));
#1803=DIRECTION('',(0.,0.,1.));
#1804=DIRECTION('',(1.,0.,0.));
#1805=DIRECTION('',(0.,0.,-1.));
#1806=DIRECTION('',(0.,1.,0.));
#1807=DIRECTION('',(0.,0.,-1.));
#1808=DIRECTION('',(-1.,0.,0.));
#1809=DIRECTION('',(0.,0.,1.));
#1810=DIRECTION('',(0.,0.,-1.));
#1811=DIRECTION('',(0.,0.,1.));
#1812=DIRECTION('',(-1.,0.,0.));
#1813=DIRECTION('',(0.,0.,-1.));
#1814=DIRECTION('',(-1.,0.,0.));
#1815=DIRECTION('',(0.,0.,-1.));
#1816=DIRECTION('',(6.93889390390722E-15,-1.,0.));
#1817=DIRECTION('',(1.,6.93889390390722E-15,0.));
#1818=DIRECTION('',(-6.93889390390723E-15,1.,0.));
#1819=DIRECTION('',(0.,0.,-1.));
#1820=DIRECTION('',(-1.,-1.50355230853894E-15,0.));
#1821=DIRECTION('',(0.,0.,-1.));
#1822=DIRECTION('',(0.,0.,-1.));
#1823=DIRECTION('',(-1.50355230853894E-15,1.,0.));
#1824=DIRECTION('',(-1.,-1.50573997714787E-15,0.));
#1825=DIRECTION('',(0.,0.,1.));
#1826=DIRECTION('',(-1.,0.,0.));
#1827=DIRECTION('',(0.,0.,-1.));
#1828=DIRECTION('',(-1.,0.,0.));
#1829=DIRECTION('',(0.,0.,-1.));
#1830=DIRECTION('',(-1.,-1.50355230853894E-15,0.));
#1831=DIRECTION('',(0.,0.,-1.));
#1832=DIRECTION('',(0.,0.,-1.));
#1833=DIRECTION('',(1.50355230853894E-15,-1.,0.));
#1834=DIRECTION('',(1.,1.50573997714787E-15,0.));
#1835=DIRECTION('',(0.,0.,1.));
#1836=DIRECTION('',(-1.,0.,0.));
#1837=DIRECTION('',(0.,0.,-1.));
#1838=DIRECTION('',(-1.,0.,0.));
#1839=DIRECTION('',(0.,0.,-1.));
#1840=DIRECTION('',(-0.999999999999999,0.,0.));
#1841=DIRECTION('',(0.,0.,-1.));
#1842=DIRECTION('',(-0.999999999999999,0.,0.));
#1843=DIRECTION('',(3.46944695195361E-15,-1.,0.));
#1844=DIRECTION('',(0.,0.,-1.));
#1845=DIRECTION('',(0.,0.,-1.));
#1846=DIRECTION('',(-1.,-3.46944695195361E-15,0.));
#1847=DIRECTION('',(3.46944695195361E-15,-1.,0.));
#1848=DIRECTION('',(0.,0.,-1.));
#1849=DIRECTION('',(0.999999999999999,0.,0.));
#1850=DIRECTION('',(0.,0.,-1.));
#1851=DIRECTION('',(0.,0.,-1.));
#1852=DIRECTION('',(-0.999999999999999,0.,0.));
#1853=DIRECTION('',(-3.46944695195362E-15,1.,0.));
#1854=DIRECTION('',(0.,0.,-1.));
#1855=DIRECTION('',(1.,3.46944695195362E-15,0.));
#1856=DIRECTION('',(-3.46944695195361E-15,1.,0.));
#1857=DIRECTION('',(0.,0.,-1.));
#1858=DIRECTION('',(1.,0.,0.));
#1859=DIRECTION('',(0.,0.,-1.));
#1860=DIRECTION('',(0.,0.,-1.));
#1861=DIRECTION('',(-1.,0.,0.));
#1862=DIRECTION('',(0.,0.,-1.));
#1863=DIRECTION('',(-1.,0.,0.));
#1864=DIRECTION('',(0.,0.,1.));
#1865=DIRECTION('',(0.,0.,-1.));
#1866=DIRECTION('',(-1.,0.,0.));
#1867=DIRECTION('',(0.,0.,-1.));
#1868=DIRECTION('',(-1.,0.,0.));
#1869=DIRECTION('',(0.,0.,-1.));
#1870=DIRECTION('',(-1.,0.,0.));
#1871=DIRECTION('',(0.,0.,-1.));
#1872=DIRECTION('',(-1.,0.,0.));
#1873=DIRECTION('',(0.,0.,-1.));
#1874=DIRECTION('',(-1.,0.,0.));
#1875=DIRECTION('',(0.,0.,-1.));
#1876=DIRECTION('',(0.999999999999999,0.,0.));
#1877=DIRECTION('',(0.,0.,-1.));
#1878=DIRECTION('',(-0.999999999999999,0.,0.));
#1879=DIRECTION('',(1.,1.54197642309049E-15,0.));
#1880=DIRECTION('',(0.,0.,1.));
#1881=DIRECTION('',(-1.,0.,0.));
#1882=DIRECTION('',(-1.,-1.15648231731787E-15,0.));
#1883=DIRECTION('',(0.,0.,-1.));
#1884=DIRECTION('',(-1.,0.,0.));
#1885=DIRECTION('',(0.,0.,1.));
#1886=DIRECTION('',(1.54197642309049E-15,-1.,0.));
#1887=DIRECTION('',(1.,1.54216917014338E-15,0.));
#1888=DIRECTION('',(0.,0.,1.));
#1889=DIRECTION('',(0.,0.,-1.));
#1890=DIRECTION('',(-1.,0.,0.));
#1891=DIRECTION('',(-1.15648231731787E-15,1.,0.));
#1892=DIRECTION('',(-1.,-1.15619319673854E-15,0.));
#1893=DIRECTION('',(0.,0.,1.));
#1894=DIRECTION('',(0.,0.,1.));
#1895=DIRECTION('',(1.,1.22464679914736E-16,0.));
#1896=DIRECTION('',(0.,0.,1.));
#1897=DIRECTION('',(0.,0.,-1.));
#1898=DIRECTION('',(-1.,0.,0.));
#1899=DIRECTION('',(1.,1.15648231731787E-15,0.));
#1900=DIRECTION('',(1.15648231731787E-15,-1.,0.));
#1901=DIRECTION('',(1.,1.15619319673854E-15,0.));
#1902=DIRECTION('',(-1.,-1.54197642309049E-15,0.));
#1903=DIRECTION('',(-1.54197642309049E-15,1.,0.));
#1904=DIRECTION('',(-1.,-1.54216917014338E-15,0.));
#1905=DIRECTION('',(0.,0.,-1.));
#1906=DIRECTION('',(-1.,0.,0.));
#1907=DIRECTION('',(1.,0.,0.));
#1908=DIRECTION('',(0.,0.,1.));
#1909=DIRECTION('',(0.,-1.,0.));
#1910=DIRECTION('',(0.,0.,-1.));
#1911=DIRECTION('',(0.,0.,-1.));
#1912=DIRECTION('',(-1.,0.,0.));
#1913=DIRECTION('',(0.,0.,1.));
#1914=DIRECTION('',(0.,0.,-1.));
#1915=DIRECTION('',(-1.,0.,0.));
#1916=DIRECTION('',(-1.76612318960272E-15,1.,0.));
#1917=DIRECTION('',(1.,1.76612318960272E-15,0.));
#1918=DIRECTION('',(-1.76941794549634E-15,1.,0.));
#1919=DIRECTION('',(0.,0.,1.));
#1920=DIRECTION('',(1.,0.,0.));
#1921=DIRECTION('',(0.,0.,1.));
#1922=DIRECTION('',(-1.76612318960273E-15,1.,0.));
#1923=DIRECTION('',(1.,1.76612318960273E-15,0.));
#1924=DIRECTION('',(-1.76247905159244E-15,1.,0.));
#1925=DIRECTION('',(0.,0.,1.));
#1926=DIRECTION('',(0.,0.,1.));
#1927=DIRECTION('',(0.999999999999999,0.,0.));
#1928=DIRECTION('',(0.,0.,-1.));
#1929=DIRECTION('',(-0.999999999999999,0.,0.));
#1930=DIRECTION('',(1.,0.,0.));
#1931=DIRECTION('',(0.,-1.,0.));
#1932=DIRECTION('',(0.,0.,-1.));
#1933=DIRECTION('',(0.,0.,-1.));
#1934=DIRECTION('',(-1.,0.,0.));
#1935=DIRECTION('',(0.,0.,-1.));
#1936=DIRECTION('',(1.,0.,0.));
#1937=DIRECTION('',(0.707106781186548,-0.707106781186547,0.));
#1938=DIRECTION('',(-1.,-1.38777878078144E-15,0.));
#1939=DIRECTION('',(0.,0.,-1.));
#1940=DIRECTION('',(-1.,0.,0.));
#1941=DIRECTION('',(-1.25996168804898E-15,1.,0.));
#1942=DIRECTION('',(0.,0.,1.));
#1943=DIRECTION('',(1.,0.,0.));
#1944=DIRECTION('',(0.,0.,1.));
#1945=DIRECTION('',(1.,1.25996168804898E-15,0.));
#1946=DIRECTION('',(-1.26287869051112E-15,1.,0.));
#1947=DIRECTION('',(0.,0.,1.));
#1948=DIRECTION('',(0.,0.,-1.));
#1949=DIRECTION('',(-1.,0.,0.));
#1950=DIRECTION('',(-1.38777878078144E-15,1.,0.));
#1951=DIRECTION('',(-1.,-1.38777878078145E-15,0.));
#1952=DIRECTION('',(0.,0.,1.));
#1953=DIRECTION('',(-1.,0.,0.));
#1954=DIRECTION('',(-0.707106781186548,0.707106781186547,0.));
#1955=DIRECTION('',(-1.,-1.38777878078144E-15,0.));
#1956=DIRECTION('',(0.,0.,1.));
#1957=DIRECTION('',(1.,0.,0.));
#1958=DIRECTION('',(-2.51992337609797E-15,1.,0.));
#1959=DIRECTION('',(0.,0.,-1.));
#1960=DIRECTION('',(-1.,0.,0.));
#1961=DIRECTION('',(0.,0.,1.));
#1962=DIRECTION('',(1.,2.51992337609797E-15,0.));
#1963=DIRECTION('',(-2.52575738102223E-15,1.,0.));
#1964=DIRECTION('',(0.,0.,1.));
#1965=DIRECTION('',(-1.38777878078144E-15,1.,0.));
#1966=DIRECTION('',(-1.,-1.38777878078145E-15,0.));
#1967=DIRECTION('',(0.,0.,-1.));
#1968=DIRECTION('',(-1.,0.,0.));
#1969=DIRECTION('',(0.,0.,-1.));
#1970=DIRECTION('',(-1.,0.,0.));
#1971=DIRECTION('',(0.,0.,-1.));
#1972=DIRECTION('',(-1.,0.,0.));
#1973=DIRECTION('',(0.,0.,-1.));
#1974=DIRECTION('',(-1.,0.,0.));
#1975=DIRECTION('',(0.,0.,-1.));
#1976=DIRECTION('',(-1.,0.,0.));
#1977=DIRECTION('',(0.,0.,-1.));
#1978=DIRECTION('',(-1.,0.,0.));
#1979=DIRECTION('',(0.,0.,-1.));
#1980=DIRECTION('',(-1.,0.,0.));
#1981=DIRECTION('',(0.,0.,1.));
#1982=DIRECTION('',(1.,0.,0.));
#1983=DIRECTION('',(0.,0.,-1.));
#1984=DIRECTION('',(-1.,0.,0.));
#1985=DIRECTION('',(0.,0.,-1.));
#1986=DIRECTION('',(-1.,0.,0.));
#1987=DIRECTION('',(0.,0.,1.));
#1988=DIRECTION('',(-1.,0.,0.));
#1989=DIRECTION('',(0.,0.,-1.));
#1990=DIRECTION('',(-1.,0.,0.));
#1991=DIRECTION('',(0.,0.,-1.));
#1992=DIRECTION('',(-1.,0.,0.));
#1993=DIRECTION('',(1.29698951474901E-15,-1.,0.));
#1994=DIRECTION('',(1.29698951474901E-15,-1.,0.));
#1995=DIRECTION('',(0.,0.,1.));
#1996=DIRECTION('',(1.,0.,0.));
#1997=DIRECTION('',(1.29698951474901E-15,-1.,0.));
#1998=DIRECTION('',(1.29698951474901E-15,-1.,0.));
#1999=DIRECTION('',(1.,2.23835287222814E-15,0.));
#2000=DIRECTION('',(1.29698951474901E-15,-1.,0.));
#2001=DIRECTION('',(1.29698951474901E-15,-1.,0.));
#2002=DIRECTION('',(0.,0.,1.));
#2003=DIRECTION('',(1.,0.,0.));
#2004=DIRECTION('',(1.29698951474901E-15,-1.,0.));
#2005=DIRECTION('',(1.,2.23835287222814E-15,0.));
#2006=DIRECTION('',(-1.,-1.29698951474901E-15,0.));
#2007=DIRECTION('',(1.29063426612674E-15,-1.,0.));
#2008=DIRECTION('',(1.29698951474901E-15,-1.,0.));
#2009=DIRECTION('',(0.,0.,1.));
#2010=DIRECTION('',(1.,0.,0.));
#2011=DIRECTION('',(1.29698951474901E-15,-1.,0.));
#2012=DIRECTION('',(1.29698951474901E-15,-1.,0.));
#2013=DIRECTION('',(1.,2.23835287222814E-15,0.));
#2014=DIRECTION('',(1.29698951474901E-15,-1.,0.));
#2015=DIRECTION('',(0.,0.,1.));
#2016=DIRECTION('',(1.,0.,0.));
#2017=DIRECTION('',(1.29698951474901E-15,-1.,0.));
#2018=DIRECTION('',(1.29698951474901E-15,-1.,0.));
#2019=DIRECTION('',(1.,2.23835287222814E-15,0.));
#2020=DIRECTION('',(1.29698951474901E-15,-1.,0.));
#2021=DIRECTION('',(0.,0.,1.));
#2022=DIRECTION('',(1.,0.,0.));
#2023=DIRECTION('',(1.29698951474901E-15,-1.,0.));
#2024=DIRECTION('',(1.29698951474901E-15,-1.,0.));
#2025=DIRECTION('',(0.999999999999999,2.23835287222814E-15,0.));
#2026=DIRECTION('',(1.29698951474901E-15,-1.,0.));
#2027=DIRECTION('',(1.,1.29698951474901E-15,0.));
#2028=DIRECTION('',(-1.29757316003065E-15,1.,0.));
#2029=DIRECTION('',(0.,0.,1.));
#2030=DIRECTION('',(1.,0.,0.));
#2031=DIRECTION('',(-0.707106781186547,-0.707106781186548,0.));
#2032=DIRECTION('',(0.,0.,-1.));
#2033=DIRECTION('',(0.707106781186547,0.707106781186548,0.));
#2034=DIRECTION('',(0.,0.,-1.));
#2035=CARTESIAN_POINT('',(0.,0.,0.));
#2036=CARTESIAN_POINT('',(-57.9999999999999,-54.,4.99999999999997));
#2037=CARTESIAN_POINT('',(-54.8999999999999,-54.,4.99999999999999));
#2038=CARTESIAN_POINT('',(-61.0999999999999,-54.,4.99999999999997));
#2039=CARTESIAN_POINT('',(-61.0999999999999,-54.,4.99999999999999));
#2040=CARTESIAN_POINT('',(-64.8999999999999,-54.,4.99999999999999));
#2041=CARTESIAN_POINT('',(-67.9999999999999,-54.,4.99999999999998));
#2042=CARTESIAN_POINT('',(-71.0999999999999,-54.,4.99999999999998));
#2043=CARTESIAN_POINT('',(-71.0999999999999,-54.,4.99999999999999));
#2044=CARTESIAN_POINT('',(-74.8999999999999,-54.,4.99999999999999));
#2045=CARTESIAN_POINT('',(-77.9999999999999,-54.,4.99999999999998));
#2046=CARTESIAN_POINT('',(-81.0999999999999,-54.,4.99999999999998));
#2047=CARTESIAN_POINT('',(-81.0999999999999,-54.0000000000001,4.99999999999999));
#2048=CARTESIAN_POINT('',(-84.8999999999999,-54.0000000000001,4.99999999999999));
#2049=CARTESIAN_POINT('',(-87.9999999999999,-54.,4.99999999999998));
#2050=CARTESIAN_POINT('',(-91.0999999999999,-54.,4.99999999999998));
#2051=CARTESIAN_POINT('',(-91.0999999999999,-54.0000000000001,4.99999999999999));
#2052=CARTESIAN_POINT('',(-94.8999999999999,-54.0000000000001,4.99999999999999));
#2053=CARTESIAN_POINT('',(-97.9999999999999,-54.,4.99999999999998));
#2054=CARTESIAN_POINT('',(-101.1,-54.0000000000001,4.99999999999999));
#2055=CARTESIAN_POINT('',(-101.1,-54.0000000000001,4.99999999999999));
#2056=CARTESIAN_POINT('',(-105.,-54.0000000000001,4.99999999999999));
#2057=CARTESIAN_POINT('',(-105.,-54.0000000000001,5.));
#2058=CARTESIAN_POINT('',(-105.,-54.0000000000001,4.5));
#2059=CARTESIAN_POINT('',(-38.9999999999999,-54.0000000000001,4.5));
#2060=CARTESIAN_POINT('',(-107.02,-54.0000000000001,4.5));
#2061=CARTESIAN_POINT('',(-107.02,-54.0000000000001,4.5));
#2062=CARTESIAN_POINT('',(-107.02,-54.0000000000001,0.));
#2063=CARTESIAN_POINT('',(-38.9999999999999,-54.0000000000001,0.));
#2064=CARTESIAN_POINT('',(-48.6,-54.0000000000001,0.));
#2065=CARTESIAN_POINT('',(-48.6,-54.0000000000001,1.));
#2066=CARTESIAN_POINT('',(-48.6,-54.0000000000001,1.));
#2067=CARTESIAN_POINT('',(-48.6,-54.0000000000001,1.));
#2068=CARTESIAN_POINT('',(-39.,-54.0000000000001,1.));
#2069=CARTESIAN_POINT('',(-39.,-54.,4.5));
#2070=CARTESIAN_POINT('',(-39.,-54.,4.5));
#2071=CARTESIAN_POINT('',(-38.9999999999999,-54.0000000000001,4.5));
#2072=CARTESIAN_POINT('',(-51.,-54.0000000000001,4.5));
#2073=CARTESIAN_POINT('',(-51.,-54.,-9.76996261670138E-15));
#2074=CARTESIAN_POINT('',(-51.,-54.,4.99999999999999));
#2075=CARTESIAN_POINT('',(-50.9999999999999,-54.,4.99999999999999));
#2076=CARTESIAN_POINT('',(-38.9999999999999,-54.0000000000001,4.5));
#2077=CARTESIAN_POINT('',(-58.0000000000001,54.,4.99999999999997));
#2078=CARTESIAN_POINT('',(-54.9000000000001,54.,4.99999999999999));
#2079=CARTESIAN_POINT('',(-61.1000000000001,54.,4.99999999999997));
#2080=CARTESIAN_POINT('',(-51.0000000000001,54.,4.99999999999999));
#2081=CARTESIAN_POINT('',(-51.0000000000001,54.,4.99999999999999));
#2082=CARTESIAN_POINT('',(-51.0000000000001,54.,-9.76996261670138E-15));
#2083=CARTESIAN_POINT('',(-51.,54.,4.5));
#2084=CARTESIAN_POINT('',(-117.,53.9999999999999,4.5));
#2085=CARTESIAN_POINT('',(-48.98,54.,4.5));
#2086=CARTESIAN_POINT('',(-48.98,54.,4.5));
#2087=CARTESIAN_POINT('',(-48.98,54.,0.));
#2088=CARTESIAN_POINT('',(-117.,53.9999999999999,0.));
#2089=CARTESIAN_POINT('',(-107.4,54.,0.));
#2090=CARTESIAN_POINT('',(-107.4,54.,1.));
#2091=CARTESIAN_POINT('',(-107.4,54.,1.));
#2092=CARTESIAN_POINT('',(-117.,54.,1.));
#2093=CARTESIAN_POINT('',(-117.,54.,1.));
#2094=CARTESIAN_POINT('',(-117.,53.9999999999999,4.5));
#2095=CARTESIAN_POINT('',(-117.,53.9999999999999,4.5));
#2096=CARTESIAN_POINT('',(-117.,53.9999999999999,4.5));
#2097=CARTESIAN_POINT('',(-105.,53.9999999999999,4.5));
#2098=CARTESIAN_POINT('',(-105.,53.9999999999999,5.));
#2099=CARTESIAN_POINT('',(-105.,53.9999999999999,4.99999999999999));
#2100=CARTESIAN_POINT('',(-101.1,53.9999999999999,4.99999999999999));
#2101=CARTESIAN_POINT('',(-101.1,53.9999999999999,4.99999999999999));
#2102=CARTESIAN_POINT('',(-98.0000000000001,54.,4.99999999999998));
#2103=CARTESIAN_POINT('',(-94.9000000000001,53.9999999999999,4.99999999999999));
#2104=CARTESIAN_POINT('',(-91.1000000000001,53.9999999999999,4.99999999999999));
#2105=CARTESIAN_POINT('',(-91.1000000000001,54.,4.99999999999998));
#2106=CARTESIAN_POINT('',(-88.0000000000001,54.,4.99999999999998));
#2107=CARTESIAN_POINT('',(-84.9000000000001,53.9999999999999,4.99999999999999));
#2108=CARTESIAN_POINT('',(-81.1000000000001,53.9999999999999,4.99999999999999));
#2109=CARTESIAN_POINT('',(-81.1000000000001,54.,4.99999999999998));
#2110=CARTESIAN_POINT('',(-78.0000000000001,54.,4.99999999999998));
#2111=CARTESIAN_POINT('',(-74.9000000000001,54.,4.99999999999999));
#2112=CARTESIAN_POINT('',(-71.1000000000001,54.,4.99999999999999));
#2113=CARTESIAN_POINT('',(-71.1000000000001,54.,4.99999999999998));
#2114=CARTESIAN_POINT('',(-68.0000000000001,54.,4.99999999999998));
#2115=CARTESIAN_POINT('',(-64.9000000000001,54.,4.99999999999999));
#2116=CARTESIAN_POINT('',(-61.1000000000001,54.,4.99999999999999));
#2117=CARTESIAN_POINT('',(-117.,53.9999999999999,4.5));
#2118=CARTESIAN_POINT('',(-39.,53.,4.5));
#2119=CARTESIAN_POINT('',(-39.,50.,4.5));
#2120=CARTESIAN_POINT('',(-45.49,56.49,4.5));
#2121=CARTESIAN_POINT('',(-42.,53.,4.5));
#2122=CARTESIAN_POINT('',(-48.23,53.,4.5));
#2123=CARTESIAN_POINT('',(-48.23,53.,4.5));
#2124=CARTESIAN_POINT('',(-48.23,53.75,4.5));
#2125=CARTESIAN_POINT('',(-48.98,53.75,4.5));
#2126=CARTESIAN_POINT('',(-48.98,54.,4.5));
#2127=CARTESIAN_POINT('',(-51.0000000000001,53.75,4.5));
#2128=CARTESIAN_POINT('',(-43.5,5.15520907374865E-14,4.5));
#2129=CARTESIAN_POINT('',(-46.6,5.15520907374865E-14,4.5));
#2130=CARTESIAN_POINT('',(-48.,35.,4.5));
#2131=CARTESIAN_POINT('',(-50.,35.,4.5));
#2132=CARTESIAN_POINT('',(-48.,-35.,4.5));
#2133=CARTESIAN_POINT('',(-50.,-35.,4.5));
#2134=CARTESIAN_POINT('',(-40.2499999999999,-48.5,4.5));
#2135=CARTESIAN_POINT('',(-40.2499999999999,-48.5,4.5));
#2136=CARTESIAN_POINT('',(-40.2499999999999,-46.5,4.5));
#2137=CARTESIAN_POINT('',(-44.,-48.5,4.5));
#2138=CARTESIAN_POINT('',(-47.7499999999999,-48.5,4.5));
#2139=CARTESIAN_POINT('',(-47.7499999999999,-46.5,4.5));
#2140=CARTESIAN_POINT('',(-47.75,-46.5,4.5));
#2141=CARTESIAN_POINT('',(-44.,-46.5,4.5));
#2142=CARTESIAN_POINT('',(-44.,47.5,4.5));
#2143=CARTESIAN_POINT('',(-39.5,47.5,4.5));
#2144=CARTESIAN_POINT('',(-48.23,53.75,4.5));
#2145=CARTESIAN_POINT('',(-117.,-53.0000000000001,4.5));
#2146=CARTESIAN_POINT('',(-117.,-50.0000000000001,4.5));
#2147=CARTESIAN_POINT('',(-134.49,-32.5100000000001,4.5));
#2148=CARTESIAN_POINT('',(-114.,-53.0000000000001,4.5));
#2149=CARTESIAN_POINT('',(-107.77,-53.0000000000001,4.5));
#2150=CARTESIAN_POINT('',(-107.77,-53.,4.5));
#2151=CARTESIAN_POINT('',(-107.77,-53.75,4.5));
#2152=CARTESIAN_POINT('',(-107.02,-53.7500000000001,4.5));
#2153=CARTESIAN_POINT('',(-107.02,-54.0000000000001,4.5));
#2154=CARTESIAN_POINT('',(-105.,53.75,4.5));
#2155=CARTESIAN_POINT('',(-112.,-47.5,4.5));
#2156=CARTESIAN_POINT('',(-107.5,-47.5,4.5));
#2157=CARTESIAN_POINT('',(-108.25,46.4999999999999,4.5));
#2158=CARTESIAN_POINT('',(-108.25,46.4999999999999,4.5));
#2159=CARTESIAN_POINT('',(-108.25,48.4999999999999,4.5));
#2160=CARTESIAN_POINT('',(-112.,46.5000000000001,4.5));
#2161=CARTESIAN_POINT('',(-115.75,46.4999999999999,4.5));
#2162=CARTESIAN_POINT('',(-115.75,48.4999999999999,4.5));
#2163=CARTESIAN_POINT('',(-115.75,48.5,4.5));
#2164=CARTESIAN_POINT('',(-112.,48.5,4.5));
#2165=CARTESIAN_POINT('',(-108.,-34.9999999999999,4.5));
#2166=CARTESIAN_POINT('',(-106.,-34.9999999999999,4.5));
#2167=CARTESIAN_POINT('',(-112.5,5.15520907374865E-14,4.5));
#2168=CARTESIAN_POINT('',(-109.4,5.15520907374865E-14,4.5));
#2169=CARTESIAN_POINT('',(-108.,35.0000000000001,4.5));
#2170=CARTESIAN_POINT('',(-106.,35.0000000000001,4.5));
#2171=CARTESIAN_POINT('',(-48.23,53.75,4.5));
#2172=CARTESIAN_POINT('',(-44.,47.5,7.5));
#2173=CARTESIAN_POINT('',(-47.1,47.5,7.5));
#2174=CARTESIAN_POINT('',(-44.,47.5,6.));
#2175=CARTESIAN_POINT('',(-47.1,47.5,6.));
#2176=CARTESIAN_POINT('',(-44.,47.5,7.5));
#2177=CARTESIAN_POINT('',(-112.,-47.5,7.5));
#2178=CARTESIAN_POINT('',(-115.1,-47.5,7.5));
#2179=CARTESIAN_POINT('',(-112.,-47.5,6.));
#2180=CARTESIAN_POINT('',(-115.1,-47.5,6.));
#2181=CARTESIAN_POINT('',(-112.,-47.5,7.5));
#2182=CARTESIAN_POINT('',(-117.,-53.0000000000001,1.));
#2183=CARTESIAN_POINT('',(-117.,-50.0000000000001,1.));
#2184=CARTESIAN_POINT('',(-117.,-43.4000000000001,1.));
#2185=CARTESIAN_POINT('',(-117.,-50.0000000000001,4.5));
#2186=CARTESIAN_POINT('',(-117.,42.,1.));
#2187=CARTESIAN_POINT('',(-117.,42.,1.));
#2188=CARTESIAN_POINT('',(-117.,42.,1.));
#2189=CARTESIAN_POINT('',(-117.,42.,0.));
#2190=CARTESIAN_POINT('',(-117.,-53.0000000000001,0.));
#2191=CARTESIAN_POINT('',(-117.,4.0999999999999,0.));
#2192=CARTESIAN_POINT('',(-117.,4.0999999999999,3.));
#2193=CARTESIAN_POINT('',(-117.,4.0999999999999,3.));
#2194=CARTESIAN_POINT('',(-117.,-4.1000000000001,3.));
#2195=CARTESIAN_POINT('',(-117.,-4.1000000000001,3.));
#2196=CARTESIAN_POINT('',(-117.,-4.1000000000001,3.));
#2197=CARTESIAN_POINT('',(-117.,-4.1000000000001,0.));
#2198=CARTESIAN_POINT('',(-117.,-53.0000000000001,0.));
#2199=CARTESIAN_POINT('',(-117.,-43.4000000000001,0.));
#2200=CARTESIAN_POINT('',(-117.,-43.4000000000001,1.));
#2201=CARTESIAN_POINT('',(-117.,-53.0000000000001,4.5));
#2202=CARTESIAN_POINT('',(-39.,43.4,1.));
#2203=CARTESIAN_POINT('',(-39.,43.4,1.));
#2204=CARTESIAN_POINT('',(-39.,50.,1.));
#2205=CARTESIAN_POINT('',(-39.,50.,4.5));
#2206=CARTESIAN_POINT('',(-39.,-54.0000000000001,1.));
#2207=CARTESIAN_POINT('',(-39.,-42.0000000000001,1.));
#2208=CARTESIAN_POINT('',(-39.,-42.0000000000001,1.));
#2209=CARTESIAN_POINT('',(-39.,-42.0000000000001,0.));
#2210=CARTESIAN_POINT('',(-39.,53.,0.));
#2211=CARTESIAN_POINT('',(-39.,-4.1,0.));
#2212=CARTESIAN_POINT('',(-39.,-4.1,3.));
#2213=CARTESIAN_POINT('',(-39.,-4.1,3.));
#2214=CARTESIAN_POINT('',(-39.,4.1,3.));
#2215=CARTESIAN_POINT('',(-39.,4.1,3.));
#2216=CARTESIAN_POINT('',(-39.,4.1,3.));
#2217=CARTESIAN_POINT('',(-39.,4.1,0.));
#2218=CARTESIAN_POINT('',(-39.,53.,0.));
#2219=CARTESIAN_POINT('',(-39.,43.4,0.));
#2220=CARTESIAN_POINT('',(-39.,43.4,1.));
#2221=CARTESIAN_POINT('',(-39.,53.,4.5));
#2222=CARTESIAN_POINT('',(-48.98,54.,0.));
#2223=CARTESIAN_POINT('',(-48.98,53.75,0.));
#2224=CARTESIAN_POINT('',(-48.23,53.75,0.));
#2225=CARTESIAN_POINT('',(-48.23,53.,0.));
#2226=CARTESIAN_POINT('',(-48.23,53.,0.));
#2227=CARTESIAN_POINT('',(-48.1,53.,0.));
#2228=CARTESIAN_POINT('',(-48.1,53.0072261083207,0.));
#2229=CARTESIAN_POINT('',(-48.1,47.5,0.));
#2230=CARTESIAN_POINT('',(-44.,47.5,0.));
#2231=CARTESIAN_POINT('',(-44.,43.4,0.));
#2232=CARTESIAN_POINT('',(-44.,43.4,0.));
#2233=CARTESIAN_POINT('',(-43.5,4.09999999999999,0.));
#2234=CARTESIAN_POINT('',(-43.5,4.10000000000005,0.));
#2235=CARTESIAN_POINT('',(-43.5,5.05945233787473E-14,0.));
#2236=CARTESIAN_POINT('',(-43.5,-4.09999999999995,0.));
#2237=CARTESIAN_POINT('',(-39.,-4.1,0.));
#2238=CARTESIAN_POINT('',(-39.,-42.0000000000001,0.));
#2239=CARTESIAN_POINT('',(-44.4577688631879,-42.0000000000001,0.));
#2240=CARTESIAN_POINT('',(-44.4577688631879,-46.1422311368121,0.));
#2241=CARTESIAN_POINT('',(-48.6,-46.1422311368121,0.));
#2242=CARTESIAN_POINT('',(-48.6,-46.1422311368121,0.));
#2243=CARTESIAN_POINT('',(-107.02,-54.0000000000001,0.));
#2244=CARTESIAN_POINT('',(-107.02,-53.7500000000001,0.));
#2245=CARTESIAN_POINT('',(-107.77,-53.75,0.));
#2246=CARTESIAN_POINT('',(-107.77,-53.,0.));
#2247=CARTESIAN_POINT('',(-48.23,-53.,0.));
#2248=CARTESIAN_POINT('',(-107.9,-53.,0.));
#2249=CARTESIAN_POINT('',(-107.9,-47.5000000000001,0.));
#2250=CARTESIAN_POINT('',(-107.9,-47.5000000000001,0.));
#2251=CARTESIAN_POINT('',(-112.,-47.5,0.));
#2252=CARTESIAN_POINT('',(-112.,-43.4,0.));
#2253=CARTESIAN_POINT('',(-117.,-43.4000000000001,0.));
#2254=CARTESIAN_POINT('',(-112.5,-4.10000000000009,0.));
#2255=CARTESIAN_POINT('',(-112.5,-4.09999999999995,0.));
#2256=CARTESIAN_POINT('',(-112.5,5.05945233787473E-14,0.));
#2257=CARTESIAN_POINT('',(-112.5,4.10000000000005,0.));
#2258=CARTESIAN_POINT('',(-117.,4.0999999999999,0.));
#2259=CARTESIAN_POINT('',(-111.542231136812,42.,0.));
#2260=CARTESIAN_POINT('',(-111.542231136812,42.0000000000001,0.));
#2261=CARTESIAN_POINT('',(-111.542231136812,46.1422311368122,0.));
#2262=CARTESIAN_POINT('',(-107.4,46.1422311368122,0.));
#2263=CARTESIAN_POINT('',(-107.4,54.,0.));
#2264=CARTESIAN_POINT('',(-108.,-34.9999999999999,0.));
#2265=CARTESIAN_POINT('',(-106.,-34.9999999999999,0.));
#2266=CARTESIAN_POINT('',(-108.,35.0000000000001,0.));
#2267=CARTESIAN_POINT('',(-106.,35.0000000000001,0.));
#2268=CARTESIAN_POINT('',(-48.,35.,0.));
#2269=CARTESIAN_POINT('',(-50.,35.,0.));
#2270=CARTESIAN_POINT('',(-48.,-35.,0.));
#2271=CARTESIAN_POINT('',(-50.,-35.,0.));
#2272=CARTESIAN_POINT('',(-48.23,53.75,0.));
#2273=CARTESIAN_POINT('',(-108.25,48.4999999999999,4.5));
#2274=CARTESIAN_POINT('',(-108.25,48.4999999999999,1.));
#2275=CARTESIAN_POINT('',(-108.25,46.4999999999999,1.));
#2276=CARTESIAN_POINT('',(-108.25,46.4999999999999,1.));
#2277=CARTESIAN_POINT('',(-108.25,46.4999999999999,4.5));
#2278=CARTESIAN_POINT('',(-108.25,46.4999999999999,4.5));
#2279=CARTESIAN_POINT('',(-115.75,48.5,4.5));
#2280=CARTESIAN_POINT('',(-115.75,48.5,1.));
#2281=CARTESIAN_POINT('',(-112.,48.5,1.));
#2282=CARTESIAN_POINT('',(-112.,48.5,4.5));
#2283=CARTESIAN_POINT('',(-115.75,46.4999999999999,4.5));
#2284=CARTESIAN_POINT('',(-115.75,46.4999999999999,1.));
#2285=CARTESIAN_POINT('',(-115.75,48.4999999999999,1.));
#2286=CARTESIAN_POINT('',(-115.75,48.4999999999999,4.5));
#2287=CARTESIAN_POINT('',(-42.,53.,4.5));
#2288=CARTESIAN_POINT('',(-42.,53.,1.));
#2289=CARTESIAN_POINT('',(-48.23,53.,1.));
#2290=CARTESIAN_POINT('',(-48.1,53.,1.));
#2291=CARTESIAN_POINT('',(-48.1,53.,4.5));
#2292=CARTESIAN_POINT('',(-48.23,53.,4.5));
#2293=CARTESIAN_POINT('',(-48.23,53.,4.5));
#2294=CARTESIAN_POINT('',(-112.,46.5000000000001,1.));
#2295=CARTESIAN_POINT('',(-112.,46.5000000000001,4.5));
#2296=CARTESIAN_POINT('',(-114.,-53.0000000000001,4.5));
#2297=CARTESIAN_POINT('',(-114.,-53.0000000000001,1.));
#2298=CARTESIAN_POINT('',(-112.,-53.0000000000001,1.));
#2299=CARTESIAN_POINT('',(-107.9,-53.0000000000001,1.));
#2300=CARTESIAN_POINT('',(-107.9,-53.0000000000001,4.5));
#2301=CARTESIAN_POINT('',(-107.77,-53.,4.5));
#2302=CARTESIAN_POINT('',(-107.77,-53.0000000000001,4.5));
#2303=CARTESIAN_POINT('',(-112.5,5.15520907374865E-14,3.));
#2304=CARTESIAN_POINT('',(-115.6,5.15520907374865E-14,3.));
#2305=CARTESIAN_POINT('',(-112.5,5.15520907374865E-14,4.5));
#2306=CARTESIAN_POINT('',(-43.5,5.15520907374865E-14,3.));
#2307=CARTESIAN_POINT('',(-46.6,5.15520907374865E-14,3.));
#2308=CARTESIAN_POINT('',(-43.5,5.15520907374865E-14,4.5));
#2309=CARTESIAN_POINT('',(-40.2499999999999,-48.5,1.));
#2310=CARTESIAN_POINT('',(-40.25,-46.5,1.));
#2311=CARTESIAN_POINT('',(-40.25,-48.5,1.));
#2312=CARTESIAN_POINT('',(-40.2499999999999,-48.5,4.5));
#2313=CARTESIAN_POINT('',(-40.2499999999999,-46.5,4.5));
#2314=CARTESIAN_POINT('',(-40.2499999999999,-48.5,4.5));
#2315=CARTESIAN_POINT('',(-44.,-46.5,1.));
#2316=CARTESIAN_POINT('',(-47.7499999999999,-46.5,1.));
#2317=CARTESIAN_POINT('',(-47.75,-46.5,4.5));
#2318=CARTESIAN_POINT('',(-44.,-46.5,4.5));
#2319=CARTESIAN_POINT('',(-47.7499999999999,-46.5,1.));
#2320=CARTESIAN_POINT('',(-47.7499999999999,-48.5,1.));
#2321=CARTESIAN_POINT('',(-47.7499999999999,-48.5,4.5));
#2322=CARTESIAN_POINT('',(-47.7499999999999,-46.5,4.5));
#2323=CARTESIAN_POINT('',(-48.98,53.75,4.5));
#2324=CARTESIAN_POINT('',(-48.98,54.,4.5));
#2325=CARTESIAN_POINT('',(-48.23,53.75,4.5));
#2326=CARTESIAN_POINT('',(-107.02,-53.7500000000001,4.5));
#2327=CARTESIAN_POINT('',(-107.02,-54.0000000000001,4.5));
#2328=CARTESIAN_POINT('',(-107.77,-53.75,4.5));
#2329=CARTESIAN_POINT('',(-48.,35.,4.5));
#2330=CARTESIAN_POINT('',(-48.,-35.,4.5));
#2331=CARTESIAN_POINT('',(-108.,35.0000000000001,4.5));
#2332=CARTESIAN_POINT('',(-108.,-34.9999999999999,4.5));
#2333=CARTESIAN_POINT('',(-44.,-48.5,1.));
#2334=CARTESIAN_POINT('',(-44.,-48.5,4.5));
#2335=CARTESIAN_POINT('',(-39.,-4.1,3.));
#2336=CARTESIAN_POINT('',(-43.5,-4.1,3.));
#2337=CARTESIAN_POINT('',(-43.5,5.05945233787473E-14,3.));
#2338=CARTESIAN_POINT('',(-43.5,4.10000000000005,3.));
#2339=CARTESIAN_POINT('',(-43.5,4.09999999999999,3.));
#2340=CARTESIAN_POINT('',(-43.5,5.05945233787473E-14,3.));
#2341=CARTESIAN_POINT('',(-43.5,-4.1,3.));
#2342=CARTESIAN_POINT('',(-39.,-4.1,3.));
#2343=CARTESIAN_POINT('',(-43.5,4.10000000000005,3.));
#2344=CARTESIAN_POINT('',(-43.5,5.05945233787473E-14,3.));
#2345=CARTESIAN_POINT('',(-43.5,4.09999999999999,3.));
#2346=CARTESIAN_POINT('',(-112.5,-4.09999999999995,3.));
#2347=CARTESIAN_POINT('',(-112.5,-4.09999999999995,3.));
#2348=CARTESIAN_POINT('',(-112.5,5.05945233787473E-14,3.));
#2349=CARTESIAN_POINT('',(-112.5,4.10000000000005,3.));
#2350=CARTESIAN_POINT('',(-112.5,4.10000000000005,3.));
#2351=CARTESIAN_POINT('',(-112.5,5.05945233787473E-14,3.));
#2352=CARTESIAN_POINT('',(-112.5,-4.10000000000009,3.));
#2353=CARTESIAN_POINT('',(-112.5,-4.10000000000009,3.));
#2354=CARTESIAN_POINT('',(-117.,4.0999999999999,3.));
#2355=CARTESIAN_POINT('',(-117.,4.0999999999999,3.));
#2356=CARTESIAN_POINT('',(-112.5,5.05945233787473E-14,3.));
#2357=CARTESIAN_POINT('',(-39.,-42.0000000000001,1.));
#2358=CARTESIAN_POINT('',(-44.4577688631879,-42.0000000000001,1.));
#2359=CARTESIAN_POINT('',(-44.4577688631879,-42.0000000000001,1.));
#2360=CARTESIAN_POINT('',(-39.,-42.0000000000001,1.));
#2361=CARTESIAN_POINT('',(-44.4577688631879,-46.1422311368121,1.));
#2362=CARTESIAN_POINT('',(-48.6,-46.1422311368121,1.));
#2363=CARTESIAN_POINT('',(-48.6,-46.1422311368121,1.));
#2364=CARTESIAN_POINT('',(-44.4577688631879,-46.1422311368121,1.));
#2365=CARTESIAN_POINT('',(-48.6,-46.1422311368121,1.));
#2366=CARTESIAN_POINT('',(-48.6,-46.1422311368121,1.));
#2367=CARTESIAN_POINT('',(-44.4577688631879,-46.1422311368121,1.));
#2368=CARTESIAN_POINT('',(-107.4,46.142231136812,1.));
#2369=CARTESIAN_POINT('',(-107.4,46.142231136812,1.));
#2370=CARTESIAN_POINT('',(-107.4,54.,1.));
#2371=CARTESIAN_POINT('',(-107.4,54.,1.));
#2372=CARTESIAN_POINT('',(-111.542231136812,42.0000000000001,1.));
#2373=CARTESIAN_POINT('',(-111.542231136812,42.0000000000001,1.));
#2374=CARTESIAN_POINT('',(-111.542231136812,46.1422311368122,1.));
#2375=CARTESIAN_POINT('',(-111.542231136812,46.1422311368122,1.));
#2376=CARTESIAN_POINT('',(-111.542231136812,42.,1.));
#2377=CARTESIAN_POINT('',(-111.542231136812,42.,1.));
#2378=CARTESIAN_POINT('',(-111.542231136812,46.1422311368122,1.));
#2379=CARTESIAN_POINT('',(-44.,47.5,1.));
#2380=CARTESIAN_POINT('',(-40.4,47.5,1.));
#2381=CARTESIAN_POINT('',(-42.,53.,1.));
#2382=CARTESIAN_POINT('',(-44.,43.4,1.));
#2383=CARTESIAN_POINT('',(-44.,43.4,1.));
#2384=CARTESIAN_POINT('',(-44.,47.5,1.));
#2385=CARTESIAN_POINT('',(-48.1,47.5,1.));
#2386=CARTESIAN_POINT('',(-48.1,53.0072261083207,1.));
#2387=CARTESIAN_POINT('',(-44.,47.5,1.));
#2388=CARTESIAN_POINT('',(-48.1,47.5,1.));
#2389=CARTESIAN_POINT('',(-48.1,53.0072261083207,1.));
#2390=CARTESIAN_POINT('',(-44.,43.4,1.));
#2391=CARTESIAN_POINT('',(-44.,47.5,1.));
#2392=CARTESIAN_POINT('',(-44.,43.4,1.));
#2393=CARTESIAN_POINT('',(-112.,-47.4999999999999,1.));
#2394=CARTESIAN_POINT('',(-115.6,-47.4999999999999,1.));
#2395=CARTESIAN_POINT('',(-115.75,-51.25,1.));
#2396=CARTESIAN_POINT('',(-117.,-43.4000000000001,1.));
#2397=CARTESIAN_POINT('',(-112.,-43.4000000000001,1.));
#2398=CARTESIAN_POINT('',(-112.,-47.5,1.));
#2399=CARTESIAN_POINT('',(-107.9,-47.5000000000001,1.));
#2400=CARTESIAN_POINT('',(-107.9,-47.5000000000001,1.));
#2401=CARTESIAN_POINT('',(-112.,-47.5,1.));
#2402=CARTESIAN_POINT('',(-107.9,-47.5000000000001,1.));
#2403=CARTESIAN_POINT('',(-107.9,-47.5000000000001,1.));
#2404=CARTESIAN_POINT('',(-112.,-43.4000000000001,1.));
#2405=CARTESIAN_POINT('',(-117.,-43.4000000000001,1.));
#2406=CARTESIAN_POINT('',(-112.,-47.5,1.));
#2407=CARTESIAN_POINT('',(-44.,47.5,7.5));
#2408=CARTESIAN_POINT('',(-48.5,47.5,7.5));
#2409=CARTESIAN_POINT('',(-44.,47.5,7.5));
#2410=CARTESIAN_POINT('',(-44.,47.5,7.5));
#2411=CARTESIAN_POINT('',(-112.,-47.5,7.5));
#2412=CARTESIAN_POINT('',(-116.5,-47.5,7.5));
#2413=CARTESIAN_POINT('',(-112.,-47.5,7.5));
#2414=CARTESIAN_POINT('',(-112.,-47.5,7.5));
#2415=CARTESIAN_POINT('',(-112.,-47.4999999999999,6.));
#2416=CARTESIAN_POINT('',(-108.4,-47.4999999999999,6.));
#2417=CARTESIAN_POINT('',(-112.,-47.4999999999999,6.));
#2418=CARTESIAN_POINT('',(-112.,-47.4999999999999,6.));
#2419=CARTESIAN_POINT('',(-44.,47.5,6.));
#2420=CARTESIAN_POINT('',(-47.6,47.5,6.));
#2421=CARTESIAN_POINT('',(-44.,47.5,6.));
#2422=CARTESIAN_POINT('',(-44.,47.5,6.));
#2423=CARTESIAN_POINT('',(-91.1000000000001,54.,4.99999999999998));
#2424=CARTESIAN_POINT('',(-94.9000000000001,53.9999999999999,4.99999999999999));
#2425=CARTESIAN_POINT('',(-91.1000000000001,53.9999999999999,4.99999999999999));
#2426=CARTESIAN_POINT('',(-84.9000000000001,53.9999999999999,4.99999999999999));
#2427=CARTESIAN_POINT('',(-88.0000000000001,54.,4.99999999999998));
#2428=CARTESIAN_POINT('',(-101.1,53.9999999999999,4.99999999999999));
#2429=CARTESIAN_POINT('',(-105.,53.9999999999999,4.99999999999999));
#2430=CARTESIAN_POINT('',(-101.1,53.9999999999999,4.99999999999999));
#2431=CARTESIAN_POINT('',(-98.0000000000001,54.,4.99999999999998));
#2432=CARTESIAN_POINT('',(-105.,53.9999999999999,5.));
#2433=CARTESIAN_POINT('',(-81.1000000000001,54.,4.99999999999998));
#2434=CARTESIAN_POINT('',(-81.1000000000001,53.9999999999999,4.99999999999999));
#2435=CARTESIAN_POINT('',(-74.9000000000001,54.,4.99999999999999));
#2436=CARTESIAN_POINT('',(-78.0000000000001,54.,4.99999999999998));
#2437=CARTESIAN_POINT('',(-71.1000000000001,54.,4.99999999999998));
#2438=CARTESIAN_POINT('',(-71.1000000000001,54.,4.99999999999999));
#2439=CARTESIAN_POINT('',(-64.9000000000001,54.,4.99999999999999));
#2440=CARTESIAN_POINT('',(-68.0000000000001,54.,4.99999999999998));
#2441=CARTESIAN_POINT('',(-61.1000000000001,54.,4.99999999999997));
#2442=CARTESIAN_POINT('',(-61.1000000000001,54.,4.99999999999999));
#2443=CARTESIAN_POINT('',(-54.9000000000001,54.,4.99999999999999));
#2444=CARTESIAN_POINT('',(-58.0000000000001,54.,4.99999999999997));
#2445=CARTESIAN_POINT('',(-51.0000000000001,54.,4.99999999999999));
#2446=CARTESIAN_POINT('',(-51.0000000000001,54.,-9.76996261670138E-15));
#2447=CARTESIAN_POINT('',(-51.0000000000001,54.,4.99999999999999));
#2448=CARTESIAN_POINT('',(-42.,53.,4.5));
#2449=CARTESIAN_POINT('',(-114.,-53.0000000000001,4.5));
#2450=MECHANICAL_DESIGN_GEOMETRIC_PRESENTATION_REPRESENTATION('',(#32),
#2451);
#2451=(
GEOMETRIC_REPRESENTATION_CONTEXT(3)
GLOBAL_UNCERTAINTY_ASSIGNED_CONTEXT((#2452))
GLOBAL_UNIT_ASSIGNED_CONTEXT((#2458,#2454,#2453))
REPRESENTATION_CONTEXT('RKSE-004-052','TOP_LEVEL_ASSEMBLY_PART')
);
#2452=UNCERTAINTY_MEASURE_WITH_UNIT(LENGTH_MEASURE(2.E-5),#2458,
'DISTANCE_ACCURACY_VALUE','Maximum Tolerance applied to model');
#2453=(
NAMED_UNIT(*)
SI_UNIT($,.STERADIAN.)
SOLID_ANGLE_UNIT()
);
#2454=(
CONVERSION_BASED_UNIT('DEGREE',#2456)
NAMED_UNIT(#2455)
PLANE_ANGLE_UNIT()
);
#2455=DIMENSIONAL_EXPONENTS(0.,0.,0.,0.,0.,0.,0.);
#2456=PLANE_ANGLE_MEASURE_WITH_UNIT(PLANE_ANGLE_MEASURE(0.0174532925),#2457);
#2457=(
NAMED_UNIT(*)
PLANE_ANGLE_UNIT()
SI_UNIT($,.RADIAN.)
);
#2458=(
LENGTH_UNIT()
NAMED_UNIT(*)
SI_UNIT(.MILLI.,.METRE.)
);
ENDSEC;
END-ISO-10303-21;
