ISO-10303-21;
HEADER;
/* Generated by software containing ST-Developer
 * from STEP Tools, Inc. (www.steptools.com) 
 */
/* OPTION: using custom schema-name function */

FILE_DESCRIPTION(
/* description */ (''),
/* implementation_level */ '2;1');

FILE_NAME(
/* name */ 'RKSE-004-053.stp',
/* time_stamp */ '2026-01-12T15:21:06+05:30',
/* author */ (''),
/* organization */ (''),
/* preprocessor_version */ 'ST-DEVELOPER v20',
/* originating_system */ 'SIEMENS PLM Software NX2506.4021',
/* authorisation */ '');

FILE_SCHEMA (('AUTOMOTIVE_DESIGN { 1 0 10303 214 3 1 1 1 }'));
ENDSEC;

DATA;
#10=PROPERTY_DEFINITION_REPRESENTATION(#14,#12);
#11=PROPERTY_DEFINITION_REPRESENTATION(#15,#13);
#12=REPRESENTATION('',(#16),#1487);
#13=REPRESENTATION('',(#17),#1487);
#14=PROPERTY_DEFINITION('pmi validation property','',#21);
#15=PROPERTY_DEFINITION('pmi validation property','',#21);
#16=VALUE_REPRESENTATION_ITEM('number of annotations',COUNT_MEASURE(0.));
#17=VALUE_REPRESENTATION_ITEM('number of views',COUNT_MEASURE(0.));
#18=SHAPE_REPRESENTATION_RELATIONSHIP('None',
'relationship between NAS PC Heat Plate_objects-None and NAS PC Heat P
late_objects-None',#30,#19);
#19=ADVANCED_BREP_SHAPE_REPRESENTATION('NAS PC Heat Plate_objects-None',
(#40),#1487);
#20=SHAPE_DEFINITION_REPRESENTATION(#21,#30);
#21=PRODUCT_DEFINITION_SHAPE('','',#22);
#22=PRODUCT_DEFINITION(' ','',#24,#23);
#23=PRODUCT_DEFINITION_CONTEXT('part definition',#29,'design');
#24=PRODUCT_DEFINITION_FORMATION_WITH_SPECIFIED_SOURCE(' ',' ',#26,
 .NOT_KNOWN.);
#25=PRODUCT_RELATED_PRODUCT_CATEGORY('part','',(#26));
#26=PRODUCT('NAS PC Heat Plate_objects','NAS PC Heat Plate_objects',' ',
(#27));
#27=PRODUCT_CONTEXT(' ',#29,'mechanical');
#28=APPLICATION_PROTOCOL_DEFINITION('international standard',
'automotive_design',2010,#29);
#29=APPLICATION_CONTEXT(
'core data for automotive mechanical design processes');
#30=SHAPE_REPRESENTATION('NAS PC Heat Plate_objects-None',(#894),#1487);
#31=PRESENTATION_LAYER_ASSIGNMENT('1','Layer 1',(#40));
#32=STYLED_ITEM('',(#33),#40);
#33=PRESENTATION_STYLE_ASSIGNMENT((#34));
#34=SURFACE_STYLE_USAGE(.BOTH.,#35);
#35=SURFACE_SIDE_STYLE('',(#36));
#36=SURFACE_STYLE_FILL_AREA(#37);
#37=FILL_AREA_STYLE('',(#38));
#38=FILL_AREA_STYLE_COLOUR('',#39);
#39=COLOUR_RGB('medium steel',0.611764705882353,0.658823529411765,0.670588235294118);
#40=MANIFOLD_SOLID_BREP('',#41);
#41=CLOSED_SHELL('',(#124,#125,#126,#127,#128,#129,#130,#131,#132,#133,
#134,#135,#136,#137,#138,#139,#140,#141,#142,#143,#144,#145,#146,#147,#148,
#149,#150,#151,#152,#153,#154,#155,#156,#157,#158,#159,#160,#161,#162,#163,
#164,#165,#166,#167));
#42=FACE_BOUND('',#240,.T.);
#43=FACE_BOUND('',#241,.T.);
#44=FACE_BOUND('',#242,.T.);
#45=FACE_BOUND('',#244,.T.);
#46=FACE_BOUND('',#245,.T.);
#47=FACE_BOUND('',#246,.T.);
#48=FACE_BOUND('',#247,.T.);
#49=FACE_BOUND('',#248,.T.);
#50=FACE_BOUND('',#250,.T.);
#51=FACE_BOUND('',#251,.T.);
#52=FACE_BOUND('',#252,.T.);
#53=FACE_BOUND('',#259,.T.);
#54=FACE_BOUND('',#260,.T.);
#55=FACE_BOUND('',#264,.T.);
#56=FACE_BOUND('',#265,.T.);
#57=FACE_BOUND('',#269,.T.);
#58=FACE_BOUND('',#270,.T.);
#59=FACE_BOUND('',#274,.T.);
#60=FACE_BOUND('',#275,.T.);
#61=CYLINDRICAL_SURFACE('',#902,3.1);
#62=CYLINDRICAL_SURFACE('',#906,3.1);
#63=CYLINDRICAL_SURFACE('',#910,3.1);
#64=CYLINDRICAL_SURFACE('',#914,3.1);
#65=CYLINDRICAL_SURFACE('',#954,3.1);
#66=CYLINDRICAL_SURFACE('',#958,5.);
#67=CYLINDRICAL_SURFACE('',#960,2.2);
#68=CYLINDRICAL_SURFACE('',#962,5.);
#69=CYLINDRICAL_SURFACE('',#964,2.2);
#70=CYLINDRICAL_SURFACE('',#965,5.);
#71=CYLINDRICAL_SURFACE('',#968,2.2);
#72=CYLINDRICAL_SURFACE('',#969,5.);
#73=CYLINDRICAL_SURFACE('',#972,2.2);
#74=CYLINDRICAL_SURFACE('',#973,2.);
#75=CYLINDRICAL_SURFACE('',#974,2.);
#76=CYLINDRICAL_SURFACE('',#975,2.);
#77=CYLINDRICAL_SURFACE('',#976,2.);
#78=CYLINDRICAL_SURFACE('',#977,2.);
#79=CYLINDRICAL_SURFACE('',#978,2.);
#80=CYLINDRICAL_SURFACE('',#979,2.);
#81=CYLINDRICAL_SURFACE('',#980,2.);
#82=CIRCLE('',#900,3.1);
#83=CIRCLE('',#901,3.1);
#84=CIRCLE('',#904,3.1);
#85=CIRCLE('',#905,3.1);
#86=CIRCLE('',#908,3.1);
#87=CIRCLE('',#909,3.1);
#88=CIRCLE('',#912,3.1);
#89=CIRCLE('',#913,3.1);
#90=CIRCLE('',#915,2.);
#91=CIRCLE('',#916,5.);
#92=CIRCLE('',#917,2.);
#93=CIRCLE('',#918,2.);
#94=CIRCLE('',#919,5.);
#95=CIRCLE('',#920,2.);
#96=CIRCLE('',#921,2.2);
#97=CIRCLE('',#922,2.2);
#98=CIRCLE('',#925,2.);
#99=CIRCLE('',#926,5.);
#100=CIRCLE('',#927,2.);
#101=CIRCLE('',#928,2.);
#102=CIRCLE('',#929,5.);
#103=CIRCLE('',#930,2.);
#104=CIRCLE('',#931,2.);
#105=CIRCLE('',#932,5.);
#106=CIRCLE('',#933,2.);
#107=CIRCLE('',#934,2.);
#108=CIRCLE('',#935,5.);
#109=CIRCLE('',#936,2.);
#110=CIRCLE('',#937,2.2);
#111=CIRCLE('',#938,2.2);
#112=CIRCLE('',#939,2.2);
#113=CIRCLE('',#940,2.2);
#114=CIRCLE('',#943,2.);
#115=CIRCLE('',#944,5.);
#116=CIRCLE('',#945,2.);
#117=CIRCLE('',#946,2.);
#118=CIRCLE('',#947,5.);
#119=CIRCLE('',#948,2.);
#120=CIRCLE('',#949,2.2);
#121=CIRCLE('',#950,2.2);
#122=CIRCLE('',#952,3.1);
#123=CIRCLE('',#953,3.1);
#124=ADVANCED_FACE('',(#191),#168,.F.);
#125=ADVANCED_FACE('',(#192),#169,.F.);
#126=ADVANCED_FACE('',(#193),#170,.F.);
#127=ADVANCED_FACE('',(#194),#171,.F.);
#128=ADVANCED_FACE('',(#195),#172,.F.);
#129=ADVANCED_FACE('',(#196),#61,.F.);
#130=ADVANCED_FACE('',(#197),#173,.F.);
#131=ADVANCED_FACE('',(#198),#62,.F.);
#132=ADVANCED_FACE('',(#199),#174,.F.);
#133=ADVANCED_FACE('',(#200),#63,.F.);
#134=ADVANCED_FACE('',(#201),#175,.F.);
#135=ADVANCED_FACE('',(#202),#64,.F.);
#136=ADVANCED_FACE('',(#42,#43,#44),#176,.F.);
#137=ADVANCED_FACE('',(#203),#177,.F.);
#138=ADVANCED_FACE('',(#45,#46,#47,#48,#49),#178,.F.);
#139=ADVANCED_FACE('',(#204),#179,.F.);
#140=ADVANCED_FACE('',(#50,#51,#52),#180,.F.);
#141=ADVANCED_FACE('',(#205),#65,.F.);
#142=ADVANCED_FACE('',(#206),#181,.F.);
#143=ADVANCED_FACE('',(#207),#182,.T.);
#144=ADVANCED_FACE('',(#208),#183,.T.);
#145=ADVANCED_FACE('',(#209),#66,.T.);
#146=ADVANCED_FACE('',(#210),#184,.T.);
#147=ADVANCED_FACE('',(#53,#54),#67,.F.);
#148=ADVANCED_FACE('',(#211),#185,.T.);
#149=ADVANCED_FACE('',(#212),#68,.T.);
#150=ADVANCED_FACE('',(#213),#186,.T.);
#151=ADVANCED_FACE('',(#55,#56),#69,.F.);
#152=ADVANCED_FACE('',(#214),#70,.T.);
#153=ADVANCED_FACE('',(#215),#187,.F.);
#154=ADVANCED_FACE('',(#216),#188,.F.);
#155=ADVANCED_FACE('',(#57,#58),#71,.F.);
#156=ADVANCED_FACE('',(#217),#72,.T.);
#157=ADVANCED_FACE('',(#218),#189,.F.);
#158=ADVANCED_FACE('',(#219),#190,.F.);
#159=ADVANCED_FACE('',(#59,#60),#73,.F.);
#160=ADVANCED_FACE('',(#220),#74,.F.);
#161=ADVANCED_FACE('',(#221),#75,.F.);
#162=ADVANCED_FACE('',(#222),#76,.F.);
#163=ADVANCED_FACE('',(#223),#77,.F.);
#164=ADVANCED_FACE('',(#224),#78,.F.);
#165=ADVANCED_FACE('',(#225),#79,.F.);
#166=ADVANCED_FACE('',(#226),#80,.F.);
#167=ADVANCED_FACE('',(#227),#81,.F.);
#168=PLANE('',#895);
#169=PLANE('',#896);
#170=PLANE('',#897);
#171=PLANE('',#898);
#172=PLANE('',#899);
#173=PLANE('',#903);
#174=PLANE('',#907);
#175=PLANE('',#911);
#176=PLANE('',#923);
#177=PLANE('',#924);
#178=PLANE('',#941);
#179=PLANE('',#942);
#180=PLANE('',#951);
#181=PLANE('',#955);
#182=PLANE('',#956);
#183=PLANE('',#957);
#184=PLANE('',#959);
#185=PLANE('',#961);
#186=PLANE('',#963);
#187=PLANE('',#966);
#188=PLANE('',#967);
#189=PLANE('',#970);
#190=PLANE('',#971);
#191=FACE_OUTER_BOUND('',#228,.T.);
#192=FACE_OUTER_BOUND('',#229,.T.);
#193=FACE_OUTER_BOUND('',#230,.T.);
#194=FACE_OUTER_BOUND('',#231,.T.);
#195=FACE_OUTER_BOUND('',#232,.T.);
#196=FACE_OUTER_BOUND('',#233,.T.);
#197=FACE_OUTER_BOUND('',#234,.T.);
#198=FACE_OUTER_BOUND('',#235,.T.);
#199=FACE_OUTER_BOUND('',#236,.T.);
#200=FACE_OUTER_BOUND('',#237,.T.);
#201=FACE_OUTER_BOUND('',#238,.T.);
#202=FACE_OUTER_BOUND('',#239,.T.);
#203=FACE_OUTER_BOUND('',#243,.T.);
#204=FACE_OUTER_BOUND('',#249,.T.);
#205=FACE_OUTER_BOUND('',#253,.T.);
#206=FACE_OUTER_BOUND('',#254,.T.);
#207=FACE_OUTER_BOUND('',#255,.T.);
#208=FACE_OUTER_BOUND('',#256,.T.);
#209=FACE_OUTER_BOUND('',#257,.T.);
#210=FACE_OUTER_BOUND('',#258,.T.);
#211=FACE_OUTER_BOUND('',#261,.T.);
#212=FACE_OUTER_BOUND('',#262,.T.);
#213=FACE_OUTER_BOUND('',#263,.T.);
#214=FACE_OUTER_BOUND('',#266,.T.);
#215=FACE_OUTER_BOUND('',#267,.T.);
#216=FACE_OUTER_BOUND('',#268,.T.);
#217=FACE_OUTER_BOUND('',#271,.T.);
#218=FACE_OUTER_BOUND('',#272,.T.);
#219=FACE_OUTER_BOUND('',#273,.T.);
#220=FACE_OUTER_BOUND('',#276,.T.);
#221=FACE_OUTER_BOUND('',#277,.T.);
#222=FACE_OUTER_BOUND('',#278,.T.);
#223=FACE_OUTER_BOUND('',#279,.T.);
#224=FACE_OUTER_BOUND('',#280,.T.);
#225=FACE_OUTER_BOUND('',#281,.T.);
#226=FACE_OUTER_BOUND('',#282,.T.);
#227=FACE_OUTER_BOUND('',#283,.T.);
#228=EDGE_LOOP('',(#284,#285,#286,#287));
#229=EDGE_LOOP('',(#288,#289,#290,#291));
#230=EDGE_LOOP('',(#292,#293,#294,#295));
#231=EDGE_LOOP('',(#296,#297,#298,#299));
#232=EDGE_LOOP('',(#300,#301,#302,#303));
#233=EDGE_LOOP('',(#304,#305,#306,#307));
#234=EDGE_LOOP('',(#308,#309,#310,#311));
#235=EDGE_LOOP('',(#312,#313,#314,#315));
#236=EDGE_LOOP('',(#316,#317,#318,#319));
#237=EDGE_LOOP('',(#320,#321,#322,#323));
#238=EDGE_LOOP('',(#324,#325,#326,#327));
#239=EDGE_LOOP('',(#328,#329,#330,#331));
#240=EDGE_LOOP('',(#332,#333,#334,#335,#336,#337,#338,#339,#340,#341,#342,
#343,#344,#345,#346,#347));
#241=EDGE_LOOP('',(#348));
#242=EDGE_LOOP('',(#349));
#243=EDGE_LOOP('',(#350,#351,#352,#353));
#244=EDGE_LOOP('',(#354,#355,#356,#357,#358,#359,#360,#361,#362,#363,#364,
#365,#366,#367,#368,#369,#370,#371,#372,#373,#374,#375,#376,#377,#378,#379,
#380,#381));
#245=EDGE_LOOP('',(#382));
#246=EDGE_LOOP('',(#383));
#247=EDGE_LOOP('',(#384));
#248=EDGE_LOOP('',(#385));
#249=EDGE_LOOP('',(#386,#387,#388,#389));
#250=EDGE_LOOP('',(#390,#391,#392,#393,#394,#395,#396,#397,#398,#399,#400,
#401,#402,#403,#404,#405));
#251=EDGE_LOOP('',(#406));
#252=EDGE_LOOP('',(#407));
#253=EDGE_LOOP('',(#408,#409,#410,#411));
#254=EDGE_LOOP('',(#412,#413,#414,#415,#416,#417,#418,#419,#420,#421,#422,
#423,#424,#425));
#255=EDGE_LOOP('',(#426,#427,#428,#429,#430,#431,#432,#433,#434,#435,#436,
#437,#438,#439));
#256=EDGE_LOOP('',(#440,#441,#442,#443));
#257=EDGE_LOOP('',(#444,#445,#446,#447));
#258=EDGE_LOOP('',(#448,#449,#450,#451));
#259=EDGE_LOOP('',(#452));
#260=EDGE_LOOP('',(#453));
#261=EDGE_LOOP('',(#454,#455,#456,#457));
#262=EDGE_LOOP('',(#458,#459,#460,#461));
#263=EDGE_LOOP('',(#462,#463,#464,#465));
#264=EDGE_LOOP('',(#466));
#265=EDGE_LOOP('',(#467));
#266=EDGE_LOOP('',(#468,#469,#470,#471));
#267=EDGE_LOOP('',(#472,#473,#474,#475));
#268=EDGE_LOOP('',(#476,#477,#478,#479));
#269=EDGE_LOOP('',(#480));
#270=EDGE_LOOP('',(#481));
#271=EDGE_LOOP('',(#482,#483,#484,#485));
#272=EDGE_LOOP('',(#486,#487,#488,#489));
#273=EDGE_LOOP('',(#490,#491,#492,#493));
#274=EDGE_LOOP('',(#494));
#275=EDGE_LOOP('',(#495));
#276=EDGE_LOOP('',(#496,#497,#498,#499));
#277=EDGE_LOOP('',(#500,#501,#502,#503));
#278=EDGE_LOOP('',(#504,#505,#506,#507));
#279=EDGE_LOOP('',(#508,#509,#510,#511));
#280=EDGE_LOOP('',(#512,#513,#514,#515));
#281=EDGE_LOOP('',(#516,#517,#518,#519));
#282=EDGE_LOOP('',(#520,#521,#522,#523));
#283=EDGE_LOOP('',(#524,#525,#526,#527));
#284=ORIENTED_EDGE('',*,*,#612,.F.);
#285=ORIENTED_EDGE('',*,*,#613,.T.);
#286=ORIENTED_EDGE('',*,*,#614,.T.);
#287=ORIENTED_EDGE('',*,*,#615,.T.);
#288=ORIENTED_EDGE('',*,*,#616,.F.);
#289=ORIENTED_EDGE('',*,*,#617,.T.);
#290=ORIENTED_EDGE('',*,*,#618,.T.);
#291=ORIENTED_EDGE('',*,*,#619,.T.);
#292=ORIENTED_EDGE('',*,*,#620,.F.);
#293=ORIENTED_EDGE('',*,*,#621,.T.);
#294=ORIENTED_EDGE('',*,*,#622,.T.);
#295=ORIENTED_EDGE('',*,*,#623,.T.);
#296=ORIENTED_EDGE('',*,*,#624,.T.);
#297=ORIENTED_EDGE('',*,*,#625,.T.);
#298=ORIENTED_EDGE('',*,*,#626,.F.);
#299=ORIENTED_EDGE('',*,*,#627,.F.);
#300=ORIENTED_EDGE('',*,*,#628,.T.);
#301=ORIENTED_EDGE('',*,*,#629,.F.);
#302=ORIENTED_EDGE('',*,*,#630,.F.);
#303=ORIENTED_EDGE('',*,*,#631,.T.);
#304=ORIENTED_EDGE('',*,*,#632,.T.);
#305=ORIENTED_EDGE('',*,*,#633,.F.);
#306=ORIENTED_EDGE('',*,*,#634,.F.);
#307=ORIENTED_EDGE('',*,*,#629,.T.);
#308=ORIENTED_EDGE('',*,*,#635,.T.);
#309=ORIENTED_EDGE('',*,*,#636,.F.);
#310=ORIENTED_EDGE('',*,*,#637,.F.);
#311=ORIENTED_EDGE('',*,*,#633,.T.);
#312=ORIENTED_EDGE('',*,*,#638,.T.);
#313=ORIENTED_EDGE('',*,*,#639,.F.);
#314=ORIENTED_EDGE('',*,*,#640,.F.);
#315=ORIENTED_EDGE('',*,*,#636,.T.);
#316=ORIENTED_EDGE('',*,*,#641,.T.);
#317=ORIENTED_EDGE('',*,*,#642,.F.);
#318=ORIENTED_EDGE('',*,*,#643,.F.);
#319=ORIENTED_EDGE('',*,*,#639,.T.);
#320=ORIENTED_EDGE('',*,*,#644,.T.);
#321=ORIENTED_EDGE('',*,*,#645,.F.);
#322=ORIENTED_EDGE('',*,*,#646,.F.);
#323=ORIENTED_EDGE('',*,*,#642,.T.);
#324=ORIENTED_EDGE('',*,*,#647,.T.);
#325=ORIENTED_EDGE('',*,*,#648,.F.);
#326=ORIENTED_EDGE('',*,*,#649,.F.);
#327=ORIENTED_EDGE('',*,*,#645,.T.);
#328=ORIENTED_EDGE('',*,*,#650,.T.);
#329=ORIENTED_EDGE('',*,*,#651,.F.);
#330=ORIENTED_EDGE('',*,*,#652,.F.);
#331=ORIENTED_EDGE('',*,*,#648,.T.);
#332=ORIENTED_EDGE('',*,*,#653,.T.);
#333=ORIENTED_EDGE('',*,*,#618,.F.);
#334=ORIENTED_EDGE('',*,*,#654,.T.);
#335=ORIENTED_EDGE('',*,*,#655,.T.);
#336=ORIENTED_EDGE('',*,*,#656,.T.);
#337=ORIENTED_EDGE('',*,*,#657,.T.);
#338=ORIENTED_EDGE('',*,*,#658,.T.);
#339=ORIENTED_EDGE('',*,*,#614,.F.);
#340=ORIENTED_EDGE('',*,*,#659,.T.);
#341=ORIENTED_EDGE('',*,*,#660,.T.);
#342=ORIENTED_EDGE('',*,*,#661,.T.);
#343=ORIENTED_EDGE('',*,*,#662,.T.);
#344=ORIENTED_EDGE('',*,*,#663,.T.);
#345=ORIENTED_EDGE('',*,*,#664,.F.);
#346=ORIENTED_EDGE('',*,*,#665,.F.);
#347=ORIENTED_EDGE('',*,*,#651,.T.);
#348=ORIENTED_EDGE('',*,*,#666,.F.);
#349=ORIENTED_EDGE('',*,*,#667,.T.);
#350=ORIENTED_EDGE('',*,*,#664,.T.);
#351=ORIENTED_EDGE('',*,*,#668,.T.);
#352=ORIENTED_EDGE('',*,*,#669,.F.);
#353=ORIENTED_EDGE('',*,*,#670,.F.);
#354=ORIENTED_EDGE('',*,*,#671,.T.);
#355=ORIENTED_EDGE('',*,*,#672,.F.);
#356=ORIENTED_EDGE('',*,*,#673,.T.);
#357=ORIENTED_EDGE('',*,*,#674,.T.);
#358=ORIENTED_EDGE('',*,*,#675,.T.);
#359=ORIENTED_EDGE('',*,*,#676,.T.);
#360=ORIENTED_EDGE('',*,*,#677,.T.);
#361=ORIENTED_EDGE('',*,*,#622,.F.);
#362=ORIENTED_EDGE('',*,*,#678,.T.);
#363=ORIENTED_EDGE('',*,*,#679,.T.);
#364=ORIENTED_EDGE('',*,*,#680,.T.);
#365=ORIENTED_EDGE('',*,*,#681,.T.);
#366=ORIENTED_EDGE('',*,*,#682,.T.);
#367=ORIENTED_EDGE('',*,*,#624,.F.);
#368=ORIENTED_EDGE('',*,*,#683,.F.);
#369=ORIENTED_EDGE('',*,*,#669,.T.);
#370=ORIENTED_EDGE('',*,*,#684,.T.);
#371=ORIENTED_EDGE('',*,*,#685,.F.);
#372=ORIENTED_EDGE('',*,*,#686,.F.);
#373=ORIENTED_EDGE('',*,*,#687,.F.);
#374=ORIENTED_EDGE('',*,*,#688,.T.);
#375=ORIENTED_EDGE('',*,*,#612,.T.);
#376=ORIENTED_EDGE('',*,*,#689,.T.);
#377=ORIENTED_EDGE('',*,*,#690,.F.);
#378=ORIENTED_EDGE('',*,*,#691,.F.);
#379=ORIENTED_EDGE('',*,*,#692,.F.);
#380=ORIENTED_EDGE('',*,*,#693,.T.);
#381=ORIENTED_EDGE('',*,*,#616,.T.);
#382=ORIENTED_EDGE('',*,*,#694,.T.);
#383=ORIENTED_EDGE('',*,*,#695,.F.);
#384=ORIENTED_EDGE('',*,*,#696,.T.);
#385=ORIENTED_EDGE('',*,*,#697,.F.);
#386=ORIENTED_EDGE('',*,*,#698,.F.);
#387=ORIENTED_EDGE('',*,*,#699,.T.);
#388=ORIENTED_EDGE('',*,*,#672,.T.);
#389=ORIENTED_EDGE('',*,*,#700,.T.);
#390=ORIENTED_EDGE('',*,*,#701,.T.);
#391=ORIENTED_EDGE('',*,*,#702,.F.);
#392=ORIENTED_EDGE('',*,*,#703,.F.);
#393=ORIENTED_EDGE('',*,*,#626,.T.);
#394=ORIENTED_EDGE('',*,*,#704,.T.);
#395=ORIENTED_EDGE('',*,*,#705,.F.);
#396=ORIENTED_EDGE('',*,*,#706,.F.);
#397=ORIENTED_EDGE('',*,*,#707,.F.);
#398=ORIENTED_EDGE('',*,*,#708,.T.);
#399=ORIENTED_EDGE('',*,*,#620,.T.);
#400=ORIENTED_EDGE('',*,*,#709,.T.);
#401=ORIENTED_EDGE('',*,*,#710,.F.);
#402=ORIENTED_EDGE('',*,*,#711,.F.);
#403=ORIENTED_EDGE('',*,*,#712,.F.);
#404=ORIENTED_EDGE('',*,*,#713,.T.);
#405=ORIENTED_EDGE('',*,*,#698,.T.);
#406=ORIENTED_EDGE('',*,*,#714,.F.);
#407=ORIENTED_EDGE('',*,*,#715,.T.);
#408=ORIENTED_EDGE('',*,*,#716,.T.);
#409=ORIENTED_EDGE('',*,*,#631,.F.);
#410=ORIENTED_EDGE('',*,*,#717,.F.);
#411=ORIENTED_EDGE('',*,*,#702,.T.);
#412=ORIENTED_EDGE('',*,*,#630,.T.);
#413=ORIENTED_EDGE('',*,*,#634,.T.);
#414=ORIENTED_EDGE('',*,*,#637,.T.);
#415=ORIENTED_EDGE('',*,*,#640,.T.);
#416=ORIENTED_EDGE('',*,*,#643,.T.);
#417=ORIENTED_EDGE('',*,*,#646,.T.);
#418=ORIENTED_EDGE('',*,*,#649,.T.);
#419=ORIENTED_EDGE('',*,*,#652,.T.);
#420=ORIENTED_EDGE('',*,*,#665,.T.);
#421=ORIENTED_EDGE('',*,*,#670,.T.);
#422=ORIENTED_EDGE('',*,*,#683,.T.);
#423=ORIENTED_EDGE('',*,*,#627,.T.);
#424=ORIENTED_EDGE('',*,*,#703,.T.);
#425=ORIENTED_EDGE('',*,*,#717,.T.);
#426=ORIENTED_EDGE('',*,*,#628,.F.);
#427=ORIENTED_EDGE('',*,*,#716,.F.);
#428=ORIENTED_EDGE('',*,*,#701,.F.);
#429=ORIENTED_EDGE('',*,*,#700,.F.);
#430=ORIENTED_EDGE('',*,*,#671,.F.);
#431=ORIENTED_EDGE('',*,*,#619,.F.);
#432=ORIENTED_EDGE('',*,*,#653,.F.);
#433=ORIENTED_EDGE('',*,*,#650,.F.);
#434=ORIENTED_EDGE('',*,*,#647,.F.);
#435=ORIENTED_EDGE('',*,*,#644,.F.);
#436=ORIENTED_EDGE('',*,*,#641,.F.);
#437=ORIENTED_EDGE('',*,*,#638,.F.);
#438=ORIENTED_EDGE('',*,*,#635,.F.);
#439=ORIENTED_EDGE('',*,*,#632,.F.);
#440=ORIENTED_EDGE('',*,*,#679,.F.);
#441=ORIENTED_EDGE('',*,*,#718,.T.);
#442=ORIENTED_EDGE('',*,*,#707,.T.);
#443=ORIENTED_EDGE('',*,*,#719,.T.);
#444=ORIENTED_EDGE('',*,*,#680,.F.);
#445=ORIENTED_EDGE('',*,*,#719,.F.);
#446=ORIENTED_EDGE('',*,*,#706,.T.);
#447=ORIENTED_EDGE('',*,*,#720,.T.);
#448=ORIENTED_EDGE('',*,*,#705,.T.);
#449=ORIENTED_EDGE('',*,*,#721,.T.);
#450=ORIENTED_EDGE('',*,*,#681,.F.);
#451=ORIENTED_EDGE('',*,*,#720,.F.);
#452=ORIENTED_EDGE('',*,*,#714,.T.);
#453=ORIENTED_EDGE('',*,*,#694,.F.);
#454=ORIENTED_EDGE('',*,*,#674,.F.);
#455=ORIENTED_EDGE('',*,*,#722,.T.);
#456=ORIENTED_EDGE('',*,*,#712,.T.);
#457=ORIENTED_EDGE('',*,*,#723,.T.);
#458=ORIENTED_EDGE('',*,*,#675,.F.);
#459=ORIENTED_EDGE('',*,*,#723,.F.);
#460=ORIENTED_EDGE('',*,*,#711,.T.);
#461=ORIENTED_EDGE('',*,*,#724,.T.);
#462=ORIENTED_EDGE('',*,*,#710,.T.);
#463=ORIENTED_EDGE('',*,*,#725,.T.);
#464=ORIENTED_EDGE('',*,*,#676,.F.);
#465=ORIENTED_EDGE('',*,*,#724,.F.);
#466=ORIENTED_EDGE('',*,*,#715,.F.);
#467=ORIENTED_EDGE('',*,*,#695,.T.);
#468=ORIENTED_EDGE('',*,*,#691,.T.);
#469=ORIENTED_EDGE('',*,*,#726,.F.);
#470=ORIENTED_EDGE('',*,*,#656,.F.);
#471=ORIENTED_EDGE('',*,*,#727,.T.);
#472=ORIENTED_EDGE('',*,*,#690,.T.);
#473=ORIENTED_EDGE('',*,*,#728,.T.);
#474=ORIENTED_EDGE('',*,*,#657,.F.);
#475=ORIENTED_EDGE('',*,*,#726,.T.);
#476=ORIENTED_EDGE('',*,*,#655,.F.);
#477=ORIENTED_EDGE('',*,*,#729,.T.);
#478=ORIENTED_EDGE('',*,*,#692,.T.);
#479=ORIENTED_EDGE('',*,*,#727,.F.);
#480=ORIENTED_EDGE('',*,*,#666,.T.);
#481=ORIENTED_EDGE('',*,*,#696,.F.);
#482=ORIENTED_EDGE('',*,*,#686,.T.);
#483=ORIENTED_EDGE('',*,*,#730,.F.);
#484=ORIENTED_EDGE('',*,*,#661,.F.);
#485=ORIENTED_EDGE('',*,*,#731,.T.);
#486=ORIENTED_EDGE('',*,*,#685,.T.);
#487=ORIENTED_EDGE('',*,*,#732,.T.);
#488=ORIENTED_EDGE('',*,*,#662,.F.);
#489=ORIENTED_EDGE('',*,*,#730,.T.);
#490=ORIENTED_EDGE('',*,*,#660,.F.);
#491=ORIENTED_EDGE('',*,*,#733,.T.);
#492=ORIENTED_EDGE('',*,*,#687,.T.);
#493=ORIENTED_EDGE('',*,*,#731,.F.);
#494=ORIENTED_EDGE('',*,*,#667,.F.);
#495=ORIENTED_EDGE('',*,*,#697,.T.);
#496=ORIENTED_EDGE('',*,*,#659,.F.);
#497=ORIENTED_EDGE('',*,*,#613,.F.);
#498=ORIENTED_EDGE('',*,*,#688,.F.);
#499=ORIENTED_EDGE('',*,*,#733,.F.);
#500=ORIENTED_EDGE('',*,*,#708,.F.);
#501=ORIENTED_EDGE('',*,*,#718,.F.);
#502=ORIENTED_EDGE('',*,*,#678,.F.);
#503=ORIENTED_EDGE('',*,*,#621,.F.);
#504=ORIENTED_EDGE('',*,*,#704,.F.);
#505=ORIENTED_EDGE('',*,*,#625,.F.);
#506=ORIENTED_EDGE('',*,*,#682,.F.);
#507=ORIENTED_EDGE('',*,*,#721,.F.);
#508=ORIENTED_EDGE('',*,*,#663,.F.);
#509=ORIENTED_EDGE('',*,*,#732,.F.);
#510=ORIENTED_EDGE('',*,*,#684,.F.);
#511=ORIENTED_EDGE('',*,*,#668,.F.);
#512=ORIENTED_EDGE('',*,*,#658,.F.);
#513=ORIENTED_EDGE('',*,*,#728,.F.);
#514=ORIENTED_EDGE('',*,*,#689,.F.);
#515=ORIENTED_EDGE('',*,*,#615,.F.);
#516=ORIENTED_EDGE('',*,*,#709,.F.);
#517=ORIENTED_EDGE('',*,*,#623,.F.);
#518=ORIENTED_EDGE('',*,*,#677,.F.);
#519=ORIENTED_EDGE('',*,*,#725,.F.);
#520=ORIENTED_EDGE('',*,*,#713,.F.);
#521=ORIENTED_EDGE('',*,*,#722,.F.);
#522=ORIENTED_EDGE('',*,*,#673,.F.);
#523=ORIENTED_EDGE('',*,*,#699,.F.);
#524=ORIENTED_EDGE('',*,*,#654,.F.);
#525=ORIENTED_EDGE('',*,*,#617,.F.);
#526=ORIENTED_EDGE('',*,*,#693,.F.);
#527=ORIENTED_EDGE('',*,*,#729,.F.);
#528=VERTEX_POINT('',#1237);
#529=VERTEX_POINT('',#1238);
#530=VERTEX_POINT('',#1240);
#531=VERTEX_POINT('',#1242);
#532=VERTEX_POINT('',#1246);
#533=VERTEX_POINT('',#1247);
#534=VERTEX_POINT('',#1249);
#535=VERTEX_POINT('',#1251);
#536=VERTEX_POINT('',#1255);
#537=VERTEX_POINT('',#1256);
#538=VERTEX_POINT('',#1258);
#539=VERTEX_POINT('',#1260);
#540=VERTEX_POINT('',#1264);
#541=VERTEX_POINT('',#1265);
#542=VERTEX_POINT('',#1267);
#543=VERTEX_POINT('',#1269);
#544=VERTEX_POINT('',#1273);
#545=VERTEX_POINT('',#1274);
#546=VERTEX_POINT('',#1276);
#547=VERTEX_POINT('',#1278);
#548=VERTEX_POINT('',#1282);
#549=VERTEX_POINT('',#1284);
#550=VERTEX_POINT('',#1288);
#551=VERTEX_POINT('',#1290);
#552=VERTEX_POINT('',#1294);
#553=VERTEX_POINT('',#1296);
#554=VERTEX_POINT('',#1300);
#555=VERTEX_POINT('',#1302);
#556=VERTEX_POINT('',#1306);
#557=VERTEX_POINT('',#1308);
#558=VERTEX_POINT('',#1312);
#559=VERTEX_POINT('',#1314);
#560=VERTEX_POINT('',#1318);
#561=VERTEX_POINT('',#1320);
#562=VERTEX_POINT('',#1325);
#563=VERTEX_POINT('',#1327);
#564=VERTEX_POINT('',#1329);
#565=VERTEX_POINT('',#1331);
#566=VERTEX_POINT('',#1334);
#567=VERTEX_POINT('',#1336);
#568=VERTEX_POINT('',#1338);
#569=VERTEX_POINT('',#1340);
#570=VERTEX_POINT('',#1342);
#571=VERTEX_POINT('',#1344);
#572=VERTEX_POINT('',#1347);
#573=VERTEX_POINT('',#1349);
#574=VERTEX_POINT('',#1352);
#575=VERTEX_POINT('',#1354);
#576=VERTEX_POINT('',#1358);
#577=VERTEX_POINT('',#1360);
#578=VERTEX_POINT('',#1362);
#579=VERTEX_POINT('',#1364);
#580=VERTEX_POINT('',#1366);
#581=VERTEX_POINT('',#1368);
#582=VERTEX_POINT('',#1371);
#583=VERTEX_POINT('',#1373);
#584=VERTEX_POINT('',#1375);
#585=VERTEX_POINT('',#1377);
#586=VERTEX_POINT('',#1381);
#587=VERTEX_POINT('',#1383);
#588=VERTEX_POINT('',#1385);
#589=VERTEX_POINT('',#1387);
#590=VERTEX_POINT('',#1390);
#591=VERTEX_POINT('',#1392);
#592=VERTEX_POINT('',#1394);
#593=VERTEX_POINT('',#1396);
#594=VERTEX_POINT('',#1399);
#595=VERTEX_POINT('',#1401);
#596=VERTEX_POINT('',#1403);
#597=VERTEX_POINT('',#1405);
#598=VERTEX_POINT('',#1408);
#599=VERTEX_POINT('',#1409);
#600=VERTEX_POINT('',#1414);
#601=VERTEX_POINT('',#1416);
#602=VERTEX_POINT('',#1419);
#603=VERTEX_POINT('',#1421);
#604=VERTEX_POINT('',#1423);
#605=VERTEX_POINT('',#1425);
#606=VERTEX_POINT('',#1428);
#607=VERTEX_POINT('',#1430);
#608=VERTEX_POINT('',#1432);
#609=VERTEX_POINT('',#1434);
#610=VERTEX_POINT('',#1437);
#611=VERTEX_POINT('',#1439);
#612=EDGE_CURVE('',#528,#529,#734,.T.);
#613=EDGE_CURVE('',#528,#530,#735,.T.);
#614=EDGE_CURVE('',#530,#531,#736,.T.);
#615=EDGE_CURVE('',#531,#529,#737,.T.);
#616=EDGE_CURVE('',#532,#533,#738,.T.);
#617=EDGE_CURVE('',#532,#534,#739,.T.);
#618=EDGE_CURVE('',#534,#535,#740,.T.);
#619=EDGE_CURVE('',#535,#533,#741,.T.);
#620=EDGE_CURVE('',#536,#537,#742,.T.);
#621=EDGE_CURVE('',#536,#538,#743,.T.);
#622=EDGE_CURVE('',#538,#539,#744,.T.);
#623=EDGE_CURVE('',#539,#537,#745,.T.);
#624=EDGE_CURVE('',#540,#541,#746,.T.);
#625=EDGE_CURVE('',#541,#542,#747,.T.);
#626=EDGE_CURVE('',#543,#542,#748,.T.);
#627=EDGE_CURVE('',#540,#543,#749,.T.);
#628=EDGE_CURVE('',#544,#545,#750,.T.);
#629=EDGE_CURVE('',#546,#545,#751,.T.);
#630=EDGE_CURVE('',#547,#546,#752,.T.);
#631=EDGE_CURVE('',#547,#544,#753,.T.);
#632=EDGE_CURVE('',#545,#548,#82,.T.);
#633=EDGE_CURVE('',#549,#548,#754,.T.);
#634=EDGE_CURVE('',#546,#549,#83,.T.);
#635=EDGE_CURVE('',#548,#550,#755,.T.);
#636=EDGE_CURVE('',#551,#550,#756,.T.);
#637=EDGE_CURVE('',#549,#551,#757,.T.);
#638=EDGE_CURVE('',#550,#552,#84,.T.);
#639=EDGE_CURVE('',#553,#552,#758,.T.);
#640=EDGE_CURVE('',#551,#553,#85,.T.);
#641=EDGE_CURVE('',#552,#554,#759,.T.);
#642=EDGE_CURVE('',#555,#554,#760,.T.);
#643=EDGE_CURVE('',#553,#555,#761,.T.);
#644=EDGE_CURVE('',#554,#556,#86,.T.);
#645=EDGE_CURVE('',#557,#556,#762,.T.);
#646=EDGE_CURVE('',#555,#557,#87,.T.);
#647=EDGE_CURVE('',#556,#558,#763,.T.);
#648=EDGE_CURVE('',#559,#558,#764,.T.);
#649=EDGE_CURVE('',#557,#559,#765,.T.);
#650=EDGE_CURVE('',#558,#560,#88,.T.);
#651=EDGE_CURVE('',#561,#560,#766,.T.);
#652=EDGE_CURVE('',#559,#561,#89,.T.);
#653=EDGE_CURVE('',#560,#535,#767,.T.);
#654=EDGE_CURVE('',#534,#562,#90,.T.);
#655=EDGE_CURVE('',#562,#563,#768,.T.);
#656=EDGE_CURVE('',#563,#564,#91,.T.);
#657=EDGE_CURVE('',#564,#565,#769,.T.);
#658=EDGE_CURVE('',#565,#531,#92,.T.);
#659=EDGE_CURVE('',#530,#566,#93,.T.);
#660=EDGE_CURVE('',#566,#567,#770,.T.);
#661=EDGE_CURVE('',#567,#568,#94,.T.);
#662=EDGE_CURVE('',#568,#569,#771,.T.);
#663=EDGE_CURVE('',#569,#570,#95,.T.);
#664=EDGE_CURVE('',#571,#570,#772,.T.);
#665=EDGE_CURVE('',#561,#571,#773,.T.);
#666=EDGE_CURVE('',#572,#572,#96,.T.);
#667=EDGE_CURVE('',#573,#573,#97,.T.);
#668=EDGE_CURVE('',#570,#574,#774,.T.);
#669=EDGE_CURVE('',#575,#574,#775,.T.);
#670=EDGE_CURVE('',#571,#575,#776,.T.);
#671=EDGE_CURVE('',#533,#576,#777,.T.);
#672=EDGE_CURVE('',#577,#576,#778,.T.);
#673=EDGE_CURVE('',#577,#578,#98,.T.);
#674=EDGE_CURVE('',#578,#579,#779,.T.);
#675=EDGE_CURVE('',#579,#580,#99,.T.);
#676=EDGE_CURVE('',#580,#581,#780,.T.);
#677=EDGE_CURVE('',#581,#539,#100,.T.);
#678=EDGE_CURVE('',#538,#582,#101,.T.);
#679=EDGE_CURVE('',#582,#583,#781,.T.);
#680=EDGE_CURVE('',#583,#584,#102,.T.);
#681=EDGE_CURVE('',#584,#585,#782,.T.);
#682=EDGE_CURVE('',#585,#541,#103,.T.);
#683=EDGE_CURVE('',#575,#540,#783,.T.);
#684=EDGE_CURVE('',#574,#586,#104,.T.);
#685=EDGE_CURVE('',#587,#586,#784,.T.);
#686=EDGE_CURVE('',#588,#587,#105,.T.);
#687=EDGE_CURVE('',#589,#588,#785,.T.);
#688=EDGE_CURVE('',#589,#528,#106,.T.);
#689=EDGE_CURVE('',#529,#590,#107,.T.);
#690=EDGE_CURVE('',#591,#590,#786,.T.);
#691=EDGE_CURVE('',#592,#591,#108,.T.);
#692=EDGE_CURVE('',#593,#592,#787,.T.);
#693=EDGE_CURVE('',#593,#532,#109,.T.);
#694=EDGE_CURVE('',#594,#594,#110,.T.);
#695=EDGE_CURVE('',#595,#595,#111,.T.);
#696=EDGE_CURVE('',#596,#596,#112,.T.);
#697=EDGE_CURVE('',#597,#597,#113,.T.);
#698=EDGE_CURVE('',#598,#599,#788,.T.);
#699=EDGE_CURVE('',#598,#577,#789,.T.);
#700=EDGE_CURVE('',#576,#599,#790,.T.);
#701=EDGE_CURVE('',#599,#600,#791,.T.);
#702=EDGE_CURVE('',#601,#600,#792,.T.);
#703=EDGE_CURVE('',#543,#601,#793,.T.);
#704=EDGE_CURVE('',#542,#602,#114,.T.);
#705=EDGE_CURVE('',#603,#602,#794,.T.);
#706=EDGE_CURVE('',#604,#603,#115,.T.);
#707=EDGE_CURVE('',#605,#604,#795,.T.);
#708=EDGE_CURVE('',#605,#536,#116,.T.);
#709=EDGE_CURVE('',#537,#606,#117,.T.);
#710=EDGE_CURVE('',#607,#606,#796,.T.);
#711=EDGE_CURVE('',#608,#607,#118,.T.);
#712=EDGE_CURVE('',#609,#608,#797,.T.);
#713=EDGE_CURVE('',#609,#598,#119,.T.);
#714=EDGE_CURVE('',#610,#610,#120,.T.);
#715=EDGE_CURVE('',#611,#611,#121,.T.);
#716=EDGE_CURVE('',#600,#544,#122,.T.);
#717=EDGE_CURVE('',#601,#547,#123,.T.);
#718=EDGE_CURVE('',#582,#605,#798,.T.);
#719=EDGE_CURVE('',#604,#583,#799,.T.);
#720=EDGE_CURVE('',#603,#584,#800,.T.);
#721=EDGE_CURVE('',#602,#585,#801,.T.);
#722=EDGE_CURVE('',#578,#609,#802,.T.);
#723=EDGE_CURVE('',#608,#579,#803,.T.);
#724=EDGE_CURVE('',#607,#580,#804,.T.);
#725=EDGE_CURVE('',#606,#581,#805,.T.);
#726=EDGE_CURVE('',#564,#591,#806,.T.);
#727=EDGE_CURVE('',#563,#592,#807,.T.);
#728=EDGE_CURVE('',#590,#565,#808,.T.);
#729=EDGE_CURVE('',#562,#593,#809,.T.);
#730=EDGE_CURVE('',#568,#587,#810,.T.);
#731=EDGE_CURVE('',#567,#588,#811,.T.);
#732=EDGE_CURVE('',#586,#569,#812,.T.);
#733=EDGE_CURVE('',#566,#589,#813,.T.);
#734=LINE('',#1236,#814);
#735=LINE('',#1239,#815);
#736=LINE('',#1241,#816);
#737=LINE('',#1243,#817);
#738=LINE('',#1245,#818);
#739=LINE('',#1248,#819);
#740=LINE('',#1250,#820);
#741=LINE('',#1252,#821);
#742=LINE('',#1254,#822);
#743=LINE('',#1257,#823);
#744=LINE('',#1259,#824);
#745=LINE('',#1261,#825);
#746=LINE('',#1263,#826);
#747=LINE('',#1266,#827);
#748=LINE('',#1268,#828);
#749=LINE('',#1270,#829);
#750=LINE('',#1272,#830);
#751=LINE('',#1275,#831);
#752=LINE('',#1277,#832);
#753=LINE('',#1279,#833);
#754=LINE('',#1283,#834);
#755=LINE('',#1287,#835);
#756=LINE('',#1289,#836);
#757=LINE('',#1291,#837);
#758=LINE('',#1295,#838);
#759=LINE('',#1299,#839);
#760=LINE('',#1301,#840);
#761=LINE('',#1303,#841);
#762=LINE('',#1307,#842);
#763=LINE('',#1311,#843);
#764=LINE('',#1313,#844);
#765=LINE('',#1315,#845);
#766=LINE('',#1319,#846);
#767=LINE('',#1323,#847);
#768=LINE('',#1326,#848);
#769=LINE('',#1330,#849);
#770=LINE('',#1335,#850);
#771=LINE('',#1339,#851);
#772=LINE('',#1343,#852);
#773=LINE('',#1345,#853);
#774=LINE('',#1351,#854);
#775=LINE('',#1353,#855);
#776=LINE('',#1355,#856);
#777=LINE('',#1357,#857);
#778=LINE('',#1359,#858);
#779=LINE('',#1363,#859);
#780=LINE('',#1367,#860);
#781=LINE('',#1372,#861);
#782=LINE('',#1376,#862);
#783=LINE('',#1379,#863);
#784=LINE('',#1382,#864);
#785=LINE('',#1386,#865);
#786=LINE('',#1391,#866);
#787=LINE('',#1395,#867);
#788=LINE('',#1407,#868);
#789=LINE('',#1410,#869);
#790=LINE('',#1411,#870);
#791=LINE('',#1413,#871);
#792=LINE('',#1415,#872);
#793=LINE('',#1417,#873);
#794=LINE('',#1420,#874);
#795=LINE('',#1424,#875);
#796=LINE('',#1429,#876);
#797=LINE('',#1433,#877);
#798=LINE('',#1446,#878);
#799=LINE('',#1447,#879);
#800=LINE('',#1449,#880);
#801=LINE('',#1451,#881);
#802=LINE('',#1454,#882);
#803=LINE('',#1455,#883);
#804=LINE('',#1457,#884);
#805=LINE('',#1459,#885);
#806=LINE('',#1462,#886);
#807=LINE('',#1463,#887);
#808=LINE('',#1465,#888);
#809=LINE('',#1467,#889);
#810=LINE('',#1470,#890);
#811=LINE('',#1471,#891);
#812=LINE('',#1473,#892);
#813=LINE('',#1475,#893);
#814=VECTOR('',#983,1.);
#815=VECTOR('',#984,1.);
#816=VECTOR('',#985,1.);
#817=VECTOR('',#986,1.);
#818=VECTOR('',#989,1.);
#819=VECTOR('',#990,1.);
#820=VECTOR('',#991,1.);
#821=VECTOR('',#992,1.);
#822=VECTOR('',#995,1.);
#823=VECTOR('',#996,1.);
#824=VECTOR('',#997,1.);
#825=VECTOR('',#998,1.);
#826=VECTOR('',#1001,1.);
#827=VECTOR('',#1002,1.);
#828=VECTOR('',#1003,1.);
#829=VECTOR('',#1004,1.);
#830=VECTOR('',#1007,1.);
#831=VECTOR('',#1008,1.);
#832=VECTOR('',#1009,1.);
#833=VECTOR('',#1010,1.);
#834=VECTOR('',#1015,1.);
#835=VECTOR('',#1020,1.);
#836=VECTOR('',#1021,1.);
#837=VECTOR('',#1022,1.);
#838=VECTOR('',#1027,1.);
#839=VECTOR('',#1032,1.);
#840=VECTOR('',#1033,1.);
#841=VECTOR('',#1034,1.);
#842=VECTOR('',#1039,1.);
#843=VECTOR('',#1044,1.);
#844=VECTOR('',#1045,1.);
#845=VECTOR('',#1046,1.);
#846=VECTOR('',#1051,1.);
#847=VECTOR('',#1056,1.);
#848=VECTOR('',#1059,1.);
#849=VECTOR('',#1062,1.);
#850=VECTOR('',#1067,1.);
#851=VECTOR('',#1070,1.);
#852=VECTOR('',#1073,1.);
#853=VECTOR('',#1074,1.);
#854=VECTOR('',#1081,1.);
#855=VECTOR('',#1082,1.);
#856=VECTOR('',#1083,1.);
#857=VECTOR('',#1086,1.);
#858=VECTOR('',#1087,1.);
#859=VECTOR('',#1090,1.);
#860=VECTOR('',#1093,1.);
#861=VECTOR('',#1098,1.);
#862=VECTOR('',#1101,1.);
#863=VECTOR('',#1104,1.);
#864=VECTOR('',#1107,1.);
#865=VECTOR('',#1110,1.);
#866=VECTOR('',#1115,1.);
#867=VECTOR('',#1118,1.);
#868=VECTOR('',#1131,1.);
#869=VECTOR('',#1132,1.);
#870=VECTOR('',#1133,1.);
#871=VECTOR('',#1136,1.);
#872=VECTOR('',#1137,1.);
#873=VECTOR('',#1138,1.);
#874=VECTOR('',#1141,1.);
#875=VECTOR('',#1144,1.);
#876=VECTOR('',#1149,1.);
#877=VECTOR('',#1152,1.);
#878=VECTOR('',#1171,1.);
#879=VECTOR('',#1172,1.);
#880=VECTOR('',#1175,1.);
#881=VECTOR('',#1178,1.);
#882=VECTOR('',#1183,1.);
#883=VECTOR('',#1184,1.);
#884=VECTOR('',#1187,1.);
#885=VECTOR('',#1190,1.);
#886=VECTOR('',#1195,1.);
#887=VECTOR('',#1196,1.);
#888=VECTOR('',#1199,1.);
#889=VECTOR('',#1202,1.);
#890=VECTOR('',#1207,1.);
#891=VECTOR('',#1208,1.);
#892=VECTOR('',#1211,1.);
#893=VECTOR('',#1214,1.);
#894=AXIS2_PLACEMENT_3D('',#1235,#981,#982);
#895=AXIS2_PLACEMENT_3D('',#1244,#987,#988);
#896=AXIS2_PLACEMENT_3D('',#1253,#993,#994);
#897=AXIS2_PLACEMENT_3D('',#1262,#999,#1000);
#898=AXIS2_PLACEMENT_3D('',#1271,#1005,#1006);
#899=AXIS2_PLACEMENT_3D('',#1280,#1011,#1012);
#900=AXIS2_PLACEMENT_3D('',#1281,#1013,#1014);
#901=AXIS2_PLACEMENT_3D('',#1285,#1016,#1017);
#902=AXIS2_PLACEMENT_3D('',#1286,#1018,#1019);
#903=AXIS2_PLACEMENT_3D('',#1292,#1023,#1024);
#904=AXIS2_PLACEMENT_3D('',#1293,#1025,#1026);
#905=AXIS2_PLACEMENT_3D('',#1297,#1028,#1029);
#906=AXIS2_PLACEMENT_3D('',#1298,#1030,#1031);
#907=AXIS2_PLACEMENT_3D('',#1304,#1035,#1036);
#908=AXIS2_PLACEMENT_3D('',#1305,#1037,#1038);
#909=AXIS2_PLACEMENT_3D('',#1309,#1040,#1041);
#910=AXIS2_PLACEMENT_3D('',#1310,#1042,#1043);
#911=AXIS2_PLACEMENT_3D('',#1316,#1047,#1048);
#912=AXIS2_PLACEMENT_3D('',#1317,#1049,#1050);
#913=AXIS2_PLACEMENT_3D('',#1321,#1052,#1053);
#914=AXIS2_PLACEMENT_3D('',#1322,#1054,#1055);
#915=AXIS2_PLACEMENT_3D('',#1324,#1057,#1058);
#916=AXIS2_PLACEMENT_3D('',#1328,#1060,#1061);
#917=AXIS2_PLACEMENT_3D('',#1332,#1063,#1064);
#918=AXIS2_PLACEMENT_3D('',#1333,#1065,#1066);
#919=AXIS2_PLACEMENT_3D('',#1337,#1068,#1069);
#920=AXIS2_PLACEMENT_3D('',#1341,#1071,#1072);
#921=AXIS2_PLACEMENT_3D('',#1346,#1075,#1076);
#922=AXIS2_PLACEMENT_3D('',#1348,#1077,#1078);
#923=AXIS2_PLACEMENT_3D('',#1350,#1079,#1080);
#924=AXIS2_PLACEMENT_3D('',#1356,#1084,#1085);
#925=AXIS2_PLACEMENT_3D('',#1361,#1088,#1089);
#926=AXIS2_PLACEMENT_3D('',#1365,#1091,#1092);
#927=AXIS2_PLACEMENT_3D('',#1369,#1094,#1095);
#928=AXIS2_PLACEMENT_3D('',#1370,#1096,#1097);
#929=AXIS2_PLACEMENT_3D('',#1374,#1099,#1100);
#930=AXIS2_PLACEMENT_3D('',#1378,#1102,#1103);
#931=AXIS2_PLACEMENT_3D('',#1380,#1105,#1106);
#932=AXIS2_PLACEMENT_3D('',#1384,#1108,#1109);
#933=AXIS2_PLACEMENT_3D('',#1388,#1111,#1112);
#934=AXIS2_PLACEMENT_3D('',#1389,#1113,#1114);
#935=AXIS2_PLACEMENT_3D('',#1393,#1116,#1117);
#936=AXIS2_PLACEMENT_3D('',#1397,#1119,#1120);
#937=AXIS2_PLACEMENT_3D('',#1398,#1121,#1122);
#938=AXIS2_PLACEMENT_3D('',#1400,#1123,#1124);
#939=AXIS2_PLACEMENT_3D('',#1402,#1125,#1126);
#940=AXIS2_PLACEMENT_3D('',#1404,#1127,#1128);
#941=AXIS2_PLACEMENT_3D('',#1406,#1129,#1130);
#942=AXIS2_PLACEMENT_3D('',#1412,#1134,#1135);
#943=AXIS2_PLACEMENT_3D('',#1418,#1139,#1140);
#944=AXIS2_PLACEMENT_3D('',#1422,#1142,#1143);
#945=AXIS2_PLACEMENT_3D('',#1426,#1145,#1146);
#946=AXIS2_PLACEMENT_3D('',#1427,#1147,#1148);
#947=AXIS2_PLACEMENT_3D('',#1431,#1150,#1151);
#948=AXIS2_PLACEMENT_3D('',#1435,#1153,#1154);
#949=AXIS2_PLACEMENT_3D('',#1436,#1155,#1156);
#950=AXIS2_PLACEMENT_3D('',#1438,#1157,#1158);
#951=AXIS2_PLACEMENT_3D('',#1440,#1159,#1160);
#952=AXIS2_PLACEMENT_3D('',#1441,#1161,#1162);
#953=AXIS2_PLACEMENT_3D('',#1442,#1163,#1164);
#954=AXIS2_PLACEMENT_3D('',#1443,#1165,#1166);
#955=AXIS2_PLACEMENT_3D('',#1444,#1167,#1168);
#956=AXIS2_PLACEMENT_3D('',#1445,#1169,#1170);
#957=AXIS2_PLACEMENT_3D('',#1448,#1173,#1174);
#958=AXIS2_PLACEMENT_3D('',#1450,#1176,#1177);
#959=AXIS2_PLACEMENT_3D('',#1452,#1179,#1180);
#960=AXIS2_PLACEMENT_3D('',#1453,#1181,#1182);
#961=AXIS2_PLACEMENT_3D('',#1456,#1185,#1186);
#962=AXIS2_PLACEMENT_3D('',#1458,#1188,#1189);
#963=AXIS2_PLACEMENT_3D('',#1460,#1191,#1192);
#964=AXIS2_PLACEMENT_3D('',#1461,#1193,#1194);
#965=AXIS2_PLACEMENT_3D('',#1464,#1197,#1198);
#966=AXIS2_PLACEMENT_3D('',#1466,#1200,#1201);
#967=AXIS2_PLACEMENT_3D('',#1468,#1203,#1204);
#968=AXIS2_PLACEMENT_3D('',#1469,#1205,#1206);
#969=AXIS2_PLACEMENT_3D('',#1472,#1209,#1210);
#970=AXIS2_PLACEMENT_3D('',#1474,#1212,#1213);
#971=AXIS2_PLACEMENT_3D('',#1476,#1215,#1216);
#972=AXIS2_PLACEMENT_3D('',#1477,#1217,#1218);
#973=AXIS2_PLACEMENT_3D('',#1478,#1219,#1220);
#974=AXIS2_PLACEMENT_3D('',#1479,#1221,#1222);
#975=AXIS2_PLACEMENT_3D('',#1480,#1223,#1224);
#976=AXIS2_PLACEMENT_3D('',#1481,#1225,#1226);
#977=AXIS2_PLACEMENT_3D('',#1482,#1227,#1228);
#978=AXIS2_PLACEMENT_3D('',#1483,#1229,#1230);
#979=AXIS2_PLACEMENT_3D('',#1484,#1231,#1232);
#980=AXIS2_PLACEMENT_3D('',#1485,#1233,#1234);
#981=DIRECTION('',(0.,0.,1.));
#982=DIRECTION('',(1.,0.,0.));
#983=DIRECTION('',(0.,-1.,0.));
#984=DIRECTION('',(0.,0.,-1.));
#985=DIRECTION('',(0.,-1.,0.));
#986=DIRECTION('',(0.,0.,1.));
#987=DIRECTION('',(1.,0.,0.));
#988=DIRECTION('',(0.,0.,-1.));
#989=DIRECTION('',(0.,-1.,0.));
#990=DIRECTION('',(0.,0.,-1.));
#991=DIRECTION('',(0.,-1.,0.));
#992=DIRECTION('',(0.,0.,1.));
#993=DIRECTION('',(1.,0.,0.));
#994=DIRECTION('',(0.,0.,-1.));
#995=DIRECTION('',(0.,-1.,0.));
#996=DIRECTION('',(0.,0.,1.));
#997=DIRECTION('',(0.,-1.,0.));
#998=DIRECTION('',(0.,0.,-1.));
#999=DIRECTION('',(-1.,0.,0.));
#1000=DIRECTION('',(0.,0.,1.));
#1001=DIRECTION('',(0.,-1.,0.));
#1002=DIRECTION('',(0.,0.,-1.));
#1003=DIRECTION('',(0.,-1.,0.));
#1004=DIRECTION('',(0.,0.,-1.));
#1005=DIRECTION('',(-1.,0.,0.));
#1006=DIRECTION('',(0.,0.,1.));
#1007=DIRECTION('',(-1.,0.,0.));
#1008=DIRECTION('',(0.,-1.,0.));
#1009=DIRECTION('',(-1.,0.,0.));
#1010=DIRECTION('',(0.,-1.,0.));
#1011=DIRECTION('',(0.,0.,1.));
#1012=DIRECTION('',(1.,0.,0.));
#1013=DIRECTION('',(0.,-1.,0.));
#1014=DIRECTION('',(1.,0.,0.));
#1015=DIRECTION('',(0.,-1.,0.));
#1016=DIRECTION('',(0.,-1.,0.));
#1017=DIRECTION('',(1.,0.,0.));
#1018=DIRECTION('',(0.,-1.,0.));
#1019=DIRECTION('',(0.,0.,-1.));
#1020=DIRECTION('',(-1.,0.,0.));
#1021=DIRECTION('',(0.,-1.,0.));
#1022=DIRECTION('',(-1.,0.,0.));
#1023=DIRECTION('',(0.,0.,1.));
#1024=DIRECTION('',(1.,0.,0.));
#1025=DIRECTION('',(0.,-1.,0.));
#1026=DIRECTION('',(1.,0.,0.));
#1027=DIRECTION('',(0.,-1.,0.));
#1028=DIRECTION('',(0.,-1.,0.));
#1029=DIRECTION('',(1.,0.,0.));
#1030=DIRECTION('',(0.,-1.,0.));
#1031=DIRECTION('',(0.,0.,-1.));
#1032=DIRECTION('',(-1.,0.,0.));
#1033=DIRECTION('',(0.,-1.,0.));
#1034=DIRECTION('',(-1.,0.,0.));
#1035=DIRECTION('',(0.,0.,1.));
#1036=DIRECTION('',(1.,0.,0.));
#1037=DIRECTION('',(0.,-1.,0.));
#1038=DIRECTION('',(1.,0.,0.));
#1039=DIRECTION('',(0.,-1.,0.));
#1040=DIRECTION('',(0.,-1.,0.));
#1041=DIRECTION('',(1.,0.,0.));
#1042=DIRECTION('',(0.,-1.,0.));
#1043=DIRECTION('',(0.,0.,-1.));
#1044=DIRECTION('',(-1.,0.,0.));
#1045=DIRECTION('',(0.,-1.,0.));
#1046=DIRECTION('',(-1.,0.,0.));
#1047=DIRECTION('',(0.,0.,1.));
#1048=DIRECTION('',(1.,0.,0.));
#1049=DIRECTION('',(0.,-1.,0.));
#1050=DIRECTION('',(1.,0.,0.));
#1051=DIRECTION('',(0.,-1.,0.));
#1052=DIRECTION('',(0.,-1.,0.));
#1053=DIRECTION('',(1.,0.,0.));
#1054=DIRECTION('',(0.,-1.,0.));
#1055=DIRECTION('',(0.,0.,-1.));
#1056=DIRECTION('',(-1.,0.,0.));
#1057=DIRECTION('',(0.,0.,1.));
#1058=DIRECTION('',(1.,0.,0.));
#1059=DIRECTION('',(-1.,0.,0.));
#1060=DIRECTION('',(0.,0.,-1.));
#1061=DIRECTION('',(1.,0.,0.));
#1062=DIRECTION('',(1.,0.,0.));
#1063=DIRECTION('',(0.,0.,1.));
#1064=DIRECTION('',(1.,0.,0.));
#1065=DIRECTION('',(0.,0.,1.));
#1066=DIRECTION('',(1.,0.,0.));
#1067=DIRECTION('',(-1.,0.,0.));
#1068=DIRECTION('',(0.,0.,-1.));
#1069=DIRECTION('',(1.,0.,0.));
#1070=DIRECTION('',(1.,0.,0.));
#1071=DIRECTION('',(0.,0.,1.));
#1072=DIRECTION('',(1.,0.,0.));
#1073=DIRECTION('',(0.,-1.,0.));
#1074=DIRECTION('',(-1.,0.,0.));
#1075=DIRECTION('',(0.,0.,-1.));
#1076=DIRECTION('',(1.,0.,0.));
#1077=DIRECTION('',(0.,0.,1.));
#1078=DIRECTION('',(1.,0.,0.));
#1079=DIRECTION('',(0.,0.,1.));
#1080=DIRECTION('',(1.,0.,0.));
#1081=DIRECTION('',(0.,0.,1.));
#1082=DIRECTION('',(0.,-1.,0.));
#1083=DIRECTION('',(0.,0.,1.));
#1084=DIRECTION('',(1.,0.,0.));
#1085=DIRECTION('',(0.,0.,-1.));
#1086=DIRECTION('',(1.,0.,0.));
#1087=DIRECTION('',(0.,-1.,0.));
#1088=DIRECTION('',(0.,0.,-1.));
#1089=DIRECTION('',(-1.,0.,0.));
#1090=DIRECTION('',(1.,0.,0.));
#1091=DIRECTION('',(0.,0.,1.));
#1092=DIRECTION('',(-1.,0.,0.));
#1093=DIRECTION('',(-1.,0.,0.));
#1094=DIRECTION('',(0.,0.,-1.));
#1095=DIRECTION('',(-1.,0.,0.));
#1096=DIRECTION('',(0.,0.,-1.));
#1097=DIRECTION('',(-1.,0.,0.));
#1098=DIRECTION('',(1.,0.,0.));
#1099=DIRECTION('',(0.,0.,1.));
#1100=DIRECTION('',(-1.,0.,0.));
#1101=DIRECTION('',(-1.,0.,0.));
#1102=DIRECTION('',(0.,0.,-1.));
#1103=DIRECTION('',(-1.,0.,0.));
#1104=DIRECTION('',(1.,0.,0.));
#1105=DIRECTION('',(0.,0.,-1.));
#1106=DIRECTION('',(-1.,0.,0.));
#1107=DIRECTION('',(1.,0.,0.));
#1108=DIRECTION('',(0.,0.,-1.));
#1109=DIRECTION('',(1.,0.,0.));
#1110=DIRECTION('',(-1.,0.,0.));
#1111=DIRECTION('',(0.,0.,-1.));
#1112=DIRECTION('',(-1.,0.,0.));
#1113=DIRECTION('',(0.,0.,-1.));
#1114=DIRECTION('',(-1.,0.,0.));
#1115=DIRECTION('',(1.,0.,0.));
#1116=DIRECTION('',(0.,0.,-1.));
#1117=DIRECTION('',(1.,0.,0.));
#1118=DIRECTION('',(-1.,0.,0.));
#1119=DIRECTION('',(0.,0.,-1.));
#1120=DIRECTION('',(-1.,0.,0.));
#1121=DIRECTION('',(0.,0.,-1.));
#1122=DIRECTION('',(-1.,0.,0.));
#1123=DIRECTION('',(0.,0.,1.));
#1124=DIRECTION('',(-1.,0.,0.));
#1125=DIRECTION('',(0.,0.,-1.));
#1126=DIRECTION('',(1.,0.,0.));
#1127=DIRECTION('',(0.,0.,1.));
#1128=DIRECTION('',(1.,0.,0.));
#1129=DIRECTION('',(0.,0.,-1.));
#1130=DIRECTION('',(-1.,0.,0.));
#1131=DIRECTION('',(0.,-1.,0.));
#1132=DIRECTION('',(0.,0.,1.));
#1133=DIRECTION('',(0.,0.,-1.));
#1134=DIRECTION('',(-1.,0.,0.));
#1135=DIRECTION('',(0.,0.,1.));
#1136=DIRECTION('',(-1.,0.,0.));
#1137=DIRECTION('',(0.,-1.,0.));
#1138=DIRECTION('',(-1.,0.,0.));
#1139=DIRECTION('',(0.,0.,1.));
#1140=DIRECTION('',(1.,0.,0.));
#1141=DIRECTION('',(-1.,0.,0.));
#1142=DIRECTION('',(0.,0.,1.));
#1143=DIRECTION('',(-1.,0.,0.));
#1144=DIRECTION('',(1.,0.,0.));
#1145=DIRECTION('',(0.,0.,1.));
#1146=DIRECTION('',(1.,0.,0.));
#1147=DIRECTION('',(0.,0.,1.));
#1148=DIRECTION('',(1.,0.,0.));
#1149=DIRECTION('',(-1.,0.,0.));
#1150=DIRECTION('',(0.,0.,1.));
#1151=DIRECTION('',(-1.,0.,0.));
#1152=DIRECTION('',(1.,0.,0.));
#1153=DIRECTION('',(0.,0.,1.));
#1154=DIRECTION('',(1.,0.,0.));
#1155=DIRECTION('',(0.,0.,-1.));
#1156=DIRECTION('',(-1.,0.,0.));
#1157=DIRECTION('',(0.,0.,1.));
#1158=DIRECTION('',(-1.,0.,0.));
#1159=DIRECTION('',(0.,0.,1.));
#1160=DIRECTION('',(1.,0.,0.));
#1161=DIRECTION('',(0.,-1.,0.));
#1162=DIRECTION('',(1.,0.,0.));
#1163=DIRECTION('',(0.,-1.,0.));
#1164=DIRECTION('',(1.,0.,0.));
#1165=DIRECTION('',(0.,-1.,0.));
#1166=DIRECTION('',(0.,0.,-1.));
#1167=DIRECTION('',(0.,-1.,0.));
#1168=DIRECTION('',(0.,0.,-1.));
#1169=DIRECTION('',(0.,-1.,0.));
#1170=DIRECTION('',(0.,0.,-1.));
#1171=DIRECTION('',(0.,0.,-1.));
#1172=DIRECTION('',(0.,0.,1.));
#1173=DIRECTION('',(0.,-1.,0.));
#1174=DIRECTION('',(0.,0.,-1.));
#1175=DIRECTION('',(0.,0.,1.));
#1176=DIRECTION('',(0.,0.,1.));
#1177=DIRECTION('',(1.,0.,0.));
#1178=DIRECTION('',(0.,0.,1.));
#1179=DIRECTION('',(0.,1.,0.));
#1180=DIRECTION('',(0.,0.,1.));
#1181=DIRECTION('',(0.,0.,1.));
#1182=DIRECTION('',(1.,0.,0.));
#1183=DIRECTION('',(0.,0.,-1.));
#1184=DIRECTION('',(0.,0.,1.));
#1185=DIRECTION('',(0.,-1.,0.));
#1186=DIRECTION('',(0.,0.,-1.));
#1187=DIRECTION('',(0.,0.,1.));
#1188=DIRECTION('',(0.,0.,1.));
#1189=DIRECTION('',(1.,0.,0.));
#1190=DIRECTION('',(0.,0.,1.));
#1191=DIRECTION('',(0.,1.,0.));
#1192=DIRECTION('',(0.,0.,1.));
#1193=DIRECTION('',(0.,0.,1.));
#1194=DIRECTION('',(1.,0.,0.));
#1195=DIRECTION('',(0.,0.,1.));
#1196=DIRECTION('',(0.,0.,1.));
#1197=DIRECTION('',(0.,0.,1.));
#1198=DIRECTION('',(1.,0.,0.));
#1199=DIRECTION('',(0.,0.,-1.));
#1200=DIRECTION('',(0.,-1.,0.));
#1201=DIRECTION('',(0.,0.,-1.));
#1202=DIRECTION('',(0.,0.,1.));
#1203=DIRECTION('',(0.,1.,0.));
#1204=DIRECTION('',(0.,0.,1.));
#1205=DIRECTION('',(0.,0.,1.));
#1206=DIRECTION('',(1.,0.,0.));
#1207=DIRECTION('',(0.,0.,1.));
#1208=DIRECTION('',(0.,0.,1.));
#1209=DIRECTION('',(0.,0.,1.));
#1210=DIRECTION('',(1.,0.,0.));
#1211=DIRECTION('',(0.,0.,-1.));
#1212=DIRECTION('',(0.,-1.,0.));
#1213=DIRECTION('',(0.,0.,-1.));
#1214=DIRECTION('',(0.,0.,1.));
#1215=DIRECTION('',(0.,1.,0.));
#1216=DIRECTION('',(0.,0.,1.));
#1217=DIRECTION('',(0.,0.,1.));
#1218=DIRECTION('',(1.,0.,0.));
#1219=DIRECTION('',(0.,0.,-1.));
#1220=DIRECTION('',(-1.,0.,0.));
#1221=DIRECTION('',(0.,0.,1.));
#1222=DIRECTION('',(1.,0.,0.));
#1223=DIRECTION('',(0.,0.,1.));
#1224=DIRECTION('',(1.,0.,0.));
#1225=DIRECTION('',(0.,0.,-1.));
#1226=DIRECTION('',(-1.,0.,0.));
#1227=DIRECTION('',(0.,0.,-1.));
#1228=DIRECTION('',(-1.,0.,0.));
#1229=DIRECTION('',(0.,0.,1.));
#1230=DIRECTION('',(1.,0.,0.));
#1231=DIRECTION('',(0.,0.,1.));
#1232=DIRECTION('',(1.,0.,0.));
#1233=DIRECTION('',(0.,0.,-1.));
#1234=DIRECTION('',(-1.,0.,0.));
#1235=CARTESIAN_POINT('',(0.,0.,0.));
#1236=CARTESIAN_POINT('',(-27.,53.,9.99999999999998));
#1237=CARTESIAN_POINT('',(-27.,28.,9.99999999999998));
#1238=CARTESIAN_POINT('',(-27.,-28.,9.99999999999998));
#1239=CARTESIAN_POINT('',(-27.,28.,4.99999999999998));
#1240=CARTESIAN_POINT('',(-27.,28.,4.99999999999999));
#1241=CARTESIAN_POINT('',(-27.,53.,4.99999999999999));
#1242=CARTESIAN_POINT('',(-27.,-28.,4.99999999999999));
#1243=CARTESIAN_POINT('',(-27.,-28.,9.99999999999998));
#1244=CARTESIAN_POINT('',(-27.,53.,4.99999999999999));
#1245=CARTESIAN_POINT('',(-27.,53.,9.99999999999998));
#1246=CARTESIAN_POINT('',(-27.,-42.,9.99999999999998));
#1247=CARTESIAN_POINT('',(-27.,-45.,9.99999999999998));
#1248=CARTESIAN_POINT('',(-27.,-42.,4.99999999999998));
#1249=CARTESIAN_POINT('',(-27.,-42.,4.99999999999999));
#1250=CARTESIAN_POINT('',(-27.,53.,4.99999999999999));
#1251=CARTESIAN_POINT('',(-27.,-45.,4.99999999999999));
#1252=CARTESIAN_POINT('',(-27.,-45.,4.99999999999999));
#1253=CARTESIAN_POINT('',(-27.,53.,4.99999999999999));
#1254=CARTESIAN_POINT('',(27.,53.,4.99999999999999));
#1255=CARTESIAN_POINT('',(27.,28.,4.99999999999999));
#1256=CARTESIAN_POINT('',(27.,-28.,4.99999999999999));
#1257=CARTESIAN_POINT('',(27.,28.,9.99999999999999));
#1258=CARTESIAN_POINT('',(27.,28.,9.99999999999998));
#1259=CARTESIAN_POINT('',(27.,53.,9.99999999999998));
#1260=CARTESIAN_POINT('',(27.,-28.,9.99999999999998));
#1261=CARTESIAN_POINT('',(27.,-28.,9.99999999999999));
#1262=CARTESIAN_POINT('',(27.,53.,9.99999999999999));
#1263=CARTESIAN_POINT('',(27.,53.,9.99999999999998));
#1264=CARTESIAN_POINT('',(27.,53.,9.99999999999998));
#1265=CARTESIAN_POINT('',(27.,42.,9.99999999999998));
#1266=CARTESIAN_POINT('',(27.,42.,9.99999999999999));
#1267=CARTESIAN_POINT('',(27.,42.,4.99999999999999));
#1268=CARTESIAN_POINT('',(27.,53.,4.99999999999999));
#1269=CARTESIAN_POINT('',(27.,53.,4.99999999999999));
#1270=CARTESIAN_POINT('',(27.,53.,9.99999999999999));
#1271=CARTESIAN_POINT('',(27.,53.,9.99999999999999));
#1272=CARTESIAN_POINT('',(16.9,-45.,4.99999999999999));
#1273=CARTESIAN_POINT('',(16.9,-45.,4.99999999999999));
#1274=CARTESIAN_POINT('',(13.1,-45.,4.99999999999999));
#1275=CARTESIAN_POINT('',(13.1,53.,4.99999999999999));
#1276=CARTESIAN_POINT('',(13.1,53.,4.99999999999999));
#1277=CARTESIAN_POINT('',(16.9,53.,4.99999999999999));
#1278=CARTESIAN_POINT('',(16.9,53.,4.99999999999999));
#1279=CARTESIAN_POINT('',(16.9,53.,4.99999999999999));
#1280=CARTESIAN_POINT('',(16.9,53.,4.99999999999999));
#1281=CARTESIAN_POINT('',(10.,-45.,5.));
#1282=CARTESIAN_POINT('',(6.9,-45.,5.));
#1283=CARTESIAN_POINT('',(6.9,53.,5.));
#1284=CARTESIAN_POINT('',(6.9,53.,5.));
#1285=CARTESIAN_POINT('',(10.,53.,5.));
#1286=CARTESIAN_POINT('',(10.,53.,5.));
#1287=CARTESIAN_POINT('',(6.9,-45.,4.99999999999999));
#1288=CARTESIAN_POINT('',(3.1,-45.,4.99999999999999));
#1289=CARTESIAN_POINT('',(3.1,53.,4.99999999999999));
#1290=CARTESIAN_POINT('',(3.1,53.,4.99999999999999));
#1291=CARTESIAN_POINT('',(6.9,53.,4.99999999999999));
#1292=CARTESIAN_POINT('',(6.9,53.,4.99999999999999));
#1293=CARTESIAN_POINT('',(8.67361737988404E-16,-45.,5.));
#1294=CARTESIAN_POINT('',(-3.1,-45.,5.));
#1295=CARTESIAN_POINT('',(-3.1,53.,5.));
#1296=CARTESIAN_POINT('',(-3.1,53.,5.));
#1297=CARTESIAN_POINT('',(8.67361737988404E-16,53.,5.));
#1298=CARTESIAN_POINT('',(8.67361737988404E-16,53.,5.));
#1299=CARTESIAN_POINT('',(-3.1,-45.,4.99999999999999));
#1300=CARTESIAN_POINT('',(-6.9,-45.,4.99999999999999));
#1301=CARTESIAN_POINT('',(-6.9,53.,4.99999999999999));
#1302=CARTESIAN_POINT('',(-6.9,53.,4.99999999999999));
#1303=CARTESIAN_POINT('',(-3.1,53.,4.99999999999999));
#1304=CARTESIAN_POINT('',(-3.1,53.,4.99999999999999));
#1305=CARTESIAN_POINT('',(-10.,-45.,5.));
#1306=CARTESIAN_POINT('',(-13.1,-45.,5.));
#1307=CARTESIAN_POINT('',(-13.1,53.,5.));
#1308=CARTESIAN_POINT('',(-13.1,53.,5.));
#1309=CARTESIAN_POINT('',(-10.,53.,5.));
#1310=CARTESIAN_POINT('',(-10.,53.,5.));
#1311=CARTESIAN_POINT('',(-13.1,-45.,4.99999999999999));
#1312=CARTESIAN_POINT('',(-16.9,-45.,4.99999999999999));
#1313=CARTESIAN_POINT('',(-16.9,53.,4.99999999999999));
#1314=CARTESIAN_POINT('',(-16.9,53.,4.99999999999999));
#1315=CARTESIAN_POINT('',(-13.1,53.,4.99999999999999));
#1316=CARTESIAN_POINT('',(-13.1,53.,4.99999999999999));
#1317=CARTESIAN_POINT('',(-20.,-45.,5.));
#1318=CARTESIAN_POINT('',(-23.1,-45.,5.));
#1319=CARTESIAN_POINT('',(-23.1,53.,5.));
#1320=CARTESIAN_POINT('',(-23.1,53.,5.));
#1321=CARTESIAN_POINT('',(-20.,53.,5.));
#1322=CARTESIAN_POINT('',(-20.,53.,5.));
#1323=CARTESIAN_POINT('',(-23.1,-45.,4.99999999999999));
#1324=CARTESIAN_POINT('',(-29.,-42.,4.99999999999999));
#1325=CARTESIAN_POINT('',(-29.,-40.,4.99999999999998));
#1326=CARTESIAN_POINT('',(-27.,-40.,4.99999999999998));
#1327=CARTESIAN_POINT('',(-30.,-40.,4.99999999999998));
#1328=CARTESIAN_POINT('',(-30.,-35.,4.99999999999998));
#1329=CARTESIAN_POINT('',(-30.,-30.,4.99999999999998));
#1330=CARTESIAN_POINT('',(-30.,-30.,4.99999999999998));
#1331=CARTESIAN_POINT('',(-29.,-30.,4.99999999999998));
#1332=CARTESIAN_POINT('',(-29.,-28.,4.99999999999999));
#1333=CARTESIAN_POINT('',(-29.,28.,4.99999999999999));
#1334=CARTESIAN_POINT('',(-29.,30.,4.99999999999998));
#1335=CARTESIAN_POINT('',(-27.,30.,4.99999999999998));
#1336=CARTESIAN_POINT('',(-30.,30.,4.99999999999998));
#1337=CARTESIAN_POINT('',(-30.,35.,4.99999999999998));
#1338=CARTESIAN_POINT('',(-30.,40.,4.99999999999998));
#1339=CARTESIAN_POINT('',(-30.,40.,4.99999999999998));
#1340=CARTESIAN_POINT('',(-29.,40.,4.99999999999998));
#1341=CARTESIAN_POINT('',(-29.,42.,4.99999999999999));
#1342=CARTESIAN_POINT('',(-27.,42.,4.99999999999999));
#1343=CARTESIAN_POINT('',(-27.,53.,4.99999999999999));
#1344=CARTESIAN_POINT('',(-27.,53.,4.99999999999999));
#1345=CARTESIAN_POINT('',(-23.1,53.,4.99999999999999));
#1346=CARTESIAN_POINT('',(-30.,-35.,4.99999999999998));
#1347=CARTESIAN_POINT('',(-27.8,-35.,4.99999999999998));
#1348=CARTESIAN_POINT('',(-30.,35.,4.99999999999998));
#1349=CARTESIAN_POINT('',(-27.8,35.,4.99999999999998));
#1350=CARTESIAN_POINT('',(-23.1,53.,4.99999999999999));
#1351=CARTESIAN_POINT('',(-27.,42.,9.99999999999998));
#1352=CARTESIAN_POINT('',(-27.,42.,9.99999999999998));
#1353=CARTESIAN_POINT('',(-27.,53.,9.99999999999998));
#1354=CARTESIAN_POINT('',(-27.,53.,9.99999999999998));
#1355=CARTESIAN_POINT('',(-27.,53.,4.99999999999999));
#1356=CARTESIAN_POINT('',(-27.,53.,4.99999999999999));
#1357=CARTESIAN_POINT('',(-27.,-45.,9.99999999999998));
#1358=CARTESIAN_POINT('',(27.,-45.,9.99999999999998));
#1359=CARTESIAN_POINT('',(27.,53.,9.99999999999998));
#1360=CARTESIAN_POINT('',(27.,-42.,9.99999999999998));
#1361=CARTESIAN_POINT('',(29.,-42.,9.99999999999998));
#1362=CARTESIAN_POINT('',(29.,-40.,9.99999999999998));
#1363=CARTESIAN_POINT('',(27.,-40.,9.99999999999998));
#1364=CARTESIAN_POINT('',(30.,-40.,9.99999999999998));
#1365=CARTESIAN_POINT('',(30.,-35.,9.99999999999998));
#1366=CARTESIAN_POINT('',(30.,-30.,9.99999999999998));
#1367=CARTESIAN_POINT('',(30.,-30.,9.99999999999998));
#1368=CARTESIAN_POINT('',(29.,-30.,9.99999999999998));
#1369=CARTESIAN_POINT('',(29.,-28.,9.99999999999998));
#1370=CARTESIAN_POINT('',(29.,28.,9.99999999999998));
#1371=CARTESIAN_POINT('',(29.,30.,9.99999999999998));
#1372=CARTESIAN_POINT('',(27.,30.,9.99999999999998));
#1373=CARTESIAN_POINT('',(30.,30.,9.99999999999998));
#1374=CARTESIAN_POINT('',(30.,35.,9.99999999999998));
#1375=CARTESIAN_POINT('',(30.,40.,9.99999999999998));
#1376=CARTESIAN_POINT('',(30.,40.,9.99999999999998));
#1377=CARTESIAN_POINT('',(29.,40.,9.99999999999998));
#1378=CARTESIAN_POINT('',(29.,42.,9.99999999999998));
#1379=CARTESIAN_POINT('',(-27.,53.,9.99999999999998));
#1380=CARTESIAN_POINT('',(-29.,42.,9.99999999999998));
#1381=CARTESIAN_POINT('',(-29.,40.,9.99999999999998));
#1382=CARTESIAN_POINT('',(-30.,40.,9.99999999999998));
#1383=CARTESIAN_POINT('',(-30.,40.,9.99999999999998));
#1384=CARTESIAN_POINT('',(-30.,35.,9.99999999999998));
#1385=CARTESIAN_POINT('',(-30.,30.,9.99999999999998));
#1386=CARTESIAN_POINT('',(-27.,30.,9.99999999999998));
#1387=CARTESIAN_POINT('',(-29.,30.,9.99999999999998));
#1388=CARTESIAN_POINT('',(-29.,28.,9.99999999999998));
#1389=CARTESIAN_POINT('',(-29.,-28.,9.99999999999998));
#1390=CARTESIAN_POINT('',(-29.,-30.,9.99999999999998));
#1391=CARTESIAN_POINT('',(-30.,-30.,9.99999999999998));
#1392=CARTESIAN_POINT('',(-30.,-30.,9.99999999999998));
#1393=CARTESIAN_POINT('',(-30.,-35.,9.99999999999998));
#1394=CARTESIAN_POINT('',(-30.,-40.,9.99999999999998));
#1395=CARTESIAN_POINT('',(-27.,-40.,9.99999999999998));
#1396=CARTESIAN_POINT('',(-29.,-40.,9.99999999999998));
#1397=CARTESIAN_POINT('',(-29.,-42.,9.99999999999998));
#1398=CARTESIAN_POINT('',(30.,35.,9.99999999999998));
#1399=CARTESIAN_POINT('',(27.8,35.,9.99999999999998));
#1400=CARTESIAN_POINT('',(30.,-35.,9.99999999999998));
#1401=CARTESIAN_POINT('',(27.8,-35.,9.99999999999998));
#1402=CARTESIAN_POINT('',(-30.,-35.,9.99999999999998));
#1403=CARTESIAN_POINT('',(-27.8,-35.,9.99999999999998));
#1404=CARTESIAN_POINT('',(-30.,35.,9.99999999999998));
#1405=CARTESIAN_POINT('',(-27.8,35.,9.99999999999998));
#1406=CARTESIAN_POINT('',(-27.,53.,9.99999999999998));
#1407=CARTESIAN_POINT('',(27.,53.,4.99999999999999));
#1408=CARTESIAN_POINT('',(27.,-42.,4.99999999999999));
#1409=CARTESIAN_POINT('',(27.,-45.,4.99999999999999));
#1410=CARTESIAN_POINT('',(27.,-42.,9.99999999999999));
#1411=CARTESIAN_POINT('',(27.,-45.,9.99999999999999));
#1412=CARTESIAN_POINT('',(27.,53.,9.99999999999999));
#1413=CARTESIAN_POINT('',(27.,-45.,4.99999999999999));
#1414=CARTESIAN_POINT('',(23.1,-45.,4.99999999999999));
#1415=CARTESIAN_POINT('',(23.1,53.,4.99999999999999));
#1416=CARTESIAN_POINT('',(23.1,53.,4.99999999999999));
#1417=CARTESIAN_POINT('',(27.,53.,4.99999999999999));
#1418=CARTESIAN_POINT('',(29.,42.,4.99999999999999));
#1419=CARTESIAN_POINT('',(29.,40.,4.99999999999998));
#1420=CARTESIAN_POINT('',(30.,40.,4.99999999999998));
#1421=CARTESIAN_POINT('',(30.,40.,4.99999999999998));
#1422=CARTESIAN_POINT('',(30.,35.,4.99999999999998));
#1423=CARTESIAN_POINT('',(30.,30.,4.99999999999998));
#1424=CARTESIAN_POINT('',(27.,30.,4.99999999999998));
#1425=CARTESIAN_POINT('',(29.,30.,4.99999999999998));
#1426=CARTESIAN_POINT('',(29.,28.,4.99999999999999));
#1427=CARTESIAN_POINT('',(29.,-28.,4.99999999999999));
#1428=CARTESIAN_POINT('',(29.,-30.,4.99999999999998));
#1429=CARTESIAN_POINT('',(30.,-30.,4.99999999999998));
#1430=CARTESIAN_POINT('',(30.,-30.,4.99999999999998));
#1431=CARTESIAN_POINT('',(30.,-35.,4.99999999999998));
#1432=CARTESIAN_POINT('',(30.,-40.,4.99999999999998));
#1433=CARTESIAN_POINT('',(27.,-40.,4.99999999999998));
#1434=CARTESIAN_POINT('',(29.,-40.,4.99999999999998));
#1435=CARTESIAN_POINT('',(29.,-42.,4.99999999999999));
#1436=CARTESIAN_POINT('',(30.,35.,4.99999999999998));
#1437=CARTESIAN_POINT('',(27.8,35.,4.99999999999998));
#1438=CARTESIAN_POINT('',(30.,-35.,4.99999999999998));
#1439=CARTESIAN_POINT('',(27.8,-35.,4.99999999999998));
#1440=CARTESIAN_POINT('',(27.,53.,4.99999999999999));
#1441=CARTESIAN_POINT('',(20.,-45.,5.));
#1442=CARTESIAN_POINT('',(20.,53.,5.));
#1443=CARTESIAN_POINT('',(20.,53.,5.));
#1444=CARTESIAN_POINT('',(10.,53.,5.));
#1445=CARTESIAN_POINT('',(10.,-45.,5.));
#1446=CARTESIAN_POINT('',(29.,30.,4.99999999999998));
#1447=CARTESIAN_POINT('',(30.,30.,4.99999999999998));
#1448=CARTESIAN_POINT('',(27.,30.,4.99999999999998));
#1449=CARTESIAN_POINT('',(30.,40.,4.99999999999998));
#1450=CARTESIAN_POINT('',(30.,35.,4.99999999999998));
#1451=CARTESIAN_POINT('',(29.,40.,4.99999999999998));
#1452=CARTESIAN_POINT('',(30.,40.,4.99999999999998));
#1453=CARTESIAN_POINT('',(30.,35.,4.99999999999998));
#1454=CARTESIAN_POINT('',(29.,-40.,4.99999999999998));
#1455=CARTESIAN_POINT('',(30.,-40.,4.99999999999998));
#1456=CARTESIAN_POINT('',(27.,-40.,4.99999999999998));
#1457=CARTESIAN_POINT('',(30.,-30.,4.99999999999998));
#1458=CARTESIAN_POINT('',(30.,-35.,4.99999999999998));
#1459=CARTESIAN_POINT('',(29.,-30.,4.99999999999998));
#1460=CARTESIAN_POINT('',(30.,-30.,4.99999999999998));
#1461=CARTESIAN_POINT('',(30.,-35.,4.99999999999998));
#1462=CARTESIAN_POINT('',(-30.,-30.,4.99999999999998));
#1463=CARTESIAN_POINT('',(-30.,-40.,4.99999999999998));
#1464=CARTESIAN_POINT('',(-30.,-35.,4.99999999999998));
#1465=CARTESIAN_POINT('',(-29.,-30.,4.99999999999998));
#1466=CARTESIAN_POINT('',(-30.,-30.,4.99999999999998));
#1467=CARTESIAN_POINT('',(-29.,-40.,9.99999999999998));
#1468=CARTESIAN_POINT('',(-27.,-40.,4.99999999999998));
#1469=CARTESIAN_POINT('',(-30.,-35.,4.99999999999998));
#1470=CARTESIAN_POINT('',(-30.,40.,4.99999999999998));
#1471=CARTESIAN_POINT('',(-30.,30.,4.99999999999998));
#1472=CARTESIAN_POINT('',(-30.,35.,4.99999999999998));
#1473=CARTESIAN_POINT('',(-29.,40.,4.99999999999998));
#1474=CARTESIAN_POINT('',(-30.,40.,4.99999999999998));
#1475=CARTESIAN_POINT('',(-29.,30.,9.99999999999998));
#1476=CARTESIAN_POINT('',(-27.,30.,4.99999999999998));
#1477=CARTESIAN_POINT('',(-30.,35.,4.99999999999998));
#1478=CARTESIAN_POINT('',(-29.,28.,4.99999999999998));
#1479=CARTESIAN_POINT('',(29.,28.,9.99999999999999));
#1480=CARTESIAN_POINT('',(29.,42.,4.99999999999998));
#1481=CARTESIAN_POINT('',(-29.,42.,4.99999999999999));
#1482=CARTESIAN_POINT('',(-29.,-28.,4.99999999999999));
#1483=CARTESIAN_POINT('',(29.,-28.,4.99999999999998));
#1484=CARTESIAN_POINT('',(29.,-42.,9.99999999999999));
#1485=CARTESIAN_POINT('',(-29.,-42.,4.99999999999998));
#1486=MECHANICAL_DESIGN_GEOMETRIC_PRESENTATION_REPRESENTATION('',(#32),
#1487);
#1487=(
GEOMETRIC_REPRESENTATION_CONTEXT(3)
GLOBAL_UNCERTAINTY_ASSIGNED_CONTEXT((#1488))
GLOBAL_UNIT_ASSIGNED_CONTEXT((#1494,#1490,#1489))
REPRESENTATION_CONTEXT('RKSE-004-053','TOP_LEVEL_ASSEMBLY_PART')
);
#1488=UNCERTAINTY_MEASURE_WITH_UNIT(LENGTH_MEASURE(2.E-5),#1494,
'DISTANCE_ACCURACY_VALUE','Maximum Tolerance applied to model');
#1489=(
NAMED_UNIT(*)
SI_UNIT($,.STERADIAN.)
SOLID_ANGLE_UNIT()
);
#1490=(
CONVERSION_BASED_UNIT('DEGREE',#1492)
NAMED_UNIT(#1491)
PLANE_ANGLE_UNIT()
);
#1491=DIMENSIONAL_EXPONENTS(0.,0.,0.,0.,0.,0.,0.);
#1492=PLANE_ANGLE_MEASURE_WITH_UNIT(PLANE_ANGLE_MEASURE(0.0174532925),#1493);
#1493=(
NAMED_UNIT(*)
PLANE_ANGLE_UNIT()
SI_UNIT($,.RADIAN.)
);
#1494=(
LENGTH_UNIT()
NAMED_UNIT(*)
SI_UNIT(.MILLI.,.METRE.)
);
ENDSEC;
END-ISO-10303-21;
